<?xml version="1.0" encoding="UTF-8"?>
<svg xmlns="http://www.w3.org/2000/svg"
  xmlns:xlink="http://www.w3.org/1999/xlink" viewBox="0 0 1077.43 1536.92">
  <defs>
    <style>
      .cls-1 {
        stroke-width: 5.87px;
      }

      .cls-1, .cls-2, .cls-3, .cls-4, .cls-5, .cls-6, .cls-7, .cls-8, .cls-9, .cls-10, .cls-11, .cls-12, .cls-13 {
        fill: #f4f192;
      }

      .cls-1, .cls-2, .cls-4, .cls-14, .cls-5, .cls-6, .cls-7, .cls-8, .cls-9, .cls-10, .cls-11, .cls-12, .cls-13, .cls-15 {
        stroke: #4c4810;
      }

      .cls-1, .cls-2, .cls-4, .cls-5, .cls-6, .cls-7, .cls-16, .cls-8, .cls-9, .cls-10, .cls-11, .cls-12, .cls-13 {
        stroke-miterlimit: 10;
      }

      .cls-2 {
        stroke-width: 3.7px;
      }

      .cls-3, .cls-17, .cls-18, .cls-19, .cls-14, .cls-20, .cls-21, .cls-22, .cls-23, .cls-24, .cls-25, .cls-26, .cls-27, .cls-15 {
        stroke-linecap: round;
        stroke-linejoin: round;
      }

      .cls-3, .cls-17, .cls-21, .cls-9 {
        stroke-width: 6.1px;
      }

      .cls-3, .cls-18, .cls-19, .cls-21, .cls-24 {
        stroke: #4b4a0c;
      }

      .cls-17, .cls-20, .cls-23, .cls-25 {
        fill: #f9f6f4;
        stroke: #4b4a0d;
      }

      .cls-18, .cls-19 {
        stroke-width: 6px;
      }

      .cls-18, .cls-21, .cls-28, .cls-24, .cls-29, .cls-30, .cls-26, .cls-27, .cls-15 {
        fill: none;
      }

      .cls-19 {
        fill: #82bc4b;
      }

      .cls-4 {
        stroke-width: 5.31px;
      }

      .cls-31 {
        fill: #ece9da;
      }

      .cls-14 {
        fill: #8dbcd6;
      }

      .cls-14, .cls-15 {
        stroke-width: 6.44px;
      }

      .cls-20 {
        stroke-width: 5.25px;
      }

      .cls-5 {
        stroke-width: 4.33px;
      }

      .cls-22 {
        stroke: #eefda8;
      }

      .cls-22, .cls-32 {
        fill: #eefda8;
      }

      .cls-6 {
        stroke-width: 3.82px;
      }

      .cls-7 {
        stroke-width: 3.01px;
      }

      .cls-16 {
        fill: #dbd7c6;
        stroke-width: 14.13px;
      }

      .cls-16, .cls-26 {
        stroke: #d6d1bc;
      }

      .cls-8 {
        stroke-width: 4.15px;
      }

      .cls-10 {
        stroke-width: 2.7px;
      }

      .cls-11 {
        stroke-width: 7.1px;
      }

      .cls-12 {
        stroke-width: 3.8px;
      }

      .cls-23 {
        stroke-width: 5.45px;
      }

      .cls-24 {
        stroke-width: 7px;
      }

      .cls-29 {
        clip-path: url(#clippath);
      }

      .cls-33 {
        fill: #c7e5b3;
      }

      .cls-25 {
        stroke-width: 5.33px;
      }

      .cls-13 {
        stroke-width: 4.9px;
      }

      .cls-34 {
        fill: #d6d1bc;
      }

      .cls-30 {
        clip-path: url(#clippath-1);
      }

      .cls-26 {
        stroke-width: 17.9px;
      }

      .cls-27 {
        stroke: #4b490e;
        stroke-width: 6.32px;
      }
    </style>
    <clipPath id="clippath">
      <path class="cls-28" d="m658.27,215.01c.02-.07.04-.15.06-.22.91-3.39,2.62-6.25,1.74-9.91-.5-2.08-1.75-3.89-2.97-5.65-1.3-1.87-2.33-3.91-4.04-5.41-1.03-.91-2.07-1.81-3.11-2.7-2.43-2.09-4.87-4.16-7.34-6.2-6.16-5.1-12.43-10.06-18.81-14.88-7.7-5.81-15.55-11.41-23.57-16.77-8.94-5.98-18.08-11.67-27.43-16.98-9.89-5.63-20.01-10.84-30.38-15.52-10.55-4.76-21.37-8.96-32.43-12.37-7.14-2.2-14.41-4.18-21.75-5.56-7.79-1.56-15.35,3.64-16.93,11.55-7.74,38.76-26.99,151.23-9.32,236.54,1.49,7.19,8.04,12.12,15.25,11.61,3.55-.25,7.09-.62,10.62-1.09,4.42-.59,8.83-1.34,13.2-2.24,5.13-1.06,10.23-2.32,15.26-3.78,5.7-1.65,11.32-3.56,16.84-5.71,6.11-2.38,12.1-5.06,17.95-8.03,6.38-3.24,12.59-6.83,18.58-10.74,6.51-4.25,12.76-8.87,18.74-13.84,6.48-5.4,12.63-11.19,18.42-17.33,6.31-6.7,12.18-13.8,17.62-21.22,5.97-8.15,11.41-16.68,16.35-25.49,5.46-9.75,10.31-19.84,14.6-30.16,1.13-2.71,1.92-5.54,3-8.24s2.03-5.34,2.03-8.4c0-1.09-.1-2.2-.49-3.23-.4-1.05-1.08-1.97-1.79-2.83-2.58-3.16-5.67-5.91-9.11-8.12"/>
    </clipPath>
    <clipPath id="clippath-1">
      <path class="cls-28" d="m889.06,676.28c-6.77-3.73-13.34-7.75-19.58-12.2-7.69-5.47-16.76-13.64-19.03-22.75-2.48-1.51-4.94-3.04-7.36-4.64-11.11-7.35-20.69-15.86-32.11-22.37-1.22-.69-2.42-1.35-3.61-1.98-9.25,8.15-18.2,16.58-26.94,25.16-10.31,10.14-20.35,20.49-30.27,30.93-9.47,9.97-19.69,19.66-28.28,30.25-6.3,7.77-12.93,15.37-18.8,23.4-1.77,2.43-3.47,4.89-5.02,7.43-.65,1.05-1.26,2.12-1.86,3.19-.28.49-.54.99-.8,1.5-.38.88-.72,1.77-1.03,2.66.35,4.5-.37,8.96-2.7,13.21-2.49,4.54-9.43,6.58-14.68,5.3-5.99-1.46-8.84-5.99-9.54-11.12-.38-2.8-.25-5.61.27-8.41-.03-.11-.06-.21-.1-.32-.3-.87-.63-1.74-.98-2.6-.06-.15-.56-1.26-.78-1.78-.26-.51-.82-1.63-.9-1.77-.45-.86-.92-1.71-1.39-2.56-3.61-6.46-7.44-12.92-11.82-19-9.4-13.06-20.57-25.14-28.22-38.99-4.74,3.69-9.55,7.33-14.41,10.93-10.58,7.81-19.2,16.97-27.99,26.19-8.58,15.52-19.84,30.15-33.44,42.38-.25.22-.5.43-.76.63-.68,2.31-1.21,4.66-1.56,7.07-.85,5.87-4.36,10.4-11.27,11.33-5.84.78-13.15-2.69-14.26-8.26-2.38-11.94-11.06-21.99-16.22-33.07-5.21-11.2-8.64-22.84-15.02-33.6-11.77-19.85-20.33-41.01-30.9-61.35-4.14,2.3-8.42,4.38-12.51,6.45-4.49,2.28-8.75,4.86-13.2,7.17-13.03,12.21-29.04,21.34-45.3,30.27-10.16,5.58-18.64,12.69-29.13,17.75-7.15,6.29-15.45,11.49-21.78,18.45-1.11,1.22-2.54,2.09-4.13,2.63.59,3.37-.43,6.85-3.53,9.6-4.68,4.15-13.84,4.75-18.38,0-8.4-8.78-15.39-18.4-22.33-28.11-6-8.38-11.81-16.34-20.26-22.94-8.59-6.69-18.05-12.4-26.26-19.49-5.75-4.96-11.21-10.17-16.83-15.24-.14.62-.29,1.23-.43,1.86-124.21,524.4,742.19,517.49,665.46,36.77Z"/>
    </clipPath>
  </defs>
  <g id="Capa_5" data-name="Capa 5">
    <path class="cls-16" d="m892.18,689.76l-85.29-125.1c-3.13-4.59-10.51-4.9-14.12-.59l-95.88,114.72c-3.75,4.49-11.52,3.93-14.4-1.04l-44.64-76.97c-2.83-4.88-10.39-5.53-14.23-1.24l-77.63,86.83c-3.83,4.28-11.35,3.65-14.2-1.19l-56.88-96.34c-2.37-4.01-8.15-5.28-12.36-2.72l-145.46,88.65c-3.55,2.16-8.36,1.63-11.21-1.23l-71.81-72.39c-4.94-4.98-14.19-2.3-14.86,4.31l-6.15,60.36s0,.09.02.13l54.83,117.27c.04.08.12.14.22.16l276.56,55.54s.06,0,.1,0l204.09-16.3c.07,0,.14-.04.2-.08l143.06-132.46c.1-.09.11-.23.04-.33Z"/>
  </g>
  <g id="dino_huevo">
    <g>
      <g id="espinas">
        <circle class="cls-8" cx="457.28" cy="547" r="30.37"/>
        <circle class="cls-8" cx="527.75" cy="547" r="30.37"/>
        <circle class="cls-8" cx="596.68" cy="558.76" r="30.37"/>
        <circle class="cls-8" cx="402.64" cy="613.55" r="30.37"/>
        <circle class="cls-2" cx="365.68" cy="672.97" r="27.11"/>
        <circle class="cls-2" cx="307.97" cy="707.6" r="27.11"/>
      </g>
      <g id="pata_trasera" data-name="pata trasera">
        <path class="cls-19" d="m699.17,860.84h64.51c1.64,0,3.24-.45,4.63-1.31,10.04-6.2,48.32-33.85.76-70.49-1.91-1.47-3.16-3.66-3.42-6.05l-4.11-37.36c-.58-5.26-5.62-8.84-10.78-7.65l-73.84,17.11c-4.01.93-6.84,4.5-6.84,8.61v88.3c0,4.88,3.96,8.84,8.84,8.84h20.27Z"/>
        <g id="garras">
          <path class="cls-17" d="m785.76,839.11c.36-.77.38-1.65.08-2.45-1.66-4.43-8.5-21.24-17.36-23.57-7.87-2.07-11.04,5.35-12.08,8.85-.31,1.03-.08,2.14.6,2.97,3.05,3.68,11.99,14.86,14.66,22.79.73,2.18,3.41,2.92,5.15,1.42,3.31-2.87,7.49-6.88,8.95-10.01Z"/>
          <path class="cls-17" d="m751.54,859.11c3.5.05,11.76-.23,17.81-3.52,2.05-1.12,2.96-3.57,2.09-5.74-3.41-8.51-13.2-30.1-23.5-25.77-11.55,4.85-5.44,26.85.18,33.45.85,1,2.1,1.57,3.42,1.59Z"/>
          <path class="cls-17" d="m781.51,800.42c2.9,4.12,14.51,21.86,8.37,33.75-.71,1.38-2.67,1.45-3.5.14-3.75-5.91-12.97-19.85-17.59-21.65-.89-.35-1.36-1.32-1.17-2.26.7-3.58,3.19-10.37,12.1-10.83.71-.04,1.39.28,1.8.85Z"/>
        </g>
      </g>
      <g id="cuerpo">
        <g id="cuerpo-2" data-name="cuerpo">
          <path class="cls-19" d="m665.9,495.73s1.26,8.05,1.36,19.38c.23,24.8-12.01,50.32-39.25,52.64-14.84,1.27-27.68-5.06-41.07-10.4-18.54-7.39-37.49-14.32-57.27-17.5-12.42-2-25.12-2.46-37.58-.53-49.89,7.71-81.87,46.58-100.68,90.45-20.08,46.86-40.86,67.41-52.32,75.85-6.92,5.09-16.01,6.31-23.92,2.97s-17.24-10.03-27.43-24.45c-3.83-5.43-9.93-8.98-16.57-9.25-5.91-.24-12.24,2.05-15.24,11.51-1.59,5-1.59,10.38-.22,15.45,6.18,22.86,36.56,101.39,163.02,105.48,5.23.17,10.44.67,15.63,1.41,35.74,5.07,175.67,22.67,248.12-1.26-11.47,2.21,215.08-64.55,106.02-475.16-1.02-3.84-6.07-4.72-8.33-1.46l-114.29,164.87Z"/>
          <path class="cls-32" d="m329.9,712.24s29.11,6.61,75.39-81.19c27.09-51.4,80.17-84.05,138.26-83.95,1.34,0,2.69.01,4.05.04,0,0-46.98-32.68-118.98,21.96,0,0-32.01,49.09-36.94,60.09,0,0-33.87,69.44-61.79,83.06Z"/>
          <path class="cls-18" d="m665.9,495.73s1.26,8.05,1.36,19.38c.23,24.8-12.01,50.32-39.25,52.64-14.84,1.27-27.68-5.06-41.07-10.4-18.54-7.39-37.49-14.32-57.27-17.5-12.42-2-25.12-2.46-37.58-.53-49.89,7.71-81.87,46.58-100.68,90.45-20.08,46.86-40.86,67.41-52.32,75.85-6.92,5.09-16.01,6.31-23.92,2.97s-17.24-10.03-27.43-24.45c-3.83-5.43-9.93-8.98-16.57-9.25-5.91-.24-12.24,2.05-15.24,11.51-1.59,5-1.59,10.38-.22,15.45,6.18,22.86,36.56,101.39,163.02,105.48,5.23.17,10.44.67,15.63,1.41,35.74,5.07,175.67,22.67,248.12-1.26-11.47,2.21,215.08-64.55,106.02-475.16-1.02-3.84-6.07-4.72-8.33-1.46l-114.29,164.87Z"/>
          <path class="cls-13" d="m753.82,441.07c3.15,23.53.41,65.74-3.39,103.86-5.89,59.08-23.45,116.45-52.13,168.44-8.01,14.51-15.25,25.65-19.64,27.98l3.83,66.13c5.34-1.72,216.64-65.01,104.93-479.1-.45-1.68-2.82-1.72-3.33-.07-6.9,22.3-31.56,103.1-30.26,112.77Z"/>
          <ellipse class="cls-4" cx="486.06" cy="593.58" rx="18.72" ry="10.4"/>
          <ellipse class="cls-8" cx="532.45" cy="570.92" rx="13.28" ry="8.94"/>
        </g>
        <ellipse class="cls-12" cx="555.11" cy="601.69" rx="11.17" ry="8.94"/>
        <ellipse class="cls-7" cx="590.98" cy="583.4" rx="8.11" ry="7.69"/>
        <ellipse class="cls-10" cx="627.43" cy="603.2" rx="7.28" ry="6.91"/>
      </g>
      <g id="cara">
        <path class="cls-19" d="m788.53,350.97c0,22.45-8.19,44.47-18.51,64.09-9.29,17.66-21.07,36.12-35.42,50.1-33,32.15-81.37,51-126.72,55.06-41.77,3.74-90.6-2.46-126-26.62-13.9-9.48-27.13-23.77-27.13-41.62,0-12.88,2.09-30.52,13.9-41.71,1.91-1.81,2.59-4.59,1.54-7-7.29-16.82-7.19-32.35-7.19-52.31,0-81.22,72.87-147.07,162.77-147.07s162.76,65.85,162.76,147.07Z"/>
        <path class="cls-22" d="m461.21,466.28s-1.91-25.01,14.26-55.35c.5-.93.78-1.97.8-3.02.14-7.12.43-14.25,1.07-21.34.74-8.32,1.15-18.77,5.79-25.98,3.08-4.79,8.2-8.19,12.46-11.92,2.78-2.44,5.56-4.87,8.35-7.3,7.28-6.34,14.57-12.66,21.89-18.95,18.38-15.81,36.89-31.48,55.62-46.87,17.81-14.63,35.76-29.15,54.42-42.7,6.57-4.77,13.23-9.48,20.21-13.64,2.4-1.43,4.85-2.83,7.41-3.95,1.43-.63,3.79-.8,5.03-1.57-.01,0-202.55,125.96-203.23,150.13-.5,17.92,3.55,33.79,6.18,40.84.89,2.39.51,5.06-.98,7.14-6.19,8.65-19.96,32.87-9.29,54.49Z"/>
        <path id="trazo" class="cls-27" d="m788.53,350.97c0,22.45-8.19,44.47-18.51,64.09-9.29,17.66-21.07,36.12-35.42,50.1-33,32.15-81.37,51-126.72,55.06-41.77,3.74-90.6-2.46-126-26.62-13.9-9.48-27.13-23.77-27.13-41.62,0-12.88,2.09-30.52,13.9-41.71,1.91-1.81,2.59-4.59,1.54-7-7.29-16.82-7.19-32.35-7.19-52.31,0-81.22,72.87-147.07,162.77-147.07s162.76,65.85,162.76,147.07Z"/>
        <ellipse class="cls-32" cx="532.3" cy="432.69" rx="26.88" ry="13.25" transform="translate(-69.05 102.62) rotate(-10.34)"/>
        <ellipse class="cls-32" cx="698.42" cy="387.41" rx="26.88" ry="13.25" transform="translate(-81.87 217.06) rotate(-16.7)"/>
        <path class="cls-18" d="m508.69,400.15c4.85-14.93,29.25-28.63,42.14.86"/>
        <path class="cls-18" d="m656.28,374.45c-1.02-18,17.36-48,37.66-22.6"/>
        <path class="cls-24" d="m620.53,476.58c34.6,25.79,92.04.77,71.62-50.81"/>
      </g>
      <g id="gorrito">
        <g id="gorrito-2" data-name="gorrito">
          <g class="cls-29">
            <path class="cls-14" d="m477.24,362.53c34.87-2.48,133.9-21.11,182.31-150.12,2.17-5.78.56-12.32-4.01-16.4-22.49-20.06-92.83-78.27-167.29-93.18-7.79-1.56-15.35,3.64-16.93,11.55-7.74,38.76-26.99,151.23-9.32,236.54,1.49,7.19,8.04,12.12,15.25,11.61Z"/>
            <circle class="cls-9" cx="583.26" cy="233.52" r="25.53"/>
            <ellipse class="cls-6" cx="538.06" cy="144.99" rx="15.7" ry="16.28"/>
            <ellipse class="cls-5" cx="482.92" cy="202.88" rx="17.36" ry="18.38"/>
            <circle class="cls-13" cx="549.87" cy="310.43" r="20.23"/>
            <ellipse class="cls-11" cx="461.92" cy="296.33" rx="28.53" ry="30.13"/>
            <path class="cls-1" d="m662.02,189.99c0,13.75.4,17.66-9.32,33.06-6.95,11.01-26.27-15.74-26.27-29.49s10.55-24.89,23.58-24.89,12.02,7.57,12.02,21.32Z"/>
          </g>
          <path class="cls-15" d="m488.24,102.83s-14.21-2.78-16.93,11.55-28.46,184.15-9.32,236.54c0,0-.39,11.68,15.25,11.61s123.79-12.16,182.31-150.12c0,0,4.94-4.12-4.01-16.4,0,0-81.54-73.99-167.29-93.18Z"/>
        </g>
        <path class="cls-3" d="m470.33,99.25c-6.54,3.69-29.01,17.46-31.29,33.83-1.57,11.33,12.7,17.62,20.16,8.95,4.01-4.66,8.47-12.04,12.9-23.67,0,0-17.36,37.11,5.11,35.4,19.81-1.5,23.74-31.84,20.9-41.33-.71-2.38.54-4.95,2.91-5.69,3.37-1.05,9.07-1.03,18.32,3.31,7.47,3.5,15.69-3.53,13.03-11.34-1.12-3.31-3.68-7.1-8.52-11.33-15-13.12-32.52-4.12-39.32.31-1.7,1.11-3.93.86-5.38-.56-6.03-5.95-21.61-18.55-30.54-.43,0,0-7.48,12.37,21.45,11.64.5-.01.7.65.26.9Z"/>
        <path class="cls-21" d="m470,123.59c.34-.7,2.01-4.28,2.36-4.97"/>
        <path class="cls-21" d="m472.24,118.62c.79-1.75,3.91-8.74,6.98-10.65"/>
        <path class="cls-21" d="m482.56,90.49c-.67,1.3-.89,2.82-.63,4.25"/>
        <path class="cls-21" d="m496.87,107.07c.13-.19.03-.44-.08-.64-1.13-2.02-3.52-3.27-5.82-3.03"/>
      </g>
      <g id="pata_delantera" data-name="pata delantera">
        <path class="cls-19" d="m575.6,778.11l2.04,78.64s-7.66,39.83,116.94,26.55c0,0,15.7-1.63,19.91-28.6,4.69-30.04-30.13-40.85-30.13-40.85l-4.09-79.15"/>
        <path class="cls-17" d="m666.35,884.21c3.47.46,11.7,1.15,18.1-1.42,2.17-.87,3.36-3.2,2.75-5.46-2.39-8.85-9.6-31.43-20.33-28.34-12.04,3.47-8.54,26.03-3.73,33.24.73,1.1,1.9,1.81,3.21,1.98Z"/>
        <path class="cls-25" d="m704.99,829.08c2.23,3.89,11.11,20.6,5.51,31.26-.65,1.24-2.28,1.22-2.92-.01-2.86-5.56-9.92-18.7-13.68-20.53-.72-.35-1.07-1.26-.88-2.12.73-3.25,3.1-9.38,10.52-9.46.59,0,1.14.31,1.45.85Z"/>
        <path class="cls-23" d="m690.87,878.59c.49,1.82,3.07,2.77,4.95,1.82,3.59-1.82,10.34-12.25,12.12-14.53.44-.56.55-1.26.34-1.93-1.17-3.73-7.12-18.81-15.65-21.84-3.16-1.12-5.71-.98-7.87-.12-4.7,1.87-7.1,7.12-5.82,12.01l11.92,24.59Z"/>
      </g>
      <g id="pata3">
        <path class="cls-19" d="m437.04,754.97l-11.57,90.89s-9.53,65.36,123.23,42.55c0,0,46.64-18.72,0-62.3l4.77-48.34"/>
        <path class="cls-20" d="m502.49,890.79c2.89,1.08,9.81,3.32,15.77,2.51,2.02-.27,3.47-1.94,3.36-3.92-.41-7.74-2.42-27.72-12.18-27.36-10.95.4-12.12,19.61-9.33,26.5.42,1.05,1.3,1.87,2.38,2.27Z"/>
        <path class="cls-23" d="m525.38,888.45c.33,1.86,2.81,3.03,4.77,2.25,3.74-1.5,12.77-2.91,14.75-5.02.49-.52.66-1.2.51-1.89-.84-3.82-.34-21.34-8.56-25.11-3.05-1.4-5.6-1.48-7.83-.82-4.84,1.44-7.7,6.46-6.87,11.45l3.22,19.15Z"/>
        <path class="cls-23" d="m563.64,872.89c.49-.52.66-1.2.51-1.89-.84-3.82.03-17.71-8.19-21.49-7.31-3.36-11.65,4.16-13.29,6.66-.48.74-.15,1.58.06,2.44.99,3.99,3.06,15.74,4.25,22.5.33,1.86,2.81,3.03,4.77,2.25,3.74-1.5,9.9-8.36,11.88-10.48Z"/>
      </g>
    </g>
  </g>
  <g id="huevo_abajo" data-name="huevo abajo">
    <path class="cls-34" d="m241.25,652.9c8.21,7.09,17.67,12.8,26.26,19.49,8.46,6.59,14.27,14.55,20.26,22.94,6.95,9.7,13.93,19.32,22.33,28.11,4.55,4.75,13.71,4.15,18.38,0,2.65-2.35,3.78-5.24,3.69-8.13-.03-.83.41-1.64,1.23-2.05,1.03-.52,1.96-1.2,2.74-2.05,6.25-6.88,12.96-13.41,20.01-19.63.17-.15.37-.28.58-.38,10.37-5.02,20.27-10.67,30.32-16.19,16.16-8.88,32.08-17.96,45.07-30.06.15-.14.33-.27.52-.37,4.35-2.27,8.52-4.79,12.91-7.02,3.28-1.66,6.68-3.33,10.04-5.11,1.32-.7,3.04-.25,3.67,1,10.03,19.62,18.38,39.92,29.7,59.01,6.38,10.76,9.81,22.41,15.02,33.6,5.15,11.08,13.84,21.13,16.22,33.07,1.11,5.57,8.42,9.04,14.26,8.26,6.91-.92,10.42-5.46,11.27-11.33.31-2.18.78-4.31,1.36-6.4.12-.42.37-.8.72-1.09.08-.07.16-.14.24-.21,13.53-12.17,24.74-26.7,33.3-42.14.09-.16.2-.31.33-.45,8.72-9.15,17.29-18.23,27.79-25.99,4.02-2.97,8-5.97,11.94-9.01,1.24-.96,3.17-.65,3.93.64,7.57,12.79,17.94,24.18,26.76,36.43,4.38,6.08,8.21,12.54,11.82,19,.47.85.94,1.7,1.39,2.56.07.14.6,1.19.87,1.72.02.04.04.07.05.11.24.54.7,1.58.76,1.72.32.78.63,1.58.9,2.37l.08,1.06c-.44,2.63-.54,5.27-.18,7.89.71,5.13,3.55,9.66,9.54,11.12,5.25,1.28,12.19-.76,14.68-5.3,2.26-4.12,3-8.43,2.73-12.79-.02-.28.02-.55.11-.82.26-.73.54-1.45.85-2.17.03-.06.05-.12.08-.17.24-.47.49-.95.75-1.41.6-1.07,1.21-2.14,1.86-3.19,1.56-2.54,3.25-5.01,5.02-7.43,5.87-8.03,12.49-15.64,18.8-23.4,8.59-10.59,18.81-20.28,28.28-30.25,9.92-10.44,19.95-20.8,30.27-30.93,8.29-8.15,16.77-16.15,25.52-23.91.83-.74,2.14-.89,3.14-.34.63.34,1.26.69,1.9,1.06,11.42,6.51,21,15.03,32.11,22.37,2.15,1.42,4.35,2.8,6.56,4.15.51.31.87.78,1.02,1.32,2.6,8.78,11.35,16.61,18.8,21.92,8.72,6.21,16.3,13.94,26.32,20.28,2.82,1.79,5.27,2.8,5.68,5.85,65.43,487.07-816.89,488.07-689.28-50.7,0-.03.02-.07.02-.1.97-4.26,6.92-5.84,10.38-2.76l18.25,16.24"/>
    <g class="cls-30">
      <path class="cls-31" d="m889.14,676.75c-.05-.29-.24-.55-.52-.71-6.62-3.66-13.03-7.6-19.14-11.95-7.59-5.4-16.52-13.42-18.94-22.39-.06-.24-.22-.44-.45-.58-2.36-1.44-4.71-2.9-7.01-4.42-11.11-7.35-20.69-15.86-32.11-22.37-.96-.55-1.91-1.07-2.86-1.58-.44-.24-1.01-.17-1.38.15-9.03,7.98-17.77,16.22-26.32,24.61-10.31,10.14-20.35,20.49-30.27,30.93-9.47,9.97-19.69,19.66-28.28,30.25-6.3,7.77-12.93,15.37-18.8,23.4-1.77,2.43-3.47,4.89-5.02,7.43-.65,1.05-1.26,2.12-1.86,3.19-.27.48-.53.97-.78,1.46-.01.03-.02.05-.04.08-.35.81-.66,1.62-.95,2.44-.04.12-.06.24-.05.36.32,4.44-.41,8.83-2.71,13.02-2.49,4.54-9.43,6.58-14.68,5.3-5.99-1.46-8.84-5.99-9.54-11.12-.37-2.72-.25-5.46.23-8.18l-.04-.49c-.3-.89-.64-1.78-1-2.65-.06-.15-.54-1.23-.77-1.75,0-.02-.01-.03-.02-.05-.27-.52-.81-1.61-.89-1.75-.45-.86-.92-1.71-1.39-2.56-3.61-6.46-7.44-12.92-11.82-19-9.14-12.7-19.96-24.47-27.58-37.84-.33-.58-1.18-.73-1.73-.3-4.39,3.4-8.83,6.76-13.32,10.08-10.55,7.79-19.14,16.91-27.9,26.1-.06.06-.11.13-.15.2-8.57,15.49-19.81,30.07-33.38,42.27-.16.15-.33.29-.5.42s-.3.31-.35.51c-.63,2.21-1.13,4.47-1.47,6.77-.85,5.87-4.36,10.4-11.27,11.33-5.84.78-13.15-2.69-14.26-8.26-2.38-11.94-11.06-21.99-16.22-33.07-5.21-11.2-8.64-22.84-15.02-33.6-11.57-19.52-20.04-40.3-30.37-60.32-.28-.55-1.04-.74-1.61-.43-3.8,2.06-7.7,3.97-11.43,5.86-4.44,2.26-8.67,4.81-13.07,7.11-.08.04-.16.1-.23.16-13.01,12.16-28.98,21.27-45.2,30.18-10.12,5.56-18.58,12.63-29.01,17.69-.08.04-.16.09-.23.15-7.13,6.25-15.38,11.43-21.67,18.36-.95,1.04-2.12,1.82-3.42,2.36-.43.18-.65.59-.6,1.01.33,3.13-.76,6.31-3.64,8.86-4.68,4.15-13.84,4.75-18.38,0-8.4-8.78-15.39-18.4-22.33-28.11-6-8.38-11.81-16.34-20.26-22.94-8.59-6.69-18.05-12.4-26.26-19.49-5.24-4.52-10.24-9.26-15.35-13.9-.63-.57-1.73-.29-1.91.5,0,0,0,.01,0,.02-124.17,524.23,741.63,517.5,665.53,37.23Z"/>
      <path class="cls-33" d="m488.59,692.44c-11.77-19.85-20.33-41.01-30.9-61.35-4.14,2.3-8.42,4.38-12.51,6.45-4.49,2.28-8.75,4.86-13.2,7.17-12.14,11.38-26.86,20.08-41.97,28.44,27.01,21.1,63.56,29.5,100.12,22-.5-.91-1-1.82-1.54-2.72Z"/>
      <path class="cls-33" d="m267.12,672.39c-8.26-6.44-17.31-11.97-25.29-18.69-.12,1.13-.21,2.29-.24,3.49.47,24.6,22.53,36.16,43.32,34.7-5.17-7.11-10.5-13.82-17.79-19.5Z"/>
      <path class="cls-33" d="m661.34,853.57c-1.05,54.49-92.41,54.48-93.45,0,1.05-54.48,92.41-54.48,93.45,0Z"/>
      <path class="cls-33" d="m978.45,799.89c-2.48,128.62-218.14,128.6-220.6,0,2.48-128.62,218.14-128.6,220.6,0Z"/>
      <path class="cls-33" d="m416.09,930.52c-2.41,125.27-212.46,125.25-214.85,0,2.41-125.27,212.46-125.25,214.85,0Z"/>
    </g>
    <path class="cls-26" d="m219.25,637.66l83.92,80.77c4.85,4.67,12.89,5.35,18.66,1.58l118.82-77.77c7.02-4.59,17.01-2.46,20.9,4.47l55.37,106.73c4.56,8.13,17.08,9.33,23.5,2.26l65.14-72.35c6.27-6.91,18.44-5.95,23.25,1.83l33.32,53.93c6.42,12.76,18.73,14.21,23.23,1.84l107.26-117.68c5.29-5.8,15.11-6.2,20.98-.85l72.42,66.02"/>
  </g>
</svg>