<?xml version="1.0" encoding="UTF-8"?>
<svg id="huevo_3" data-name="huevo 3" xmlns="http://www.w3.org/2000/svg" viewBox="0 0 1052.32 1066.49">
  <defs>
    <style>
      .cls-1 {
        fill: #dbd7c6;
      }

      .cls-1, .cls-2 {
        stroke: #d6d1bc;
        stroke-miterlimit: 10;
        stroke-width: 15px;
      }

      .cls-2 {
        fill: #ece9da;
      }

      .cls-3 {
        fill: #c7e5b3;
      }
    </style>
  </defs>
  <path class="cls-1" d="m265.05,674.5c-2.77.71-5.65-.68-6.82-3.29l-61.24-136.52c-.17-.29.02-.66.35-.69l640.54-64.93c3.01-.31,5.76,1.72,6.36,4.69l34.91,173.5c1,4.95-4.3,8.77-8.69,6.26l-83.96-48.14c-2.16-1.24-4.86-.98-6.75.64l-137.44,117.89c-2.64,2.27-6.66,1.75-8.65-1.11l-41.69-59.92c-1.95-2.81-5.88-3.36-8.54-1.2l-89.68,72.99c-2.38,1.94-5.85,1.72-7.97-.5l-86.56-90.85c-1.47-1.54-3.65-2.17-5.71-1.64l-128.47,32.83Z"/>
  <path class="cls-2" d="m526.16,74.22s-248.54-23.22-329.53,459.85l83.21,96.95c2.02,2.36,5.53,2.75,8.03.9l131.56-97.72c2.96-2.2,7.19-1.19,8.84,2.11l65.7,131.97c1.78,3.59,6.55,4.4,9.43,1.6l92.38-89.72c3-2.91,7.99-1.89,9.59,1.96l34.95,83.85c1.76,4.22,7.45,4.93,10.2,1.27l115.13-153.27c2.12-2.83,6.24-3.17,8.81-.74l93.21,88.15S811.02,77.28,526.16,74.22Z"/>
  <path class="cls-3" d="m351.86,346.17c-34.44,95.02-5.26,165.86,44.53,195.84,0,0,20.5-16.71,29.83-14.04,8.01,2.3,20.94,29.64,20.94,29.64,53.87,2.88,114.52-32.73,148.66-118.92,76.77-211.8-161-301.95-243.96-92.52Z"/>
  <path class="cls-3" d="m708.55,179.7c-1,58.4-88.57,59.52-89.56,1.13.53-31.02,25.29-45.56,48.54-43.62,0,0,4.28-.1,21.42,19.61,18.42,21.19,19.6,22.88,19.6,22.88Z"/>
  <path class="cls-3" d="m419.84,194.62c-.69,40.27-60.59,40.27-61.28,0,.69-40.27,60.59-40.27,61.28,0Z"/>
  <path class="cls-3" d="m311.07,511.73c-.89,52.36-78.77,52.35-79.66,0,.89-52.35,78.77-52.35,79.66,0Z"/>
</svg>