<?xml version="1.0" encoding="UTF-8"?>
<svg xmlns="http://www.w3.org/2000/svg"
  xmlns:xlink="http://www.w3.org/1999/xlink" viewBox="0 0 1052.32 1053.55">
  <defs>
    <style>
      .cls-1, .cls-2 {
        fill: #ece9da;
      }

      .cls-3 {
        stroke-linecap: round;
        stroke-linejoin: round;
        stroke-width: 19px;
      }

      .cls-3, .cls-4, .cls-5 {
        fill: none;
      }

      .cls-3, .cls-2 {
        stroke: #d6d1bc;
      }

      .cls-2 {
        stroke-miterlimit: 10;
        stroke-width: 15px;
      }

      .cls-5 {
        clip-path: url(#clippath);
      }

      .cls-6 {
        fill: #c7e5b3;
      }

      .cls-7 {
        fill: #d6d1bc;
      }
    </style>
    <clipPath id="clippath">
      <path class="cls-4" d="m855.1,522.19c127.98,582.57-785.27,605.82-657.97,0,121.44-600,533.83-601.82,657.97,0Z"/>
    </clipPath>
  </defs>
  <g id="huevo_3" data-name="huevo 3">
    <path class="cls-2" d="m526.16,61.28s-248.54-23.22-329.53,459.85l83.21,96.95c2.02,2.36,5.53,2.75,8.03.9l131.56-97.72c2.96-2.2,7.19-1.19,8.84,2.11l65.7,131.97c1.78,3.59,6.55,4.4,9.43,1.6l92.38-89.72c3-2.91,7.99-1.89,9.59,1.96l34.95,83.85c1.76,4.22,7.45,4.93,10.2,1.27l115.13-153.27c2.12-2.83,6.24-3.17,8.81-.74l93.21,88.15S811.02,64.34,526.16,61.28Z"/>
    <path class="cls-6" d="m351.86,333.23c-34.44,95.02-5.26,165.86,44.53,195.84,0,0,20.5-16.71,29.83-14.04,8.01,2.3,20.94,29.64,20.94,29.64,53.87,2.88,114.52-32.73,148.66-118.92,76.77-211.8-161-301.95-243.96-92.52Z"/>
    <path class="cls-6" d="m708.55,166.76c-1,58.4-88.57,59.52-89.56,1.13.53-31.02,25.29-45.56,48.54-43.62,0,0,4.28-.1,21.42,19.61,18.42,21.19,19.6,22.88,19.6,22.88Z"/>
    <path class="cls-6" d="m419.84,181.68c-.69,40.27-60.59,40.27-61.28,0,.69-40.27,60.59-40.27,61.28,0Z"/>
    <path class="cls-6" d="m311.07,498.79c-.89,52.36-78.77,52.35-79.66,0,.89-52.35,78.77-52.35,79.66,0Z"/>
  </g>
  <g id="huevo4">
    <g>
      <path class="cls-7" d="m406.36,148.5c.13.02.26.05.39.07.53.09,1.06.17,1.6.24.07,0,.13.02.2.02.16.02.31.03.47.04-3.44-.6-3.53-.55-2.66-.38Z"/>
      <path class="cls-7" d="m214.4,537.26c8.21,7.99,17.67,14.42,26.26,21.97,8.46,7.43,14.27,16.41,20.26,25.86,6.95,10.94,13.93,21.78,22.33,31.68,4.55,5.36,13.71,4.68,18.38,0,2.65-2.65,3.78-5.9,3.69-9.16-.03-.94.41-1.85,1.23-2.31,1.03-.58,1.96-1.35,2.74-2.31,6.25-7.75,12.96-15.11,20.01-22.13.17-.17.37-.32.58-.43,10.37-5.66,20.27-12.02,30.32-18.25,16.16-10.01,32.08-20.24,45.07-33.88.15-.16.33-.3.52-.42,4.35-2.56,8.52-5.4,12.91-7.92,3.28-1.88,6.68-3.76,10.04-5.77,1.32-.79,3.04-.28,3.67,1.12,10.03,22.12,18.38,44.99,29.7,66.52,6.38,12.13,9.81,25.26,15.02,37.88,5.15,12.49,13.84,23.82,16.22,37.28,1.11,6.28,8.42,10.19,14.26,9.31,6.91-1.04,10.42-6.15,11.27-12.77.31-2.45.78-4.85,1.36-7.21.12-.47.37-.9.72-1.23.08-.08.16-.15.24-.23,13.53-13.72,24.74-30.1,33.3-47.5.09-.18.2-.35.33-.51,8.72-10.32,17.29-20.55,27.79-29.29,4.02-3.35,8-6.73,11.94-10.16,1.24-1.08,3.17-.74,3.93.72,7.57,14.42,17.94,27.26,26.76,41.07,4.38,6.85,8.21,14.13,11.82,21.42.47.96.94,1.92,1.39,2.88.07.16.6,1.34.87,1.94.02.04.04.08.05.13.24.61.7,1.78.76,1.94.32.88.63,1.78.9,2.68l.08,1.2c-.44,2.96-.54,5.94-.18,8.9.71,5.78,3.55,10.89,9.54,12.54,5.25,1.44,12.19-.86,14.68-5.97,2.26-4.64,3-9.5,2.73-14.41-.02-.31.02-.63.11-.92.26-.82.54-1.63.85-2.44.03-.07.05-.13.08-.2.24-.53.49-1.07.75-1.59.6-1.21,1.21-2.41,1.86-3.6,1.56-2.86,3.25-5.65,5.02-8.38,5.87-9.06,12.49-17.63,18.8-26.38,8.59-11.93,18.81-22.86,28.28-34.1,9.92-11.77,19.95-23.44,30.27-34.87,8.29-9.18,16.77-18.2,25.52-26.95.83-.83,2.14-1,3.14-.38.63.39,1.26.78,1.9,1.19,11.42,7.34,21,16.94,32.11,25.22,2.15,1.61,4.35,3.16,6.56,4.68.51.35.87.88,1.02,1.49,2.6,9.9,11.35,18.73,18.8,24.71,8.72,7,16.3,15.71,26.32,22.86,2.82,2.01,5.27,3.15,5.68,6.6,65.43,549.03-816.89,550.16-689.28-57.15,0-.04.02-.08.02-.11.97-4.81,6.92-6.58,10.38-3.11l18.25,18.31"/>
      <g class="cls-5">
        <path class="cls-1" d="m406.36,148.5c.13.02.26.05.39.07.53.09,1.06.17,1.6.24.07,0,.13.02.2.02.16.02.31.03.47.04-3.44-.6-3.53-.55-2.66-.38Z"/>
        <path class="cls-1" d="m862.59,563.63c-6.77-4.21-13.34-8.74-19.58-13.75-7.69-6.17-16.76-15.37-19.03-25.65-2.48-1.7-4.94-3.43-7.36-5.23-11.11-8.28-20.69-17.88-32.11-25.22-1.22-.78-2.42-1.52-3.61-2.23-9.25,9.19-18.2,18.68-26.94,28.37-10.31,11.42-20.35,23.1-30.27,34.87-9.47,11.24-19.69,22.16-28.28,34.1-6.3,8.75-12.93,17.33-18.8,26.38-1.77,2.73-3.47,5.52-5.02,8.38-.65,1.19-1.26,2.39-1.86,3.6-.28.56-.54,1.12-.8,1.69-.38.99-.72,1.99-1.03,2.99.35,5.08-.37,10.09-2.7,14.89-2.49,5.12-9.43,7.42-14.68,5.97-5.99-1.65-8.84-6.75-9.54-12.54-.38-3.15-.25-6.33.27-9.48-.03-.12-.06-.24-.1-.36-.3-.99-.63-1.96-.98-2.93-.06-.17-.56-1.42-.78-2-.26-.58-.82-1.84-.9-2-.45-.97-.92-1.93-1.39-2.88-3.61-7.28-7.44-14.57-11.82-21.42-9.4-14.72-20.57-28.34-28.22-43.95-4.74,4.16-9.55,8.27-14.41,12.32-10.58,8.81-19.2,19.13-27.99,29.53-8.58,17.5-19.84,33.98-33.44,47.77-.25.25-.5.48-.76.71-.68,2.6-1.21,5.26-1.56,7.97-.85,6.62-4.36,11.73-11.27,12.77-5.84.88-13.15-3.03-14.26-9.31-2.38-13.46-11.06-24.79-16.22-37.28-5.21-12.62-8.64-25.75-15.02-37.88-11.77-22.38-20.33-46.22-30.9-69.15-4.14,2.59-8.42,4.94-12.51,7.28-4.49,2.57-8.75,5.48-13.2,8.09-13.03,13.76-29.04,24.06-45.3,34.13-10.16,6.29-18.64,14.3-29.13,20.01-7.15,7.09-15.45,12.95-21.78,20.8-1.11,1.38-2.54,2.35-4.13,2.97.59,3.8-.43,7.72-3.53,10.82-4.68,4.68-13.84,5.36-18.38,0-8.4-9.9-15.39-20.74-22.33-31.68-6-9.45-11.81-18.42-20.26-25.86-8.59-7.55-18.05-13.98-26.26-21.97-5.75-5.59-11.21-11.47-16.83-17.18-.14.7-.29,1.39-.43,2.09-124.21,591.12,742.19,583.33,665.46,41.45Z"/>
        <path class="cls-6" d="m462.12,581.84c-11.77-22.38-20.33-46.22-30.9-69.15-4.14,2.59-8.42,4.94-12.51,7.28-4.49,2.57-8.75,5.48-13.2,8.09-12.14,12.82-26.86,22.64-41.97,32.06,27.01,23.79,63.56,33.26,100.12,24.8-.5-1.03-1-2.05-1.54-3.07Z"/>
        <path class="cls-6" d="m240.66,559.23c-8.26-7.25-17.31-13.5-25.29-21.06-.12,1.28-.21,2.58-.24,3.93.47,27.72,22.53,40.76,43.32,39.12-5.17-8.02-10.5-15.58-17.79-21.98Z"/>
        <path class="cls-6" d="m634.87,763.46c-1.05,61.42-92.41,61.41-93.45,0,1.05-61.42,92.41-61.41,93.45,0Z"/>
        <path class="cls-6" d="m951.98,702.95c-2.48,144.99-218.14,144.96-220.6,0,2.48-144.98,218.14-144.96,220.6,0Z"/>
        <path class="cls-6" d="m389.62,850.21c-2.41,141.21-212.46,141.19-214.85,0,2.41-141.21,212.46-141.18,214.85,0Z"/>
      </g>
      <path class="cls-3" d="m197.14,522.19l86.79,101.39c2.13,2.49,5.85,2.84,8.42.8l133.22-106.29c3.12-2.49,7.76-1.35,9.37,2.31l63.07,143.59c2.58,5.87,10.51,6.81,14.38,1.7l79.55-104.75c2.85-3.75,8.69-2.98,10.47,1.37l38.81,94.51c1.81,4.4,7.73,5.12,10.54,1.28l118.21-161.37c2.16-2.94,6.4-3.34,9.06-.85l85.37,81.86"/>
    </g>
  </g>
</svg>