<?xml version="1.0" encoding="UTF-8"?>
<svg id="huevo4" xmlns="http://www.w3.org/2000/svg" xmlns:xlink="http://www.w3.org/1999/xlink" viewBox="0 0 1052.32 1066.49">
  <defs>
    <style>
      .cls-1 {
        fill: #ece9da;
      }

      .cls-2 {
        stroke-linecap: round;
        stroke-linejoin: round;
        stroke-width: 19px;
      }

      .cls-2, .cls-3 {
        stroke: #d6d1bc;
      }

      .cls-2, .cls-4, .cls-5 {
        fill: none;
      }

      .cls-3 {
        fill: #dbd7c6;
        stroke-miterlimit: 10;
        stroke-width: 15px;
      }

      .cls-5 {
        clip-path: url(#clippath);
      }

      .cls-6 {
        fill: #c7e5b3;
      }

      .cls-7 {
        fill: #d6d1bc;
      }
    </style>
    <clipPath id="clippath">
      <path class="cls-4" d="m855.1,535.12c127.98,582.57-785.27,605.82-657.97,0,121.44-600,533.83-601.82,657.97,0Z"/>
    </clipPath>
  </defs>
  <path class="cls-3" d="m867.86,591.75l-85.29-141.02c-3.13-5.18-10.51-5.52-14.12-.66l-95.88,129.32c-3.75,5.06-11.52,4.43-14.4-1.18l-44.64-86.77c-2.83-5.5-10.39-6.24-14.23-1.39l-77.63,97.88c-3.83,4.82-11.35,4.11-14.2-1.34l-56.88-108.59c-2.37-4.52-8.15-5.95-12.36-3.07l-145.46,99.93c-3.55,2.44-8.36,1.84-11.21-1.39l-71.81-81.6c-4.94-5.61-14.19-2.59-14.86,4.85l-6.15,68.04c0,.05,0,.1.02.15l54.83,132.19c.04.09.12.16.22.18l276.56,62.61s.06,0,.1,0l204.09-18.37c.07,0,.14-.04.2-.09l143.06-149.31c.1-.1.11-.26.04-.38Z"/>
  <g>
    <path class="cls-7" d="m406.36,161.44c.13.02.26.05.39.07.53.09,1.06.17,1.6.24.07,0,.13.02.2.02.16.02.31.03.47.04-3.44-.6-3.53-.55-2.66-.38Z"/>
    <path class="cls-7" d="m877.35,596.61c-.34-2.78-1.91-5.24-4.22-6.83-10.22-7.06-21.2-19.8-30.12-26.96-7.69-6.17-16.76-15.37-19.03-25.65-2.48-1.7-4.94-3.43-7.36-5.23-11.11-8.28-20.69-17.88-32.11-25.22-1.22-.78-2.42-1.52-3.61-2.23-9.25,9.19-18.2,18.68-26.94,28.37-10.31,11.42-20.35,23.1-30.27,34.87-9.47,11.24-19.69,22.16-28.28,34.1-6.3,8.75-12.93,17.33-18.8,26.38-1.77,2.73-3.47,5.52-5.02,8.38-.65,1.19-1.26,2.39-1.86,3.6-.28.56-.54,1.12-.8,1.69-.38.99-.72,1.99-1.03,2.99.35,5.08-.37,10.09-2.7,14.89-2.49,5.12-9.43,7.42-14.68,5.97-5.99-1.65-8.84-6.75-9.54-12.54-.38-3.15-.25-6.33.27-9.48v-.05c-.32-1.09-.69-2.17-1.08-3.24-.06-.17-.56-1.42-.78-2-.26-.58-.82-1.84-.9-2-.45-.97-.92-1.93-1.39-2.88-3.61-7.28-7.44-14.57-11.82-21.42-9.4-14.72-20.57-28.34-28.22-43.95-4.74,4.16-9.55,8.27-14.41,12.32-10.58,8.81-19.2,19.13-27.99,29.53-8.58,17.5-19.84,33.98-33.44,47.77-.25.25-.5.48-.76.71-.68,2.6-1.21,5.26-1.56,7.97-.85,6.62-4.36,11.73-11.27,12.77-5.84.88-13.15-3.03-14.26-9.31-2.38-13.46-11.06-24.79-16.22-37.28-5.21-12.62-8.64-25.75-15.02-37.88-11.77-22.38-20.33-46.22-30.9-69.15-4.14,2.59-8.42,4.94-12.51,7.28-4.49,2.57-8.75,5.48-13.2,8.09-13.03,13.76-29.04,24.06-45.3,34.13-10.16,6.29-20.15,12.72-30.64,18.42-7.15,7.09-13.94,14.54-20.27,22.39-1.11,1.38-2.54,2.35-4.13,2.97.59,3.8-.43,7.72-3.53,10.82-4.68,4.68-13.84,5.36-18.38,0-8.4-9.9-15.39-20.74-22.33-31.68-6-9.45-11.81-18.42-20.26-25.86-8.59-7.55-18.05-13.98-26.26-21.97-8.84-8.6-16.99-17.88-26.12-26.2-.07-.06-.13-.13-.19-.19-.79,3.75-1.58,7.51-2.35,11.3-127.71,607.77,758.52,611.77,691.62,61.5Z"/>
    <g class="cls-5">
      <path class="cls-1" d="m406.36,161.44c.13.02.26.05.39.07.53.09,1.06.17,1.6.24.07,0,.13.02.2.02.16.02.31.03.47.04-3.44-.6-3.53-.55-2.66-.38Z"/>
      <path class="cls-1" d="m862.59,576.56c-6.77-4.21-13.34-8.74-19.58-13.75-7.69-6.17-16.76-15.37-19.03-25.65-2.48-1.7-4.94-3.43-7.36-5.23-11.11-8.28-20.69-17.88-32.11-25.22-1.22-.78-2.42-1.52-3.61-2.23-9.25,9.19-18.2,18.68-26.94,28.37-10.31,11.42-20.35,23.1-30.27,34.87-9.47,11.24-19.69,22.16-28.28,34.1-6.3,8.75-12.93,17.33-18.8,26.38-1.77,2.73-3.47,5.52-5.02,8.38-.65,1.19-1.26,2.39-1.86,3.6-.28.56-.54,1.12-.8,1.69-.38.99-.72,1.99-1.03,2.99.35,5.08-.37,10.09-2.7,14.89-2.49,5.12-9.43,7.42-14.68,5.97-5.99-1.65-8.84-6.75-9.54-12.54-.38-3.15-.25-6.33.27-9.48-.03-.12-.06-.24-.1-.36-.3-.99-.63-1.96-.98-2.93-.06-.17-.56-1.42-.78-2-.26-.58-.82-1.84-.9-2-.45-.97-.92-1.93-1.39-2.88-3.61-7.28-7.44-14.57-11.82-21.42-9.4-14.72-20.57-28.34-28.22-43.95-4.74,4.16-9.55,8.27-14.41,12.32-10.58,8.81-19.2,19.13-27.99,29.53-8.58,17.5-19.84,33.98-33.44,47.77-.25.25-.5.48-.76.71-.68,2.6-1.21,5.26-1.56,7.97-.85,6.62-4.36,11.73-11.27,12.77-5.84.88-13.15-3.03-14.26-9.31-2.38-13.46-11.06-24.79-16.22-37.28-5.21-12.62-8.64-25.75-15.02-37.88-11.77-22.38-20.33-46.22-30.9-69.15-4.14,2.59-8.42,4.94-12.51,7.28-4.49,2.57-8.75,5.48-13.2,8.09-13.03,13.76-29.04,24.06-45.3,34.13-10.16,6.29-20.15,12.72-30.64,18.42-7.15,7.09-13.94,14.54-20.27,22.39-1.11,1.38-2.54,2.35-4.13,2.97.59,3.8-.43,7.72-3.53,10.82-4.68,4.68-13.84,5.36-18.38,0-8.4-9.9-15.39-20.74-22.33-31.68-6-9.45-11.81-18.42-20.26-25.86-8.59-7.55-18.05-13.98-26.26-21.97-5.75-5.59-11.21-11.47-16.83-17.18-.14.7-.29,1.39-.43,2.09-124.21,591.12,742.19,583.33,665.46,41.45Z"/>
      <path class="cls-6" d="m462.12,594.77c-11.77-22.38-20.33-46.22-30.9-69.15-4.14,2.59-8.42,4.94-12.51,7.28-4.49,2.57-8.75,5.48-13.2,8.09-12.14,12.82-26.86,22.64-41.97,32.06,27.01,23.79,63.56,33.26,100.12,24.8-.5-1.03-1-2.05-1.54-3.07Z"/>
      <path class="cls-6" d="m240.66,572.17c-8.26-7.25-17.31-13.5-25.29-21.06-.12,1.28-.21,2.58-.24,3.93.47,27.72,22.53,40.76,43.32,39.12-5.17-8.02-10.5-15.58-17.79-21.98Z"/>
      <path class="cls-6" d="m634.87,776.4c-1.05,61.42-92.41,61.41-93.45,0,1.05-61.42,92.41-61.41,93.45,0Z"/>
      <path class="cls-6" d="m951.98,715.89c-2.48,144.99-218.14,144.96-220.6,0,2.48-144.98,218.14-144.96,220.6,0Z"/>
      <path class="cls-6" d="m389.62,863.14c-2.41,141.21-212.46,141.19-214.85,0,2.41-141.21,212.46-141.18,214.85,0Z"/>
    </g>
    <path class="cls-2" d="m197.14,535.12l86.79,101.39c2.13,2.49,5.85,2.84,8.42.8l133.22-106.29c3.12-2.49,7.76-1.35,9.37,2.31l63.07,143.59c2.58,5.87,10.51,6.81,14.38,1.7l79.55-104.75c2.85-3.75,8.69-2.98,10.47,1.37l38.81,94.51c1.81,4.4,7.73,5.12,10.54,1.28l118.21-161.37c2.16-2.94,6.4-3.34,9.06-.85l85.37,81.86"/>
  </g>
</svg>