<?xml version="1.0" encoding="UTF-8"?>
<svg id="dino6" xmlns="http://www.w3.org/2000/svg" viewBox="0 0 1052.32 1066.49">
  <defs>
    <style>
      .cls-1, .cls-2, .cls-3, .cls-4, .cls-5, .cls-6, .cls-7, .cls-8, .cls-9, .cls-10 {
        stroke: #c3c991;
      }

      .cls-1, .cls-2, .cls-3, .cls-4, .cls-5, .cls-6, .cls-8, .cls-9, .cls-10 {
        stroke-linecap: round;
        stroke-linejoin: round;
      }

      .cls-1, .cls-2, .cls-4, .cls-9, .cls-11 {
        fill: #d7e5c1;
      }

      .cls-1, .cls-10 {
        stroke-width: 4.71px;
      }

      .cls-2 {
        stroke-width: 5.46px;
      }

      .cls-3 {
        fill: #dce5a5;
        stroke-width: 14px;
      }

      .cls-4, .cls-8 {
        stroke-width: 5px;
      }

      .cls-5 {
        fill: none;
        stroke-width: 7px;
      }

      .cls-6 {
        fill: #d3d89e;
        stroke-width: 15.95px;
      }

      .cls-12, .cls-7 {
        fill: #dded92;
      }

      .cls-7 {
        stroke-miterlimit: 10;
        stroke-width: 4px;
      }

      .cls-8, .cls-10 {
        fill: #d5e0c3;
      }

      .cls-9 {
        stroke-width: 5.15px;
      }

      .cls-13 {
        fill: #c3c991;
      }
    </style>
  </defs>
  <path class="cls-6" d="m759.38,845.84l5.11,92.78s-24.51,26.51-57.19,6.63l-8.17-87.48,55.15-11.93h5.11Z"/>
  <path class="cls-6" d="m537.76,852.99l5.11,92.78s-24.51,26.51-57.19,6.63l-8.17-87.48,55.15-11.93h5.11Z"/>
  <g>
    <path class="cls-8" d="m758.02,943.2l3.06-17.95s-9.53-9.19-21.11-1.36l-4.77,26.46,22.81-7.15Z"/>
    <path class="cls-8" d="m702.19,945.5l-3.06-17.95s9.53-9.19,21.11-1.36l4.77,26.46-22.81-7.15Z"/>
    <path class="cls-10" d="m739.64,950.35v-25.1s-8.47-9.19-18.75-1.36l-4.23,26.46h22.98Z"/>
  </g>
  <g>
    <path class="cls-8" d="m536.13,946.37l3.06-17.95s-9.53-9.19-21.11-1.36l-4.77,26.46,22.81-7.15Z"/>
    <path class="cls-8" d="m480.3,948.67l-3.06-17.95s9.53-9.19,21.11-1.36l4.77,26.46-22.81-7.15Z"/>
    <path class="cls-10" d="m517.75,953.52v-25.1s-8.47-9.19-18.75-1.36l-4.23,26.46h22.98Z"/>
  </g>
  <path class="cls-3" d="m437.88,867.69c-12.38,22.05-25.74,51-18.59,62.92,12.26,20.42,51.07,27.57,70.47,23.49,13.2-2.78,10.33-40.05,7.14-63.61,60.94,20.56,111.45,24.05,153.2,16.85v47.78c36.77,15.32,61.46,5.15,65.36,0,5.62-7.41,12.26-75.58,12.26-75.58h-3.52c32.58-20.1,56.47-47.36,73.7-73.98,23.91-36.95,38.77-79.04,44.09-122.72,55.09-452.47-132.91-409.94-132.91-409.94v.33c-39.07,3.72-69.7,38.85-69.7,81.63s33.65,81.27,75.4,81.94l9.62,276.53c-163.15-175.91-280.6,6.89-280.6,6.89-93.96-30.64-200.17-179.38-200.17-179.38,14.59,257.41,162.64,317.01,194.25,326.85Z"/>
  <g>
    <path class="cls-4" d="m713.76,952.64l3.06-17.95s-9.53-9.19-21.11-1.36l-4.77,26.46,22.81-7.15Z"/>
    <path class="cls-4" d="m657.93,954.94l-3.06-17.95s9.53-9.19,21.11-1.36l4.77,26.46-22.81-7.15Z"/>
    <path class="cls-1" d="m695.38,959.79v-25.1s-8.47-9.19-18.75-1.36l-4.23,26.46h22.98Z"/>
  </g>
  <g>
    <path class="cls-2" d="m486.68,948.49l9.66-16.32s-7.75-11.54-23.68-7.37l-14.53,23.98,28.55-.3Z"/>
    <path class="cls-2" d="m422.02,934.65l2.65-18.08s14.06-6.07,24.61,4.76l-3.63,26.72-23.64-13.4Z"/>
    <path class="cls-9" d="m463.2,950.06l8.61-24.04s-6.53-11.24-20.98-6.69l-13.92,24.13,26.29,6.6Z"/>
  </g>
  <ellipse class="cls-12" cx="641.42" cy="715.88" rx="21.45" ry="20.17"/>
  <ellipse class="cls-12" cx="571.21" cy="688.44" rx="26.3" ry="16.98"/>
  <circle class="cls-7" cx="502.74" cy="718.88" r="9.9"/>
  <path class="cls-5" d="m641.42,695.71s21.48.37,21.21,23.17-28.87,17.18-28.87,17.18"/>
  <path class="cls-5" d="m597.51,688.44s.13,21.08-28.79,16.9-23.81-16.9-23.81-16.9"/>
  <circle class="cls-13" cx="701.85" cy="341.33" r="13.62"/>
  <circle class="cls-11" cx="696.75" cy="338.37" r="4.48"/>
  <circle class="cls-11" cx="701.23" cy="341.85" r="2.24"/>
</svg>