<?xml version="1.0" encoding="UTF-8"?>
<svg id="dino1" xmlns="http://www.w3.org/2000/svg" viewBox="0 0 1052.32 1053.55">
  <defs>
    <style>
      .cls-1 {
        fill: #c7b163;
      }

      .cls-1, .cls-2, .cls-3, .cls-4, .cls-5, .cls-6, .cls-7, .cls-8, .cls-9, .cls-10, .cls-11, .cls-12, .cls-13 {
        stroke-miterlimit: 10;
      }

      .cls-1, .cls-2, .cls-4, .cls-7 {
        stroke-width: 11.77px;
      }

      .cls-1, .cls-14, .cls-15, .cls-4, .cls-7, .cls-16, .cls-17 {
        stroke: #5e5935;
      }

      .cls-2, .cls-5, .cls-9, .cls-13 {
        fill: #b4ed9e;
        stroke: #9fed85;
      }

      .cls-14 {
        stroke-width: 3.92px;
      }

      .cls-14, .cls-15, .cls-16, .cls-17 {
        stroke-linecap: round;
        stroke-linejoin: round;
      }

      .cls-14, .cls-17 {
        fill: #ccc5b2;
      }

      .cls-3 {
        stroke-width: 5.48px;
      }

      .cls-3, .cls-6, .cls-10, .cls-12 {
        fill: #9fed85;
        stroke: #b4ed9e;
      }

      .cls-15 {
        stroke-width: 7.24px;
      }

      .cls-15, .cls-16 {
        fill: #ede7d6;
      }

      .cls-4 {
        fill: #edd388;
      }

      .cls-5 {
        stroke-width: 8.84px;
      }

      .cls-6 {
        stroke-width: 3.98px;
      }

      .cls-7, .cls-8, .cls-11 {
        fill: #5e5935;
      }

      .cls-8 {
        stroke-width: 3.77px;
      }

      .cls-8, .cls-11 {
        stroke: #ede7d6;
      }

      .cls-9 {
        stroke-width: 6.42px;
      }

      .cls-10 {
        stroke-width: 7.3px;
      }

      .cls-16 {
        stroke-width: 7.63px;
      }

      .cls-11 {
        stroke-width: 5.9px;
      }

      .cls-17 {
        stroke-width: 5.14px;
      }

      .cls-12 {
        stroke-width: 6.75px;
      }

      .cls-13 {
        stroke-width: 10.89px;
      }
    </style>
  </defs>
  <g>
    <path class="cls-1" d="m437.7,810.85l9.47,41.67c1.93,8.47,8.62,15.03,17.14,16.78,16.31,3.35,45.29,7.38,78.98,3.5,7.44-.86,13.96-5.4,17.31-12.1l21.27-42.54c7.26-14.52-3.07-31.66-19.3-32.03l-102.78-2.33c-14.41-.33-25.28,12.98-22.09,27.04Z"/>
    <path class="cls-1" d="m674.9,842.11c-13.69,2.41-32.38,4.37-50.86,2.07-7.82-.97-14.57-5.97-17.7-13.2l-10.81-25.01c-5.58-12.91,2.14-27.68,15.92-30.47l50.3-10.21c12.44-2.53,24.46,5.91,26.3,18.47l4.9,33.34c1.74,11.85-6.25,22.95-18.05,25.02Z"/>
  </g>
  <g>
    <path class="cls-14" d="m612.01,825.21s8.61-11.09,17.81-1.15l1.89,15.9s-17.22,1.99-19.7-14.75Z"/>
    <path class="cls-14" d="m684.9,821.86s-10.38-9-18.75.42v19.56s11.91,1.46,18.75-19.98Z"/>
    <path class="cls-14" d="m629.82,824.06s9.08-7.22,19.58-.21l-2.83,17.87-13.45-1.24-3.3-16.42Z"/>
    <path class="cls-14" d="m650.34,823.85s3.87-7.43,14.04-.84l1.77,18.83-19.58-.12,3.77-17.87Z"/>
  </g>
  <g>
    <path class="cls-17" d="m450.7,848.97s13.14-12.52,27.17-1.3l2.88,17.96s-26.27,2.24-30.05-16.66Z"/>
    <path class="cls-17" d="m561.91,845.19s-15.84-10.16-28.61.47v22.09s18.18,1.65,28.61-22.56Z"/>
    <path class="cls-17" d="m477.87,847.67s13.86-8.15,29.87-.24l-4.32,20.18-20.52-1.4-5.04-18.55Z"/>
    <path class="cls-17" d="m509.18,847.43s5.9-8.39,21.42-.95l2.7,21.26-29.87-.14,5.76-20.18Z"/>
  </g>
  <g>
    <g>
      <path class="cls-2" d="m289.38,575.77s-56.36-43.58,15.78-149.54l15.78-27.8,18.79,16.53s63.87,43.58,69.88,107.46-120.23,53.35-120.23,53.35Z"/>
      <path class="cls-10" d="m313.99,554.16s-37.5-23.35.35-93.24l7.99-18.14,12.63,9.02s42.14,22.88,49.86,61.91-70.82,40.46-70.82,40.46Z"/>
    </g>
    <g>
      <path class="cls-2" d="m440.43,522.42s-56.36-43.58,15.78-149.54l15.78-27.8,18.79,16.53s63.87,43.58,69.88,107.46c6.01,63.87-120.23,53.35-120.23,53.35Z"/>
      <path class="cls-10" d="m465.03,500.81s-37.5-23.35.35-93.24l7.99-18.14,12.63,9.02s42.14,22.88,49.86,61.91-70.82,40.46-70.82,40.46Z"/>
    </g>
    <g>
      <path class="cls-13" d="m589.47,486.31s-33.8-56.58,64.13-123.43l22.99-18.61,10.59,20.58s40.27,59.12,23.85,116.15c-16.41,57.03-121.56,5.3-121.56,5.3Z"/>
      <path class="cls-12" d="m617.95,476.02s-24.4-32.78,31.82-80.17l13.01-12.92,7.82,12.03s28.55,33.94,22.01,70.16c-6.55,36.21-74.66,10.9-74.66,10.9Z"/>
    </g>
    <g>
      <path class="cls-13" d="m711.06,522.28s-4.99-65.71,112.49-81.82l28.87-6.39.29,23.15s9.64,70.88-30.5,114.58c-40.15,43.71-111.14-49.52-111.14-49.52Z"/>
      <path class="cls-12" d="m741.15,525.78s-7.2-40.23,64.26-57.54l17.41-5.75,1.63,14.26s10.4,43.12-11.63,72.6c-22.02,29.48-71.67-23.57-71.67-23.57Z"/>
    </g>
    <g>
      <path class="cls-5" d="m809.04,617.02s13.31-51.83,107.84-33.57l23.87,2.62-5.82,17.87s-11.08,57.02-53.35,80.15-72.55-67.07-72.55-67.07Z"/>
      <path class="cls-3" d="m831.26,627.56s4.96-32.81,64.42-27.48l14.89.12-2.47,11.39s-3.25,35.87-27.88,52.8c-24.63,16.93-48.96-36.82-48.96-36.82Z"/>
    </g>
    <g>
      <path class="cls-9" d="m919.68,716.34s-15.29-35.75,47.25-67.09l14.91-9.06,4.56,12.87s18.87,37.74,4.77,69.79c-14.1,32.04-71.48-6.51-71.48-6.51Z"/>
      <path class="cls-6" d="m937.14,712.58s-11.67-21.09,24.94-44.35l8.63-6.53,3.62,7.65s14.01,22.1,7.32,42.75c-6.69,20.65-44.51.47-44.51.47Z"/>
    </g>
  </g>
  <path class="cls-4" d="m1033.32,741.84c-31.56-3.76-110.46,24.05-110.46,24.05-78.94,42.11-99.15,31.23-102.95,27.86v30.59c0,18.86-14.01,34.69-32.69,37.2-28.16,3.79-52.98,1.67-70.18-1.2-14.83-2.47-26.75-13.53-30.31-28.14l-12.8-52.65c-1.68.91-3.37,1.86-5.05,2.86-81.15,48.1-204.39,13.53-204.39,13.53,0,0-3.64.02-10.07-.11l-26.78,70.77c-5.21,13.76-18,23.17-32.69,24.15-39.4,2.64-69.51-1.36-88.83-5.59-14.9-3.27-26.34-15.24-28.93-30.28l-7.09-41.2c-19.43,10.59-42.15,18.66-66.96,23.09-83.62,14.94-153.46-7.34-163.21-61.88-9.74-54.54,44.3-120.66,127.92-135.61,22.18-3.96,43.8-4.62,63.79-2.42,84.84-122.35,159.53-180.59,356.04-178.44,206.64,2.26,277.59,216.78,277.59,216.78,9.17,19.84,140.27,49.35,140.27,49.35,0,0,59.36,21.03,27.8,17.28Z"/>
  <g>
    <path class="cls-16" d="m278.36,859.13s17.8-20.34,36.82-2.11l3.9,29.17s-35.6,3.65-40.73-27.06Z"/>
    <path class="cls-16" d="m429.07,852.98s-21.46-16.5-38.77.77v35.88s24.63,2.69,38.77-36.65Z"/>
    <path class="cls-16" d="m315.19,857.01s18.78-13.24,40.48-.38l-5.85,32.79-27.8-2.28-6.83-30.13Z"/>
    <path class="cls-16" d="m357.62,856.63s8-13.63,29.02-1.54l3.66,34.54-40.48-.22,7.8-32.79Z"/>
  </g>
  <g>
    <path class="cls-15" d="m686.15,830.07s16.07-20.34,33.23-2.11l3.52,29.17s-32.13,3.65-36.75-27.06Z"/>
    <path class="cls-15" d="m822.16,823.93s-19.37-16.5-34.99.77v35.88s22.23,2.69,34.99-36.65Z"/>
    <path class="cls-15" d="m719.38,827.96s16.95-13.24,36.53-.38l-5.28,32.79-25.09-2.28-6.16-30.13Z"/>
    <path class="cls-15" d="m757.68,827.57s7.22-13.63,26.19-1.54l3.3,34.54-36.53-.22,7.04-32.79Z"/>
  </g>
  <circle class="cls-7" cx="156.75" cy="698.63" r="14.9"/>
  <circle class="cls-11" cx="151.12" cy="693.08" r="3.01"/>
  <circle class="cls-8" cx="156.04" cy="698.59" r="1.92"/>
</svg>