<?xml version="1.0" encoding="UTF-8"?>
<svg id="dino3" xmlns="http://www.w3.org/2000/svg" viewBox="0 0 1052.32 1066.49">
  <defs>
    <style>
      .cls-1 {
        stroke-width: 8.65px;
      }

      .cls-1, .cls-2, .cls-3, .cls-4, .cls-5, .cls-6, .cls-7, .cls-8, .cls-9, .cls-10, .cls-11, .cls-12, .cls-13, .cls-14 {
        stroke-linecap: round;
        stroke-linejoin: round;
      }

      .cls-1, .cls-2, .cls-3, .cls-4, .cls-5, .cls-6, .cls-7, .cls-10, .cls-11, .cls-12, .cls-14 {
        stroke: #6799bc;
      }

      .cls-1, .cls-2, .cls-5, .cls-7, .cls-12, .cls-14 {
        fill: #6799bc;
      }

      .cls-2 {
        stroke-width: 5.84px;
      }

      .cls-3 {
        stroke-width: 8.52px;
      }

      .cls-3, .cls-4, .cls-6, .cls-8, .cls-9, .cls-10, .cls-11 {
        fill: #e7dfb8;
      }

      .cls-4 {
        stroke-width: 11px;
      }

      .cls-5 {
        stroke-width: 9.42px;
      }

      .cls-6 {
        stroke-width: 15.42px;
      }

      .cls-7 {
        stroke-width: 9.43px;
      }

      .cls-8 {
        stroke-width: 3.51px;
      }

      .cls-8, .cls-9 {
        stroke: #e7dfb8;
      }

      .cls-9 {
        stroke-width: 5.54px;
      }

      .cls-10 {
        stroke-width: 6.94px;
      }

      .cls-11 {
        stroke-width: 6.27px;
      }

      .cls-12 {
        stroke-width: 15.45px;
      }

      .cls-13 {
        fill: #a1cae8;
        stroke: #6699bd;
        stroke-width: 15px;
      }

      .cls-14 {
        stroke-width: 8.24px;
      }
    </style>
  </defs>
  <path class="cls-4" d="m309.65,549.38s-59.94-76.99,43.91-154.26c6.48-4.82,15.58.56,14.43,8.55-7.25,50.53-19.77,173.36,36.87,135.33l-95.21,10.38Z"/>
  <path class="cls-13" d="m345.03,809.59s-55.15,71.49-36.77,158.3c0,0,49.02,27.57,136.85,0l-5.11-153.19-94.98-5.11Z"/>
  <path class="cls-13" d="m1022.62,829.76l-32.83-.47c-.21,0-.42.02-.63.07-4.06.94-49.81,8.89-154.94-78.71-97.01-80.84-156.88-81.1-169.91-79.99-1.47.13-2.74-.96-2.88-2.43-1.15-11.74-6.05-18.9-12.48-23.14-2.9.47-5.82.76-8.77.82-5.11.1-8.83-2.64-10.88-6.36-10.37-.4-19.82,2.01-22.23,2.68,7.69-2.19,14.54-4.54,20.67-6.99-.25-1.29-.33-2.61-.24-3.91-2.08-2.5-3.38-5.7-3.38-8.64,0-7.23,5.36-11.57,11.81-12.8.85-3.2,2.83-6.07,5.87-7.61,1.48-.75,2.91-1.51,4.31-2.29,1.36-4.78,5.16-8.57,10.15-9.48.13-.88.27-1.75.42-2.63-.23-9.02-1.33-17.94-3.22-26.11-1.12-4.8-2.35-9.61-3.47-14.44-.76.21-1.52.44-2.29.68-1.95,3.79-4.36,7.32-7.51,10.34-8.38,8.05-21.59,1.98-22.19-9.19-.91-16.75,1.77-36.25,10.63-51.31-7.3-3.94-14.23-8.64-21.26-13.11-27.95,4.62-60.49,28.54-74.37,39.64,15.49-14.75,29.79-41.25,33.27-63.39-1.99-1.12-3.98-2.24-5.97-3.37-6.37-3.62-12.71-7.29-18.99-11.06-4.09-2.46-8.09-5.15-12.22-7.59-7.41-1.85-14.93-3.32-22.52-4.5-20.95,14.32-34.7,38.74-39.82,48.98,11.94-25.87,13.9-42.3,10.56-52.15-15.89-1.06-31.83-1.17-47.46-.9-13.33,16.31-28.02,59.67-31.32,66.17-.26.52-.68.93-1.21,1.19-12.04,5.84-155.68,77.27-184.05,171.19-28.65,94.83,117.54,146.66,127.16,149.96.33.11.63.29.9.53l61.35,54.31c.36.32.62.73.77,1.18,42.13,130.86,177.53,77.95,206.08,79.98,28.14,2.01,185.87-21.7,190.86-22.45.09-.01.16-.03.25-.05,4.56-1.15,131.15-33.15,161.24-60.22,20.29-18.26,46.4-30.86,61.73-37.28,2.68-1.12,1.91-5.1-.99-5.14Z"/>
  <path class="cls-13" d="m403.24,490.95s21.45-86.81,63.32-76.6,0,69.45,0,69.45c0,0,39.83-86.81,84.77-60.26s-25.17,99.06-25.17,99.06c0,0,80.32-72.51,111.98-37.79s-46.98,98.04-46.98,98.04c0,0,65.36-75.57,85.79-31.66s-63.32,80.68-63.32,80.68c0,0,59.23-6.13,42.89,30.64s-54.13,50.04-80.68,36.77"/>
  <path class="cls-13" d="m536.85,853.05c-15.79,1.39-29.54,11.35-36.16,25.75-14.88,32.33-43.86,103.11-18.81,115.63,29.51,14.76,105.68,2.86,120.16.42,1.12-.19,2.24-.31,3.36-.44,4.76-.55,24.49-8.34-1.28-103.58-3.34-12.33-11.75-22.71-23.21-28.35-11.43-5.63-27.14-10.92-44.06-9.43Z"/>
  <path class="cls-13" d="m718.64,840.8c-15.79,1.39-29.54,11.35-36.16,25.75-14.88,32.33-43.86,103.11-18.81,115.63,29.51,14.76,105.68,2.86,120.16.42,1.12-.19,2.24-.31,3.36-.44,4.76-.55,24.49-8.34-1.28-103.58-3.34-12.33-11.75-22.71-23.21-28.35-11.43-5.63-27.14-10.92-44.06-9.43Z"/>
  <path class="cls-6" d="m468.77,580.58c4.45,5.34,4.93,12.87,1.12,18.65-8.65,13.12-28.04,32.27-64.68,23.66-46.04-10.81-57.61-115-11.82-186.9,8.14-12.79,28.07-7.83,29.15,7.26,2.78,38.81,12.81,97.22,46.23,137.32Z"/>
  <path class="cls-3" d="m237.7,643.78c5.78-1.29,13.29-5.34,21.12-16,1-1.36,1.27-3.05.76-4.61-3.16-9.58-16.91-42.97-51.88-30.5-4.55,1.62-5.33,7.02-1.42,9.63,10.8,7.21,27.65,20.96,23.83,34.55-1.16,4.14,2.92,7.97,7.6,6.92Z"/>
  <path class="cls-11" d="m306.9,966.33v-19.35s26.21-11.2,39.15,1.22v24.78l-39.15-6.66Z"/>
  <path class="cls-10" d="m346.05,970.94v-19.35s32.14-11.2,48,1.22v19.43l-48-1.31Z"/>
  <path class="cls-11" d="m397.46,970.94v-19.35s26.21-11.2,39.15,1.22v19.43l-39.15-1.31Z"/>
  <path class="cls-11" d="m480.37,988.8v-19.35s26.21-11.2,39.15,1.22v24.78l-39.15-6.66Z"/>
  <path class="cls-10" d="m519.52,993.41v-19.35s32.14-11.2,48,1.22v19.43l-48-1.31Z"/>
  <path class="cls-11" d="m570.92,993.41v-19.35s26.21-11.2,39.15,1.22v19.43l-39.15-1.31Z"/>
  <path class="cls-11" d="m661.51,978.09v-19.35s26.21-11.2,39.15,1.22v24.78l-39.15-6.66Z"/>
  <path class="cls-10" d="m700.66,982.7v-19.35s32.14-11.2,48,1.22v19.43l-48-1.31Z"/>
  <path class="cls-11" d="m752.07,982.7v-19.35s26.21-11.2,39.15,1.22v19.43l-39.15-1.31Z"/>
  <ellipse class="cls-7" cx="685.37" cy="697.21" rx="9.45" ry="7.11"/>
  <ellipse class="cls-1" cx="735.01" cy="715.69" rx="4.81" ry="11.74" transform="translate(-198.17 1141.87) rotate(-68.78)"/>
  <ellipse class="cls-5" cx="791.44" cy="757.34" rx="6.69" ry="10.02" transform="translate(-200.98 1221.06) rotate(-68.78)"/>
  <ellipse class="cls-5" cx="829.91" cy="819.64" rx="6.69" ry="10.02" transform="translate(-234.51 1296.67) rotate(-68.78)"/>
  <path class="cls-2" d="m937.97,834.51c0,2.63-2.43,4.76-5.42,4.76s-5.42-2.13-5.42-4.76,2.43-4.76,5.42-4.76,5.42,2.13,5.42,4.76Z"/>
  <ellipse class="cls-14" cx="588.29" cy="748.59" rx="5.81" ry="8.83"/>
  <ellipse class="cls-14" cx="450.93" cy="906.17" rx="5.81" ry="8.83"/>
  <ellipse class="cls-12" cx="376.76" cy="666.79" rx="12.18" ry="14.8"/>
  <circle class="cls-9" cx="372.97" cy="661.22" r="5.83"/>
  <circle class="cls-8" cx="379.98" cy="670.09" r="3.69"/>
  <ellipse class="cls-14" cx="674.35" cy="807.32" rx="8.83" ry="5.81" transform="translate(-359.19 611.6) rotate(-39.41)"/>
</svg>