<?xml version="1.0" encoding="UTF-8"?>
<svg id="dino4" xmlns="http://www.w3.org/2000/svg" viewBox="0 0 1052.32 1066.49">
  <defs>
    <style>
      .cls-1 {
        stroke-width: 8.65px;
      }

      .cls-1, .cls-2, .cls-3, .cls-4, .cls-5, .cls-6, .cls-7, .cls-8, .cls-9, .cls-10, .cls-11, .cls-12, .cls-13, .cls-14 {
        stroke-linecap: round;
        stroke-linejoin: round;
      }

      .cls-1, .cls-2, .cls-3, .cls-4, .cls-5, .cls-6, .cls-7, .cls-9, .cls-10, .cls-11, .cls-13, .cls-14 {
        stroke: #66a7a2;
      }

      .cls-1, .cls-2, .cls-4, .cls-5, .cls-9, .cls-10 {
        fill: #6799bc;
      }

      .cls-2 {
        stroke-width: 8.24px;
      }

      .cls-3 {
        stroke-width: 8.52px;
      }

      .cls-3, .cls-6, .cls-7, .cls-8, .cls-11, .cls-12, .cls-13 {
        fill: #e7dfb8;
      }

      .cls-4 {
        stroke-width: 15.45px;
      }

      .cls-5 {
        stroke-width: 9.43px;
      }

      .cls-6 {
        stroke-width: 6.27px;
      }

      .cls-7 {
        stroke-width: 11px;
      }

      .cls-8 {
        stroke-width: 3.51px;
      }

      .cls-8, .cls-12 {
        stroke: #e7dfb8;
      }

      .cls-9 {
        stroke-width: 9.42px;
      }

      .cls-10 {
        stroke-width: 5.84px;
      }

      .cls-11 {
        stroke-width: 15.42px;
      }

      .cls-12 {
        stroke-width: 5.54px;
      }

      .cls-13 {
        stroke-width: 6.94px;
      }

      .cls-14 {
        fill: #a1cab8;
        stroke-width: 15px;
      }
    </style>
  </defs>
  <path class="cls-7" d="m807.51,521.97s59.94-76.99-43.91-154.26c-6.48-4.82-15.58.56-14.43,8.55,7.25,50.53,19.77,173.36-36.87,135.33l95.21,10.38Z"/>
  <path class="cls-14" d="m772.12,782.18s55.15,71.49,36.77,158.3c0,0-49.02,27.57-136.85,0l5.11-153.19,94.98-5.11Z"/>
  <path class="cls-14" d="m94.54,802.35l32.83-.47c.21,0,.42.02.63.07,4.06.94,49.81,8.89,154.94-78.71,97.01-80.84,156.88-81.1,169.91-79.99,1.47.13,2.74-.96,2.88-2.43,1.15-11.74,6.05-18.9,12.48-23.14,2.9.47,5.82.76,8.77.82,5.11.1,8.83-2.64,10.88-6.36,10.37-.4,19.82,2.01,22.23,2.68-7.69-2.19-14.54-4.54-20.67-6.99.25-1.29.33-2.61.24-3.91,2.08-2.5,3.38-5.7,3.38-8.64,0-7.23-5.36-11.57-11.81-12.8-.85-3.2-2.83-6.07-5.87-7.61-1.48-.75-2.91-1.51-4.31-2.29-1.36-4.78-5.16-8.57-10.15-9.48-.13-.88-.27-1.75-.42-2.63.23-9.02,1.33-17.94,3.22-26.11,1.12-4.8,2.35-9.61,3.47-14.44.76.21,1.52.44,2.29.68,1.95,3.79,4.36,7.32,7.51,10.34,8.38,8.05,21.59,1.98,22.19-9.19.91-16.75-1.77-36.25-10.63-51.31,7.3-3.94,14.23-8.64,21.26-13.11,27.95,4.62,60.49,28.54,74.37,39.64-15.49-14.75-29.79-41.25-33.27-63.39,1.99-1.12,3.98-2.24,5.97-3.37,6.37-3.62,12.71-7.29,18.99-11.06,4.09-2.46,8.09-5.15,12.22-7.59,7.41-1.85,14.93-3.32,22.52-4.5,20.95,14.32,34.7,38.74,39.82,48.98-11.94-25.87-13.9-42.3-10.56-52.15,15.89-1.06,31.83-1.17,47.46-.9,13.33,16.31,28.02,59.67,31.32,66.17.26.52.68.93,1.21,1.19,12.04,5.84,155.68,77.27,184.05,171.19,28.65,94.83-117.54,146.66-127.16,149.96-.33.11-.63.29-.9.53l-61.35,54.31c-.36.32-.62.73-.77,1.18-42.13,130.86-177.53,77.95-206.08,79.98-28.14,2.01-185.87-21.7-190.86-22.45-.09-.01-.16-.03-.25-.05-4.56-1.15-131.15-33.15-161.24-60.22-20.29-18.26-46.4-30.86-61.73-37.28-2.68-1.12-1.91-5.1.99-5.14Z"/>
  <path class="cls-14" d="m713.91,463.54s-21.45-86.81-63.32-76.6c-41.87,10.21,0,69.45,0,69.45,0,0-39.83-86.81-84.77-60.26-44.94,26.55,25.17,99.06,25.17,99.06,0,0-80.32-72.51-111.98-37.79s46.98,98.04,46.98,98.04c0,0-65.36-75.57-85.79-31.66-20.43,43.91,63.32,80.68,63.32,80.68,0,0-59.23-6.13-42.89,30.64s54.13,50.04,80.68,36.77"/>
  <path class="cls-14" d="m580.3,825.65c15.79,1.39,29.54,11.35,36.16,25.75,14.88,32.33,43.86,103.11,18.81,115.63-29.51,14.76-105.68,2.86-120.16.42-1.12-.19-2.24-.31-3.36-.44-4.76-.55-24.49-8.34,1.28-103.58,3.34-12.33,11.75-22.71,23.21-28.35,11.43-5.63,27.14-10.92,44.06-9.43Z"/>
  <path class="cls-14" d="m398.52,813.39c15.79,1.39,29.54,11.35,36.16,25.75,14.88,32.33,43.86,103.11,18.81,115.63-29.51,14.76-105.68,2.86-120.16.42-1.12-.19-2.24-.31-3.36-.44-4.76-.55-24.49-8.34,1.28-103.58,3.34-12.33,11.75-22.71,23.21-28.35,11.43-5.63,27.14-10.92,44.06-9.43Z"/>
  <path class="cls-11" d="m648.39,553.18c-4.45,5.34-4.93,12.87-1.12,18.65,8.65,13.12,28.04,32.27,64.68,23.66,46.04-10.81,57.61-115,11.82-186.9-8.14-12.79-28.07-7.83-29.15,7.26-2.78,38.81-12.81,97.22-46.23,137.32Z"/>
  <path class="cls-3" d="m879.46,616.38c-5.78-1.29-13.29-5.34-21.12-16-1-1.36-1.27-3.05-.76-4.61,3.16-9.58,16.91-42.97,51.88-30.5,4.55,1.62,5.33,7.02,1.42,9.63-10.8,7.21-27.65,20.96-23.83,34.55,1.16,4.14-2.92,7.97-7.6,6.92Z"/>
  <path class="cls-6" d="m810.25,938.93v-19.35s-26.21-11.2-39.15,1.22v24.78l39.15-6.66Z"/>
  <path class="cls-13" d="m771.1,943.54v-19.35s-32.14-11.2-48,1.22v19.43l48-1.31Z"/>
  <path class="cls-6" d="m719.7,943.54v-19.35s-26.21-11.2-39.15,1.22v19.43l39.15-1.31Z"/>
  <path class="cls-6" d="m636.79,961.4v-19.35s-26.21-11.2-39.15,1.22v24.78l39.15-6.66Z"/>
  <path class="cls-13" d="m597.64,966.01v-19.35s-32.14-11.2-48,1.22v19.43l48-1.31Z"/>
  <path class="cls-6" d="m546.23,966.01v-19.35s-26.21-11.2-39.15,1.22v19.43l39.15-1.31Z"/>
  <path class="cls-6" d="m455.64,950.69v-19.35s-26.21-11.2-39.15,1.22v24.78l39.15-6.66Z"/>
  <path class="cls-13" d="m416.49,955.3v-19.35s-32.14-11.2-48,1.22v19.43l48-1.31Z"/>
  <path class="cls-6" d="m365.09,955.3v-19.35s-26.21-11.2-39.15,1.22v19.43l39.15-1.31Z"/>
  <ellipse class="cls-5" cx="431.78" cy="669.8" rx="9.45" ry="7.11"/>
  <ellipse class="cls-1" cx="382.15" cy="688.29" rx="11.74" ry="4.81" transform="translate(-223.19 184.95) rotate(-21.22)"/>
  <ellipse class="cls-9" cx="325.72" cy="729.93" rx="10.02" ry="6.69" transform="translate(-242.08 167.35) rotate(-21.22)"/>
  <ellipse class="cls-9" cx="287.25" cy="792.23" rx="10.02" ry="6.69" transform="translate(-267.24 157.65) rotate(-21.22)"/>
  <ellipse class="cls-10" cx="184.61" cy="807.11" rx="5.42" ry="4.76"/>
  <ellipse class="cls-2" cx="528.87" cy="721.19" rx="5.81" ry="8.83"/>
  <ellipse class="cls-2" cx="666.23" cy="878.76" rx="5.81" ry="8.83"/>
  <ellipse class="cls-4" cx="740.39" cy="639.38" rx="12.18" ry="14.8"/>
  <circle class="cls-12" cx="744.19" cy="633.81" r="5.83"/>
  <circle class="cls-8" cx="737.18" cy="642.69" r="3.69"/>
  <ellipse class="cls-2" cx="442.81" cy="779.91" rx="5.81" ry="8.83" transform="translate(-440.91 626.97) rotate(-50.59)"/>
</svg>