<?xml version="1.0" encoding="UTF-8"?>
<svg id="Capa_8" data-name="Capa 8" xmlns="http://www.w3.org/2000/svg" xmlns:xlink="http://www.w3.org/1999/xlink" viewBox="0 0 1075.38 1521.15">
  <defs>
    <style>
      .cls-1 {
        fill: #8eafab;
      }

      .cls-1, .cls-2, .cls-3, .cls-4, .cls-5 {
        stroke: #789795;
      }

      .cls-1, .cls-6, .cls-7, .cls-3, .cls-4, .cls-5, .cls-8 {
        stroke-linejoin: round;
      }

      .cls-1, .cls-3, .cls-4, .cls-5, .cls-8 {
        stroke-linecap: round;
      }

      .cls-1, .cls-5, .cls-8 {
        stroke-width: 6.09px;
      }

      .cls-2 {
        fill: #e4d7b5;
        stroke-miterlimit: 10;
        stroke-width: 6px;
      }

      .cls-6, .cls-7 {
        stroke: #b1c487;
        stroke-width: 6.1px;
      }

      .cls-6, .cls-9, .cls-10, .cls-8 {
        fill: none;
      }

      .cls-7 {
        fill: #c5db9b;
      }

      .cls-3 {
        stroke-width: 7.02px;
      }

      .cls-3, .cls-4, .cls-5 {
        fill: #91bab6;
      }

      .cls-4 {
        stroke-width: 6.37px;
      }

      .cls-11 {
        fill: #eec2cf;
      }

      .cls-12 {
        fill: #779794;
      }

      .cls-10 {
        clip-path: url(#clippath);
      }

      .cls-8 {
        stroke: #e2e8e7;
      }
    </style>
    <clipPath id="clippath">
      <path class="cls-9" d="m435.81,309.52c23.27,5.1,117.93,23.13,205.4,1.03,4.8-1.21,7.85-5.94,7.04-10.83l-.41-2.47-9.92-7.77c-.71-.56-.96-1.52-.61-2.35l8.55-20.35c.41-.97-.01-2.1-.96-2.57l-19.76-9.73c-.8-.4-1.25-1.28-1.08-2.16l5.34-28.6c.11-.57-.03-1.15-.39-1.6-6.32-8-64.52-81.12-88.97-89.16-24.46-8.05-67.49,74.81-72.11,83.86-.26.51-.29,1.1-.08,1.63l6.95,17.81c.41,1.04-.12,2.22-1.17,2.6l-17.36,6.39c-1.09.4-1.61,1.64-1.13,2.69l10.29,22.94c.42.94.06,2.05-.84,2.56l-29.73,16.81s-3.21,4.17-4.85,8.84,1.13,9.42,5.81,10.45Z"/>
    </clipPath>
  </defs>
  <path id="COLA" class="cls-4" d="m722.04,426.6c2.62,41.96-2.03,122.7-72.37,144.82l-19.61-86.12s39.24,8.21,77.9-61.85c3.63-6.58,13.61-4.36,14.08,3.15Z"/>
  <path class="cls-5" d="m479.03,423.94l-31.57,54.21s-35.4-49.02-51.4-35.4-26.21,39.15,45.96,82.04c0,0-39.83,94.98,49.7,105.53s139.91-9.53,139.91-9.53c0,0,53.11-7.49-10.55-94.3,0,0,32,53.11,46.3,22.81s-61.16-129.76-61.16-129.76l-127.18,4.4Z"/>
  <g id="coronita">
    <path class="cls-1" d="m452.54,353.35c-9.77,27.26-59.88,36.7-78.82,29.91-18.94-6.79-26.37-34.38-16.61-61.64,9.77-27.26,33.04-43.85,51.97-37.07s53.22,41.54,43.45,68.8Z"/>
    <path class="cls-1" d="m494.94,316.52c-27.86,7.89-64.66-27.41-70.14-46.77-5.48-19.36,12.66-41.44,40.52-49.33,27.86-7.89,54.89,1.41,60.37,20.76s-2.89,67.45-30.75,75.34Z"/>
    <path class="cls-1" d="m593.27,318.92c-27.19-9.95-36.29-60.13-29.37-79.02,6.91-18.89,34.56-26.14,61.75-16.19,27.19,9.95,43.63,33.33,36.71,52.23s-41.9,52.93-69.09,42.98Z"/>
    <path class="cls-1" d="m619.55,356.23c-1.14-28.93,41.81-56.43,61.91-57.22,20.1-.79,37.32,22.02,38.45,50.96s-14.24,53.03-34.34,53.81c-20.1.79-64.89-18.62-66.03-47.55Z"/>
  </g>
  <path class="cls-5" d="m456.89,462.89c-31.11-19.71-51.14-50.53-51.14-85.17,0-59.5,59.1-107.74,132-107.74s132,48.24,132,107.74c0,30.39-15.42,57.85-40.21,77.43"/>
  <path class="cls-8" d="m438.28,302.66c-3.73,55.46-19.34,106.07-1.89,140.94,55.06,110.01,179.26,38.17,199.49,14.81,1.58-1.83,5.14-7.59,6.81-9.87,12.61-17.26,19.22-84.23,1.3-139.2"/>
  <path class="cls-3" d="m456.89,462.89c10.65,22.41,35.53,51,82.13,51s80.5-27.06,91.03-57.19"/>
  <ellipse class="cls-12" cx="474.81" cy="391.66" rx="7.28" ry="12.15"/>
  <ellipse class="cls-12" cx="612.81" cy="410.2" rx="12.15" ry="7.28" transform="translate(18.71 847.06) rotate(-70.12)"/>
  <ellipse class="cls-12" cx="540.37" cy="481.16" rx="5.09" ry="3.45" transform="translate(-181.96 523.03) rotate(-45)"/>
  <ellipse class="cls-12" cx="519.82" cy="480.08" rx="3.45" ry="5.09" transform="translate(-187.22 508.18) rotate(-45)"/>
  <g id="GORRO">
    <g id="GORRITO">
      <g class="cls-10">
        <path class="cls-7" d="m435.81,309.52c23.27,5.1,117.93,23.13,205.4,1.03,4.8-1.21,7.85-5.94,7.04-10.83l-.41-2.47-9.92-7.77c-.71-.56-.96-1.52-.61-2.35l8.55-20.35c.41-.97-.01-2.1-.96-2.57l-19.76-9.73c-.8-.4-1.25-1.28-1.08-2.16l5.34-28.6c.11-.57-.03-1.15-.39-1.6-6.32-8-64.52-81.12-88.97-89.16-24.46-8.05-67.49,74.81-72.11,83.86-.26.51-.29,1.1-.08,1.63l6.95,17.81c.41,1.04-.12,2.22-1.17,2.6l-17.36,6.39c-1.09.4-1.61,1.64-1.13,2.69l10.29,22.94c.42.94.06,2.05-.84,2.56l-29.73,16.81s-3.21,4.17-4.85,8.84,1.13,9.42,5.81,10.45Z"/>
        <ellipse class="cls-11" cx="491.2" cy="193.55" rx="30.81" ry="27.91"/>
        <circle class="cls-11" cx="624.64" cy="238.32" r="22.98"/>
        <ellipse class="cls-11" cx="601.59" cy="320.7" rx="28.33" ry="22.98"/>
        <ellipse class="cls-11" cx="455.55" cy="299.94" rx="28.33" ry="22.98"/>
        <ellipse class="cls-11" cx="542.77" cy="273.55" rx="18.01" ry="18.72"/>
        <ellipse class="cls-11" cx="573.27" cy="189.75" rx="11.59" ry="10.5"/>
      </g>
    </g>
    <g>
      <path class="cls-6" d="m435.81,309.52c23.27,5.1,117.93,23.13,205.4,1.03,4.8-1.21,7.85-5.94,7.04-10.83l-.41-2.47-9.92-7.77c-.71-.56-.96-1.52-.61-2.35l8.55-20.35c.41-.97-.01-2.1-.96-2.57l-19.76-9.73c-.8-.4-1.25-1.28-1.08-2.16l5.34-28.6c.11-.57-.03-1.15-.39-1.6-6.32-8-64.52-81.12-88.97-89.16-24.46-8.05-67.49,74.81-72.11,83.86-.26.51-.29,1.1-.08,1.63l6.95,17.81c.41,1.04-.12,2.22-1.17,2.6l-17.36,6.39c-1.09.4-1.61,1.64-1.13,2.69l10.29,22.94c.42.94.06,2.05-.84,2.56l-29.73,16.81s-3.21,4.17-4.85,8.84,1.13,9.42,5.81,10.45Z"/>
      <circle class="cls-11" cx="527.62" cy="110.32" r="22.98"/>
      <circle class="cls-11" cx="558.6" cy="114.06" r="22.98"/>
      <circle class="cls-11" cx="550.6" cy="147.6" r="22.98"/>
      <circle class="cls-11" cx="519.79" cy="137.04" r="22.98"/>
    </g>
  </g>
  <g id="PATAS">
    <circle class="cls-2" cx="421.5" cy="563.85" r="17.96"/>
    <circle class="cls-2" cx="457.41" cy="551.08" r="17.96"/>
    <circle class="cls-2" cx="492.77" cy="574.23" r="17.96"/>
    <circle class="cls-4" cx="453.92" cy="592.19" r="50.04"/>
    <circle class="cls-2" cx="588.99" cy="566.23" r="17.96"/>
    <circle class="cls-2" cx="624.9" cy="553.46" r="17.96"/>
    <circle class="cls-2" cx="660.26" cy="576.62" r="17.96"/>
    <circle class="cls-4" cx="621.41" cy="594.57" r="50.04"/>
  </g>
</svg>