<?xml version="1.0" encoding="UTF-8"?>
<svg id="dino7" xmlns="http://www.w3.org/2000/svg" viewBox="0 0 1052.32 1066.49">
  <defs>
    <style>
      .cls-1 {
        stroke-width: 13.08px;
      }

      .cls-1, .cls-2, .cls-3, .cls-4, .cls-5, .cls-6, .cls-7 {
        stroke-linecap: round;
        stroke-linejoin: round;
      }

      .cls-1, .cls-2, .cls-5 {
        fill: #998ac1;
      }

      .cls-1, .cls-3, .cls-4, .cls-6, .cls-7 {
        stroke: #998ac1;
      }

      .cls-2 {
        stroke-width: 9.97px;
      }

      .cls-2, .cls-5 {
        stroke: #d2caed;
      }

      .cls-3 {
        fill: #c4b6e7;
      }

      .cls-3, .cls-4, .cls-6 {
        stroke-width: 12px;
      }

      .cls-4 {
        fill: #aea1d6;
      }

      .cls-5 {
        stroke-width: 7.34px;
      }

      .cls-6 {
        fill: #d2caed;
      }

      .cls-7 {
        fill: none;
        stroke-width: 11px;
      }
    </style>
  </defs>
  <path class="cls-4" d="m227.59,540.33s-61.28-135.43-97.28-162.23,174.64-45.34,240.51,81.12l167.74,163.98-234.52,22.22-76.46-105.09Z"/>
  <path class="cls-4" d="m491.07,843.8s15.32,74.3,39.83,68.94,32.17-12.26,32.17-12.26c0,0,21.45-32.17,0-56.68s-72,0-72,0Z"/>
  <path class="cls-3" d="m906.83,592.97c-.07.07-.14.12-.22.17-2.05,1.18-30,17.2-62.7,33.03-.05.02-.11.04-.16.06-5.47,1.82-10.97,3.51-16.31,5.69-3.92,1.6-7.47,3.49-11,5.51-.26.14-.56.16-.83.07-2.34-.8-4.88-.93-7.31-.11-4.28,1.43-8.55,2.91-12.89,4.13-.04.01-.08.02-.12.02-2.98.47-5.98,1.07-8.78,1.98-1.99.64-3.78,1.71-5.25,3.07-.16.15-.37.25-.59.27-7.03.61-14.05,1.34-21.08,1.83h-.09c-5.28-.09-10.56-.08-15.83.49-5,.55-9.5,3.1-11.66,7.28-.15.3-.42.5-.75.55-33.87,4.38-78.53,41.76-83.48,45.97-.28.24-.67.31-1.01.18l-11.49-4.38c-.99-.37-1.82.84-1.11,1.62,19.75,21.89,35.67,40.86,47.88,50.97,26.65,22.05,82.23,19.31,93.11,18.54.8-.06,1.34.81.95,1.51-31.56,56.28-72.6,83.06-106.65,95.71,3.72,10.39,6.98,20.53,6.98,24.16,0,8.42-9.19,18.38-32.94,21.72-14.66,2.06-28.45-18.69-36.85-34.87-1.23-.05-1.97-.11-2.16-.13h-.11c-159.12,4.95-229.12-87.92-232.65-92.75-.1-.13-.22-.23-.37-.3-30.66-14.32-30.67-93.18-30.45-106.29.01-.8-.86-1.29-1.54-.87-41.16,25.39-114.45,57.59-162.85,6.17-39.16-41.61,3.8-92.99,22.66-111.98,5.04-5.07,8.73-11.32,10.8-18.17,32.01-105.73,164.01-141.03,169.6-142.48.12-.04.23-.09.34-.17l59.86-44.63c8.97-6.68,21.22,2.13,17.73,12.77l-19.42,59.18c-.08.24-.06.5.04.73,45.36,100.03,21.17,149.65,1.52,170.94-.07.08-.16.15-.25.2-6.04,3.44-10.47,5.91-12.81,7.2-.35.2-.52.54-.52.88,0,.39.23.78.66.95.77.29.87,1.33.19,1.78-.94.63-1.76,1.14-2.42,1.53l4.49-2.45-.47-.18c2.99-2.14,6.85-5.31,10.92-9.68.06-.07.14-.13.23-.18,47.09-26.81,190.6-111.59,217.73-163.87.42-.81,1.6-.7,1.86.18,6.49,22.13,60.88,177.76,273.21,39.85.47-.3,1.08-.18,1.39.27,4.24,6.29,29.36,48.93-27.03,106.33Z"/>
  <path class="cls-3" d="m422.77,623.65l1.66-.91c-.85.5-1.43.79-1.66.91Z"/>
  <path class="cls-6" d="m628.86,694.42c-9.11-10.29-41.9-45.69-76.82-63.69-10.37-5.34-11.28-19.84-1.76-26.58l95.34-67.52c4.2-2.98,9.6-3.69,14.43-1.91,31.9,11.72,157.39,52.52,247.63,6.18.74-.38,1.44-.82,2.11-1.31h0c13.06-9.55,30.27,4.63,23.37,19.26-5.37,11.38-13.66,23.46-26.42,34.21-38.8,32.69-133.78,59.24-161.36,64.35-12.45,2.31-72.35,32.74-91.87,42.77-3.94,2.02-8.55,2.28-12.69.7l-5.8-2.21c-2.37-.9-4.48-2.36-6.15-4.26Z"/>
  <path class="cls-6" d="m344.52,728.31s36.75-44.2,78.25-26.4,109.07,165.63,109.07,165.63c0,0-146.21,25.28-187.32-139.23Z"/>
  <ellipse class="cls-1" cx="260.36" cy="573.93" rx="13.37" ry="15.06"/>
  <circle class="cls-2" cx="255.13" cy="570.26" r="3.93"/>
  <circle class="cls-5" cx="265.6" cy="578.82" r="2.89"/>
  <path class="cls-7" d="m383.16,463.03c0-26.49-21.41-38.16-45.38-38.16"/>
  <path class="cls-7" d="m359.46,487.88c0-26.49-22.85-45.99-46.83-45.99"/>
  <path class="cls-7" d="m341.63,508.65c0-26.49-28.65-51.45-52.62-51.45"/>
</svg>