<?xml version="1.0" encoding="UTF-8"?>
<svg id="Capa_7" data-name="Capa 7" xmlns="http://www.w3.org/2000/svg" viewBox="0 0 1075.38 1521.15">
  <defs>
    <style>
      .cls-1, .cls-2, .cls-3, .cls-4, .cls-5, .cls-6 {
        stroke: #96b991;
      }

      .cls-1, .cls-3, .cls-4, .cls-5 {
        stroke-miterlimit: 10;
      }

      .cls-1, .cls-3, .cls-5, .cls-6 {
        fill: #e8dfba;
      }

      .cls-1, .cls-6 {
        stroke-width: 5.81px;
      }

      .cls-7 {
        fill: #e2a9af;
      }

      .cls-2, .cls-8, .cls-9, .cls-6 {
        stroke-linecap: round;
        stroke-linejoin: round;
      }

      .cls-2, .cls-4 {
        fill: #b2d9aa;
        stroke-width: 7.87px;
      }

      .cls-3 {
        stroke-width: 5.25px;
      }

      .cls-8 {
        fill: #7fc6cc;
        stroke: #78b9ba;
        stroke-width: 6.68px;
      }

      .cls-9 {
        fill: none;
        stroke: #dceaea;
        stroke-width: 4.05px;
      }

      .cls-10 {
        fill: #96b991;
      }

      .cls-5 {
        stroke-width: 6.1px;
      }
    </style>
  </defs>
  <g id="colita">
    <path class="cls-1" d="m399.16,1072.32c8.72,2.35,25.98-10.33,27.93-17.58,1.95-7.25-10.5-13.23-19.22-15.58-8.72-2.35-17.38,1.63-19.33,8.88-1.95,7.25,1.89,21.94,10.62,24.28Z"/>
    <path class="cls-1" d="m426.28,1048.15c8.72,2.35,25.98-10.33,27.93-17.58,1.95-7.25-10.5-13.23-19.22-15.58-8.72-2.35-17.38,1.63-19.33,8.88-1.95,7.25,1.89,21.94,10.62,24.28Z"/>
    <path class="cls-3" d="m450.29,1024.21c7.8,2.1,23.3-9.53,25.08-16.15s-9.33-12.01-17.13-14.1c-7.8-2.1-15.56,1.56-17.34,8.18-1.78,6.61,1.59,19.97,9.39,22.07Z"/>
    <path class="cls-1" d="m376.24,1095.3c8.72,2.35,25.98-10.33,27.93-17.58,1.95-7.25-10.5-13.23-19.22-15.58-8.72-2.35-17.38,1.63-19.33,8.88-1.95,7.25,1.89,21.94,10.62,24.28Z"/>
    <path class="cls-2" d="m481.47,1007.25c-9.52,56.96-36,163.26-102.75,184.33l-26.76-92.46s67.13-43.69,113.33-99.33c6.01-7.23,17.73-1.81,16.18,7.47Z"/>
  </g>
  <path id="cuerpo" class="cls-2" d="m357.07,1219.12c-8.36,2.9-16.45,5.31-24.24,7.27-21.3,5.38-40.43,7.51-57.08,7.7-16.65-.19-35.78-2.32-57.08-7.7-7.79-1.96-15.88-4.37-24.24-7.27-97.02-33.7,0-168.51,0-168.51l17.42,18.72c12.99-18.02,35.67-29.96,61.48-29.96,27.22,0,50.96,13.28,63.52,32.97l20.22-21.73s97.02,134.81,0,168.51Z"/>
  <g id="bracitos">
    <path class="cls-2" d="m191.62,1051.12s-24.25,25.14-25.76,49.3c-.67,10.69,5.25,20.71,14.7,25.75,18.77,10,64.03,32.34,82.03,25.54,22.98-8.68,0-28.09,0-28.09l-25.02-16.85"/>
    <path class="cls-2" d="m364.45,1051.12s24.25,25.14,25.76,49.3c.67,10.69-5.25,20.71-14.7,25.75-18.77,10-64.03,32.34-82.03,25.54-22.98-8.68,0-28.09,0-28.09l25.02-16.85"/>
  </g>
  <path id="colmillo" class="cls-6" d="m299.88,1090.44s10.72,22.21,15.83,23.74,12-28.34,12-28.34l-27.83,4.6Z"/>
  <g id="cabeza">
    <path class="cls-4" d="m423.71,956.14c0,28.87-13.37,55.3-35.54,75.71-12.12,41-55.56,71.35-107.31,71.35-44.75,0-83.3-22.7-100.73-55.36-34.54-21.45-56.67-54.56-56.67-91.7,0-64.72,67.21-117.19,150.12-117.19s150.13,52.47,150.13,117.19Z"/>
    <ellipse class="cls-10" cx="202.03" cy="970.42" rx="11.43" ry="13.76"/>
    <ellipse class="cls-10" cx="344.5" cy="968.37" rx="11.43" ry="13.76"/>
    <ellipse class="cls-10" cx="310.16" cy="1051.4" rx="6.88" ry="5.72" transform="translate(-738.62 732.46) rotate(-56.65)"/>
    <ellipse class="cls-10" cx="245.56" cy="1053.45" rx="5.72" ry="6.88" transform="translate(-538.71 308.48) rotate(-33.35)"/>
  </g>
  <path class="cls-9" d="m388.05,880.32c18.97,37.2,31.28,83.47,16.93,124.02-1.79,5.07-3.26,10.25-4.56,15.46-7.2,28.95-44.32,122.41-215.18,42.8-5.11-2.38-19.49-25.32-26.49-39.32-1-1-1.56-3.47-2.56-4.47-22-41-26-90-5.91-131.25"/>
  <g id="cabeza-2" data-name="cabeza">
    <path class="cls-2" d="m180.13,1047.84c17.43,32.66,55.98,55.36,100.73,55.36,51.75,0,94.72-28.82,106.84-69.82"/>
    <ellipse class="cls-10" cx="310.16" cy="1051.4" rx="6.88" ry="5.72" transform="translate(-738.62 732.46) rotate(-56.65)"/>
    <ellipse class="cls-10" cx="245.56" cy="1053.45" rx="5.72" ry="6.88" transform="translate(-538.71 308.48) rotate(-33.35)"/>
  </g>
  <g id="patitas">
    <g id="garras">
      <path class="cls-5" d="m164.05,1158.19c0,8.65-19.27,21.45-27.91,21.45s-11.57-13-11.57-21.64,7.01-15.66,15.66-15.66,23.83,7.21,23.83,15.86Z"/>
      <path class="cls-5" d="m197.79,1155.44c-4.44,7.42-27.55,8.51-34.97,4.07-7.42-4.44-3.26-17.09,1.18-24.52s14.06-9.84,21.48-5.4c7.42,4.44,16.75,18.42,12.31,25.84Z"/>
      <path class="cls-5" d="m215.84,1181.39c-8.35,2.25-25.72-13.03-27.96-21.38-2.25-8.35,9.54-14.55,17.89-16.8s16.94,2.7,19.19,11.05c2.25,8.35-.77,24.88-9.12,27.13Z"/>
    </g>
    <path class="cls-2" d="m219.95,1168.19c6.81,27.44,6.25,53.58-16.58,66.77-22.84,13.18-42.38,3.06-66.11-19.02-20.03-18.64-6.25-53.58,16.58-66.77,22.84-13.18,59.52-7.53,66.11,19.02Z"/>
    <g id="garras-2" data-name="garras">
      <path class="cls-5" d="m378.72,1161.76c0,8.65,19.27,21.45,27.91,21.45s11.57-13,11.57-21.64-7.01-15.66-15.66-15.66-23.83,7.21-23.83,15.86Z"/>
      <path class="cls-5" d="m344.98,1159.02c4.44,7.42,27.55,8.51,34.97,4.07,7.42-4.44,3.26-17.09-1.18-24.52s-14.06-9.84-21.48-5.4c-7.42,4.44-16.75,18.42-12.31,25.84Z"/>
      <path class="cls-5" d="m326.93,1184.96c8.35,2.25,25.72-13.03,27.96-21.38,2.25-8.35-9.54-14.55-17.89-16.8s-16.94,2.7-19.19,11.05c-2.25,8.35.77,24.88,9.12,27.13Z"/>
    </g>
    <path class="cls-2" d="m322.82,1171.76c-6.81,27.44-6.25,53.58,16.58,66.77,22.84,13.18,42.38,3.06,66.11-19.02,20.03-18.64,6.25-53.58-16.58-66.77-22.84-13.18-59.52-7.53-66.11,19.02Z"/>
  </g>
  <g id="gorrito">
    <path class="cls-8" d="m161.98,895.31c26,6.62,87.66,14.07,219.38-3.84,8.56-1.16,14.15-8.94,12.03-16.72-11.11-40.69-45.65-153.69-89.22-163.72-44.57-10.26-125.82,121.6-151.08,164.78-4.47,7.64-.15,17.19,8.89,19.49Z"/>
    <ellipse class="cls-7" cx="280.39" cy="707.82" rx="21.82" ry="20.68"/>
    <ellipse class="cls-7" cx="269.88" cy="727.63" rx="21.82" ry="20.68"/>
    <ellipse class="cls-7" cx="301.97" cy="703.12" rx="21.82" ry="20.68"/>
    <ellipse class="cls-7" cx="315.14" cy="722.17" rx="21.82" ry="20.68"/>
    <ellipse class="cls-7" cx="285.7" cy="737.69" rx="21.82" ry="20.68"/>
    <ellipse class="cls-7" cx="325.07" cy="854.03" rx="9.88" ry="9.36"/>
    <ellipse class="cls-7" cx="340.12" cy="815.05" rx="7.73" ry="7.32"/>
    <ellipse class="cls-7" cx="250.75" cy="775.9" rx="7.73" ry="7.32"/>
    <ellipse class="cls-7" cx="310.98" cy="766.6" rx="12.81" ry="11.04"/>
    <ellipse class="cls-7" cx="368.75" cy="867.02" rx="12.81" ry="11.04"/>
    <ellipse class="cls-7" cx="238.01" cy="834.27" rx="15.57" ry="14.98"/>
    <ellipse class="cls-7" cx="169.98" cy="876.97" rx="5.98" ry="5.16"/>
    <ellipse class="cls-7" cx="252.39" cy="876.97" rx="10.72" ry="9.94"/>
  </g>
</svg>