<?xml version="1.0" encoding="UTF-8"?>
<svg id="dino2" xmlns="http://www.w3.org/2000/svg" viewBox="0 0 1052.32 1053.55">
  <defs>
    <style>
      .cls-1, .cls-2, .cls-3, .cls-4, .cls-5, .cls-6, .cls-7, .cls-8, .cls-9, .cls-10, .cls-11, .cls-12, .cls-13 {
        stroke-miterlimit: 10;
      }

      .cls-1, .cls-4, .cls-10, .cls-12 {
        fill: #87a3c4;
        stroke: #aac2e5;
      }

      .cls-1, .cls-5, .cls-8 {
        stroke-width: 11.77px;
      }

      .cls-2 {
        fill: #9f9cbc;
      }

      .cls-2, .cls-14, .cls-7, .cls-15, .cls-16, .cls-17 {
        stroke: #918eb2;
      }

      .cls-2, .cls-7 {
        stroke-width: 10.89px;
      }

      .cls-3, .cls-4 {
        stroke-width: 13.78px;
      }

      .cls-3, .cls-5, .cls-6, .cls-13 {
        fill: #aac2e5;
        stroke: #87a3c4;
      }

      .cls-14 {
        fill: #e2dac7;
        stroke-width: 3.92px;
      }

      .cls-14, .cls-15, .cls-16, .cls-17 {
        stroke-linecap: round;
        stroke-linejoin: round;
      }

      .cls-6, .cls-10 {
        stroke-width: 16.27px;
      }

      .cls-7 {
        fill: #a29dc1;
      }

      .cls-8 {
        stroke: #5e5935;
      }

      .cls-8, .cls-9, .cls-11 {
        fill: #5e5935;
      }

      .cls-9 {
        stroke-width: 3.77px;
      }

      .cls-9, .cls-11 {
        stroke: #ede7d6;
      }

      .cls-15 {
        stroke-width: 7.63px;
      }

      .cls-15, .cls-16 {
        fill: #ede7d6;
      }

      .cls-16 {
        stroke-width: 7.24px;
      }

      .cls-11 {
        stroke-width: 5.9px;
      }

      .cls-17 {
        fill: #ddd6c5;
        stroke-width: 5.14px;
      }

      .cls-12, .cls-13 {
        stroke-width: 15.47px;
      }
    </style>
  </defs>
  <g>
    <path class="cls-2" d="m643.64,810.85l-9.47,41.67c-1.93,8.47-8.62,15.03-17.14,16.78-16.31,3.35-45.29,7.38-78.98,3.5-7.44-.86-13.96-5.4-17.31-12.1l-21.27-42.54c-7.26-14.52,3.07-31.66,19.3-32.03l102.78-2.33c14.41-.33,25.28,12.98,22.09,27.04Z"/>
    <path class="cls-2" d="m406.44,842.11c13.69,2.41,32.38,4.37,50.86,2.07,7.82-.97,14.57-5.97,17.7-13.2l10.81-25.01c5.58-12.91-2.14-27.68-15.92-30.47l-50.3-10.21c-12.44-2.53-24.46,5.91-26.3,18.47l-4.9,33.34c-1.74,11.85,6.25,22.95,18.05,25.02Z"/>
  </g>
  <g>
    <path class="cls-14" d="m469.33,825.21s-8.61-11.09-17.81-1.15l-1.89,15.9s17.22,1.99,19.7-14.75Z"/>
    <path class="cls-14" d="m396.44,821.86s10.38-9,18.75.42v19.56s-11.91,1.46-18.75-19.98Z"/>
    <path class="cls-14" d="m451.52,824.06s-9.08-7.22-19.58-.21l2.83,17.87,13.45-1.24,3.3-16.42Z"/>
    <path class="cls-14" d="m431,823.85s-3.87-7.43-14.04-.84l-1.77,18.83,19.58-.12-3.77-17.87Z"/>
  </g>
  <g>
    <path class="cls-17" d="m630.64,848.97s-13.14-12.52-27.17-1.3l-2.88,17.96s26.27,2.24,30.05-16.66Z"/>
    <path class="cls-17" d="m519.43,845.19s15.84-10.16,28.61.47v22.09s-18.18,1.65-28.61-22.56Z"/>
    <path class="cls-17" d="m603.47,847.67s-13.86-8.15-29.87-.24l4.32,20.18,20.52-1.4,5.04-18.55Z"/>
    <path class="cls-17" d="m572.16,847.43s-5.9-8.39-21.42-.95l-2.7,21.26,29.87-.14-5.76-20.18Z"/>
  </g>
  <g>
    <path class="cls-5" d="m180.46,707.24s8.35-37.97-58.93-57.1l-16.34-6.12-2.08,13.5s-11.5,40.6,8.34,69.45c19.83,28.85,69.01-19.73,69.01-19.73Z"/>
    <path class="cls-1" d="m162.59,706.8s7.53-22.9-32.77-38.92l-9.69-4.8-2.13,8.2s-9.64,24.33.78,43.37c10.42,19.04,43.81-7.84,43.81-7.84Z"/>
  </g>
  <g>
    <path class="cls-3" d="m285.8,596.45s-4.26-45.29-86.06-42.56l-20.39-.98,2.5,15.78s1.7,49.35,34.1,74.41c32.41,25.06,69.85-46.64,69.85-46.64Z"/>
    <path class="cls-4" d="m265.74,602.35s.21-28.21-50.42-31.66l-12.52-1.89.55,9.89s-2.05,30.55,16.37,48.04c18.42,17.49,46.02-24.39,46.02-24.39Z"/>
  </g>
  <g>
    <path class="cls-13" d="m376.33,494.63s-1.68-53.76-88.94-55.19l-21.65-2.32,1.67,18.79s-1.31,58.4,31.61,89.85c32.92,31.45,77.31-51.13,77.31-51.13Z"/>
    <path class="cls-12" d="m354.6,500.45s2.01-33.32-51.68-40.28l-13.21-2.94-.04,11.72s-4.11,35.98,14.39,57.7c18.5,21.72,50.54-26.2,50.54-26.2Z"/>
  </g>
  <g>
    <path class="cls-6" d="m501.74,462.97s27.96-49.17-49.58-98.3l-18.16-13.95-8.8,17.78s-33.19,51.7-20.89,97.99c12.3,46.28,97.43-3.51,97.43-3.51Z"/>
    <path class="cls-10" d="m479.04,456.28s20.07-28.81-24.31-64.49l-10.24-9.88-6.46,10.5s-23.42,30.04-18.71,59.68c4.7,29.64,59.72,4.19,59.72,4.19Z"/>
  </g>
  <g>
    <path class="cls-6" d="m631.47,481.6s42.23-37.64-15.53-108.99l-12.74-19.03-14.03,14.03s-47.99,38.37-51.14,86.15c-3.15,47.78,93.44,27.84,93.44,27.84Z"/>
    <path class="cls-10" d="m612.11,468s28.23-20.87-2.4-68.88l-6.54-12.64-9.48,7.88s-31.8,20.97-36.82,50.56c-5.03,29.59,55.25,23.07,55.25,23.07Z"/>
  </g>
  <g>
    <path class="cls-6" d="m748.32,538.22s52.71-20.54,23.49-107.56l-5.3-22.28-18.04,8.25s-58.36,19.21-77.99,62.89c-19.63,43.68,77.84,58.7,77.84,58.7Z"/>
    <path class="cls-10" d="m734.92,518.72s33.74-9.71,21.79-65.39l-1.72-14.13-11.63,4.08s-37.12,8.56-52.15,34.53c-15.04,25.97,43.72,40.9,43.72,40.9Z"/>
  </g>
  <path class="cls-7" d="m48.02,741.84c31.56-3.76,110.46,24.05,110.46,24.05,78.94,42.11,99.15,31.23,102.95,27.86v30.59c0,18.86,14.01,34.69,32.69,37.2,28.16,3.79,52.98,1.67,70.18-1.2,14.83-2.47,26.75-13.53,30.31-28.14l12.8-52.65c1.68.91,3.37,1.86,5.05,2.86,81.15,48.1,204.39,13.53,204.39,13.53,0,0,3.64.02,10.07-.11l26.78,70.77c5.21,13.76,18,23.17,32.69,24.15,39.4,2.64,69.51-1.36,88.83-5.59,14.9-3.27,26.34-15.24,28.93-30.28l7.09-41.2c19.43,10.59,42.15,18.66,66.96,23.09,83.62,14.94,153.46-7.34,163.21-61.88,9.74-54.54-44.3-120.66-127.92-135.61-22.18-3.96-43.8-4.62-63.79-2.42-84.84-122.35-159.53-180.59-356.04-178.44-206.64,2.26-277.59,216.78-277.59,216.78-9.17,19.84-140.27,49.35-140.27,49.35,0,0-59.36,21.03-27.8,17.28Z"/>
  <g>
    <path class="cls-15" d="m802.98,859.13s-17.8-20.34-36.82-2.11l-3.9,29.17s35.6,3.65,40.73-27.06Z"/>
    <path class="cls-15" d="m652.27,852.98s21.46-16.5,38.77.77v35.88s-24.63,2.69-38.77-36.65Z"/>
    <path class="cls-15" d="m766.15,857.01s-18.78-13.24-40.48-.38l5.85,32.79,27.8-2.28,6.83-30.13Z"/>
    <path class="cls-15" d="m723.72,856.63s-8-13.63-29.02-1.54l-3.66,34.54,40.48-.22-7.8-32.79Z"/>
  </g>
  <g>
    <path class="cls-16" d="m395.19,830.07s-16.07-20.34-33.23-2.11l-3.52,29.17s32.13,3.65,36.75-27.06Z"/>
    <path class="cls-16" d="m259.18,823.93s19.37-16.5,34.99.77v35.88s-22.23,2.69-34.99-36.65Z"/>
    <path class="cls-16" d="m361.96,827.96s-16.95-13.24-36.53-.38l5.28,32.79,25.09-2.28,6.16-30.13Z"/>
    <path class="cls-16" d="m323.66,827.57s-7.22-13.63-26.19-1.54l-3.3,34.54,36.53-.22-7.04-32.79Z"/>
  </g>
  <circle class="cls-8" cx="924.59" cy="698.63" r="14.9"/>
  <circle class="cls-11" cx="930.22" cy="693.08" r="3.01"/>
  <circle class="cls-9" cx="925.3" cy="698.59" r="1.92"/>
</svg>