<?xml version="1.0" encoding="UTF-8"?>
<svg id="huella1" xmlns="http://www.w3.org/2000/svg" viewBox="0 0 1052.32 1066.49">
  <defs>
    <style>
      .cls-1 {
        fill: #704211;
        stroke: #593208;
        stroke-linecap: round;
        stroke-linejoin: round;
        stroke-width: 38.67px;
      }
    </style>
  </defs>
  <path class="cls-1" d="m204.31,391.98c5.71,37,17.65,72.83,35.85,105.54,25.8,46.37,69.02,95.02,135.38,94.53,135.28-.99,169.84-148.12,169.84-148.12l31.23-112.42c7.79-28.03-29.8-45.24-45.93-21.04l-49.48,74.22-61.22-152.08c-16.44-49.79-65.13-44.64-79,5.92l-48.38,135.28-57.5-71.11c-15.17-18.76-45.4-5.39-41.72,18.45l10.92,70.81Z"/>
  <path class="cls-1" d="m483.12,726.96c5.71,37,17.65,72.83,35.85,105.54,25.8,46.37,69.02,95.02,135.38,94.53,135.28-.99,169.84-148.12,169.84-148.12l31.23-112.42c7.79-28.03-29.8-45.24-45.93-21.04l-49.48,74.22-61.22-152.08c-16.44-49.79-65.13-44.64-79,5.92l-48.38,135.28-57.5-71.11c-15.17-18.76-45.4-5.39-41.72,18.45l10.92,70.81Z"/>
</svg>