<?xml version="1.0" encoding="UTF-8"?>
<svg id="huella2" xmlns="http://www.w3.org/2000/svg" viewBox="0 0 1052.32 1066.49">
  <defs>
    <style>
      .cls-1 {
        fill: #dbe296;
        stroke: #acaf62;
        stroke-linecap: round;
        stroke-linejoin: round;
        stroke-width: 35px;
      }
    </style>
  </defs>
  <path class="cls-1" d="m32.15,367.59c2.07,9.53,3.73,19.14,5.2,28.79,12.29,80.58,67.24,376.12,210.97,369.18,124.88-6.03,178.29-140.63,206.63-291.03,10.77-57.16,19.29-115.06,20.68-172.94,1.2-49.78-6.61-99.37-22.63-146.52h0c-17.73-34.95-36.9-4.47-48.14,26.65l-69.77,161.58s-29.52-209.79-51.88-247.29c-22.36-37.49-39.36-44.64-65.3,7.14-25.94,51.78-47.41,239.25-47.41,239.25,0,0-70.66-162.48-79.61-176.76s-30.41-48.21-48.3,8.03c-16.55,52.02-19.32,152.93-10.44,193.92Z"/>
  <path class="cls-1" d="m554.54,614.23c2.07,9.53,3.73,19.14,5.2,28.79,12.29,80.58,67.24,376.12,210.97,369.18,124.88-6.03,178.29-140.63,206.63-291.03,10.77-57.16,19.29-115.06,20.68-172.94,1.2-49.78-6.61-99.37-22.63-146.52h0c-17.73-34.95-36.9-4.47-48.14,26.65l-69.77,161.58s-29.52-209.79-51.88-247.29c-22.36-37.49-39.36-44.64-65.3,7.14-25.94,51.78-47.41,239.25-47.41,239.25,0,0-70.66-162.48-79.61-176.76s-30.41-48.21-48.3,8.03c-16.55,52.02-19.32,152.93-10.44,193.92Z"/>
</svg>