<?xml version="1.0" encoding="UTF-8"?>
<svg id="huella4" xmlns="http://www.w3.org/2000/svg" viewBox="0 0 1052.32 1066.49">
  <defs>
    <style>
      .cls-1 {
        fill: #e0d296;
        stroke: #ad8863;
        stroke-linecap: round;
        stroke-linejoin: round;
        stroke-width: 27.87px;
      }
    </style>
  </defs>
  <path class="cls-1" d="m83.46,268c-.39,7.69-1.11,15.36-1.99,23.01-7.34,63.92-26.61,300.46,86.22,325.82,98.04,22.04,167.6-68.97,221.03-177.34,20.31-41.19,39.03-83.42,52.22-127.15,11.35-37.61,15.68-77,13.13-116.29h0c-6.42-30.37-27.66-11.27-42.88,10.01l-87.88,108.05s21.03-165.89,11.55-199.18c-9.48-33.29-21.16-42.35-52.1-8.49-30.94,33.86-86.81,171.9-86.81,171.9,0,0-20.75-138.67-24.7-151.44s-13.48-43.16-39.11-4.19c-23.71,36.05-46.98,112.22-48.68,145.29Z"/>
  <path class="cls-1" d="m620.8,669.95c2.96,7.11,5.62,14.34,8.13,21.61,20.96,60.83,105.63,282.53,218.36,256.73,97.95-22.42,121.44-134.53,122.88-255.35.55-45.92-.78-92.09-7.75-137.24-5.99-38.83-19.08-76.23-38.33-110.57h0c-18.9-24.63-29.82,1.77-34.37,27.53l-32.67,135.39s-52.6-158.73-75.52-184.67-37.36-29.07-50.66,14.82c-13.3,43.89-4.15,192.53-4.15,192.53,0,0-78.55-116.14-87.62-125.96-9.07-9.82-30.78-33.12-37.09,13.1-5.84,42.75,6.04,121.51,18.78,152.08Z"/>
</svg>