<?xml version="1.0" encoding="UTF-8"?>
<svg id="huella3" xmlns="http://www.w3.org/2000/svg" viewBox="0 0 1052.32 1066.49">
  <defs>
    <style>
      .cls-1 {
        fill: #d0eaa4;
        stroke: #87b585;
        stroke-linecap: round;
        stroke-linejoin: round;
        stroke-width: 48.55px;
      }
    </style>
  </defs>
  <path class="cls-1" d="m61.33,369.48c12.94,45.06,33.48,87.67,61.36,125.44,39.5,53.52,101.11,107.12,183.89,96.04,168.75-22.6,188.77-210.82,188.77-210.82l21.32-144.58c5.31-36.05-44.32-51.49-60.66-18.87l-50.11,100.02-100.35-179.24c-28.35-59.25-88.34-45.16-97.7,19.84l-39.15,175.69-82.97-79.25c-21.89-20.91-57.53.47-49.19,29.51l24.77,86.24Z"/>
  <path class="cls-1" d="m517.18,706.32c-1.11,46.87,5.77,93.67,21.09,138.04,21.72,62.87,64.51,132.43,146.82,146.57,167.8,28.83,243.12-144.82,243.12-144.82l63.52-131.61c15.84-32.81-26.92-62.37-52.25-36.13l-77.69,80.49-42.23-201.03c-9.36-65.01-70.82-69.48-99.17-10.24l-89.83,155.98-55.51-100.42c-14.65-26.49-55.04-16.73-55.76,13.48l-2.12,89.7Z"/>
</svg>