<?xml version="1.0" encoding="UTF-8"?>
<svg id="hoja2" xmlns="http://www.w3.org/2000/svg" viewBox="0 0 1052.32 1066.49">
  <defs>
    <style>
      .cls-1 {
        stroke-width: 3.13px;
      }

      .cls-1, .cls-2, .cls-3, .cls-4, .cls-5, .cls-6 {
        stroke-linecap: round;
        stroke-linejoin: round;
      }

      .cls-1, .cls-2, .cls-4 {
        fill: none;
        stroke: #83a060;
      }

      .cls-2 {
        stroke-width: 12.46px;
      }

      .cls-3 {
        stroke-width: 10.38px;
      }

      .cls-3, .cls-5, .cls-6 {
        fill: #acce84;
        stroke: #d4f4b0;
      }

      .cls-4 {
        stroke-width: 8.31px;
      }

      .cls-5 {
        stroke-width: 6.92px;
      }

      .cls-6 {
        stroke-width: 9.63px;
      }
    </style>
  </defs>
  <path class="cls-3" d="m547.62,409.61c-10.82-4.63-22.95-5.3-34.12-1.58-43.1,14.32-150.51,39.96-127.51-69.95,15.35-73.35,84.25-132.29,129.54-163.99,21.87-15.31,52.04-9.65,67.05,12.43,33.58,49.4,87.53,132.71,89.72,161.11,3.56,46.3-28.14,103.31-124.68,61.99Z"/>
  <path class="cls-3" d="m669.24,497.74c-4.05-11.05-11.88-20.34-22.24-25.93-39.98-21.56-132.29-82.17-36.5-140.78,63.92-39.12,154.06-29.37,208.2-18.14,26.14,5.42,42.71,31.27,36.93,57.33-12.94,58.32-36.59,154.71-55.76,175.77-31.26,34.34-94.5,50.35-130.61-48.25Z"/>
  <path class="cls-3" d="m407.23,449.34c-10.38,5.56-18.47,14.62-22.54,25.66-15.72,42.61-62.76,142.52-134.25,55.93-47.71-57.79-50.73-148.41-47.22-203.58,1.69-26.65,24.95-46.68,51.57-44.62,59.56,4.61,158.31,14.48,181.86,30.51,38.39,26.13,63.13,86.49-29.42,136.1Z"/>
  <path class="cls-2" d="m672.61,462.03c0-55.4,60.23-100.24,134.66-100.24"/>
  <path class="cls-3" d="m509.53,671.05c10.82,4.63,22.95,5.3,34.12,1.58,43.1-14.32,150.51-39.96,127.51,69.95-15.35,73.35-84.25,132.29-129.54,163.99-21.87,15.31-52.04,9.65-67.05-12.43-33.58-49.4-87.53-132.71-89.72-161.11-3.56-46.3,28.14-103.31,124.68-61.99Z"/>
  <path class="cls-3" d="m387.92,582.92c4.05,11.05,11.88,20.34,22.24,25.93,39.98,21.56,132.29,82.17,36.5,140.78-63.92,39.12-154.06,29.37-208.2,18.14-26.14-5.42-42.71-31.27-36.93-57.33,12.94-58.32,36.59-154.71,55.76-175.77,31.26-34.34,94.5-50.35,130.61,48.25Z"/>
  <path class="cls-3" d="m649.92,631.32c10.38-5.56,18.47-14.62,22.54-25.66,15.72-42.61,62.76-142.52,134.25-55.93,47.71,57.79,50.73,148.41,47.22,203.58-1.69,26.65-24.95,46.68-51.57,44.62-59.56-4.61-158.31-14.48-181.86-30.51-38.39-26.13-63.13-86.49,29.42-136.1Z"/>
  <path class="cls-2" d="m668.23,633.22c54.34-10.81,110.06,39.51,124.59,112.51"/>
  <path class="cls-2" d="m509.35,684.26c47.19,29.02,53.83,103.81,14.83,167.21"/>
  <path class="cls-6" d="m530.25,559.99c9.62-5.16,17.12-13.56,20.9-23.8,14.58-39.51,58.2-132.17,124.5-51.86,44.25,53.59,47.04,137.62,43.79,188.79-1.57,24.71-23.14,43.29-47.82,41.37-55.23-4.28-146.81-13.43-168.65-28.29-35.6-24.23-58.55-80.2,27.28-126.21Z"/>
  <path class="cls-2" d="m248.14,337.48c0,55.4,60.23,100.24,134.66,100.24"/>
  <path class="cls-2" d="m382.8,607.7c0,55.4-60.23,100.24-134.66,100.24"/>
  <path class="cls-4" d="m568.44,557.58c0,55.4,60.23,100.24,134.66,100.24"/>
  <path class="cls-6" d="m520.03,492.11c-9.62,5.16-17.12,13.56-20.9,23.8-14.58,39.51-58.2,132.17-124.5,51.86-44.25-53.59-47.04-137.62-43.79-188.79,1.57-24.71,23.14-43.29,47.82-41.37,55.23,4.28,146.81,13.43,168.65,28.29,35.6,24.23,58.55,80.2-27.28,126.21Z"/>
  <path class="cls-6" d="m505.27,533.41c2.79,10.55,9.23,19.8,18.32,25.84,35.07,23.33,115.12,87.2,21.65,133.12-62.37,30.65-144.77,13.93-193.8-1.07-23.68-7.24-36.76-32.53-29.19-56.1,16.94-52.74,47.03-139.72,66.54-157.53,31.81-29.03,91.57-38.4,116.47,55.74Z"/>
  <path class="cls-6" d="m554.78,553.12c-2.79-10.55-9.23-19.8-18.32-25.84-35.07-23.33-115.12-87.2-21.65-133.12,62.37-30.65,144.77-13.93,193.8,1.07,23.68,7.24,36.76,32.53,29.19,56.1-16.94,52.74-47.03,139.72-66.54,157.53-31.81,29.03-91.57,38.4-116.47-55.74Z"/>
  <path class="cls-4" d="m543.17,530.39c0-55.4,60.23-100.24,134.66-100.24"/>
  <path class="cls-4" d="m474.49,502.93c8.6-54.73-43.93-108.37-117.46-119.93"/>
  <path class="cls-4" d="m470.14,539.56c8.6,54.73-43.93,108.37-117.46,119.93"/>
  <path class="cls-5" d="m484.39,563.99c6.51-4.38,11.27-10.92,13.24-18.52,7.59-29.3,32.12-98.68,85.29-46.02,35.48,35.14,43.52,95.02,44.87,131.84.65,17.78-13.44,32.61-31.22,33.02-39.8.91-105.93.94-122.61-8.12-27.19-14.77-47.62-53.14,10.44-92.2Z"/>
  <path class="cls-5" d="m524.12,523.99c-6.51,4.38-11.27,10.92-13.24,18.52-7.59,29.3-32.12,98.68-85.29,46.02-35.48-35.14-43.52-95.02-44.87-131.84-.65-17.78,13.44-32.61,31.22-33.02,39.8-.91,105.93-.94,122.61,8.12,27.19,14.77,47.62,53.14-10.44,92.2Z"/>
  <path class="cls-1" d="m518.59,538.15c32.44-9.39,74.31,36.98,93.61,103.67"/>
  <path class="cls-1" d="m510.56,530.39c11.05-31.91-33.09-76.12-98.69-98.84"/>
  <path class="cls-2" d="m527.68,337.48c0-72.94,4.37-131.96,9.77-131.96"/>
</svg>