<?xml version="1.0" encoding="UTF-8"?>
<svg id="hoja1" xmlns="http://www.w3.org/2000/svg" viewBox="0 0 1052.32 1066.49">
  <defs>
    <style>
      .cls-1 {
        stroke: #9ca46a;
      }

      .cls-1, .cls-2, .cls-3 {
        stroke-linecap: round;
      }

      .cls-1, .cls-3 {
        fill: none;
        stroke-miterlimit: 10;
        stroke-width: 12px;
      }

      .cls-4 {
        fill: #9ba46c;
      }

      .cls-5 {
        fill: #e0ec86;
      }

      .cls-2 {
        fill: #d1d98e;
        stroke: #e0ec86;
        stroke-linejoin: round;
        stroke-width: 7px;
      }

      .cls-3 {
        stroke: #e0ed84;
      }
    </style>
  </defs>
  <path class="cls-2" d="m301.88,600.22l-117.19,83.49s-37.53,9.19,0,42.89,39.83,5.36,39.83,5.36l102.64-111.83s191.49,210.64,386.81-85.02c0,0,23.74-60.51,108.77-94.21,0,0,58.98-34.47,56.68-64.34,0,0-133.28-6.89-212.94-58.21,0,0-163.91-91.91-284.17,19.15s-80.43,262.72-80.43,262.72Z"/>
  <path class="cls-4" d="m218.61,736.88c-6.39,7.71-21.75-3.07-33.45-12.78-11.7-9.71-18.84-24.27-11.8-31.4,8.13-8.22,20.67-1.91,32.38,7.8,11.7,9.71,19.26,28.67,12.87,36.38Z"/>
  <path class="cls-1" d="m337.88,578.78c52.09-74.55,120.54-224,362.59-178.04,0,0,90.86,24.38,138.86-2.45"/>
  <path class="cls-3" d="m375.67,437.84c0-38.39,108.26-122.55,201.19-88.85"/>
  <path class="cls-3" d="m650.04,473.45c9.27,37.25-75.45,145.07-173.77,134.82"/>
  <path class="cls-5" d="m181.29,688.91s11.45,1.28,13.47,3.87l109.68-90.17-123.15,86.3Z"/>
</svg>