<?xml version="1.0" encoding="UTF-8"?>
<svg id="hoja_4" data-name="hoja 4" xmlns="http://www.w3.org/2000/svg" viewBox="0 0 1052.32 1066.49">
  <defs>
    <style>
      .cls-1 {
        fill: #dbd297;
        stroke: #ead786;
        stroke-linejoin: round;
        stroke-width: 7px;
      }

      .cls-1, .cls-2, .cls-3 {
        stroke-linecap: round;
      }

      .cls-2 {
        stroke: #a0956a;
      }

      .cls-2, .cls-3 {
        fill: none;
        stroke-miterlimit: 10;
        stroke-width: 12px;
      }

      .cls-4 {
        fill: #ead786;
      }

      .cls-5 {
        fill: #a0956a;
      }

      .cls-3 {
        stroke: #eacb86;
      }
    </style>
  </defs>
  <path class="cls-1" d="m680.07,654.49l80.97,118.94s32.02,21.63-14.87,40.23c-46.89,18.6-39.22-8.78-39.22-8.78l-57.5-140.48s-252.64,131.18-333.34-213.86c0,0-1.29-64.99-69.35-126.08,0,0-43.37-52.78-30.86-80,0,0,127.4,39.74,219.91,19.23,0,0,185.62-29.38,259.9,116.49,74.29,145.87-15.65,274.31-15.65,274.31Z"/>
  <path class="cls-5" d="m710.8,811.55c3.32,9.44,21.46,4.66,35.81-.39s26.09-16.23,21.95-25.36c-4.78-10.53-18.73-8.96-33.07-3.91s-28.01,20.21-24.69,29.66Z"/>
  <path class="cls-2" d="m653.74,621.9c-23.01-87.99-35.4-251.9-278.37-292.71,0,0-93.68-8.64-129.4-50.44"/>
  <path class="cls-3" d="m667.16,476.6c13.31-36-59.05-152.49-157.91-153.1"/>
  <path class="cls-3" d="m397.46,414.87c-21.61,31.72,20.47,162.23,116.25,186.7"/>
  <path class="cls-4" d="m762.44,779.49s-11.18-2.77-13.98-1.04l-71.61-122.61,85.59,123.65Z"/>
</svg>