<?xml version="1.0" encoding="UTF-8"?>
<svg id="hoja3" xmlns="http://www.w3.org/2000/svg" viewBox="0 0 1052.32 1066.49">
  <defs>
    <style>
      .cls-1 {
        fill: #c8ea86;
      }

      .cls-2 {
        stroke-width: 7px;
      }

      .cls-2, .cls-3, .cls-4, .cls-5 {
        stroke-linecap: round;
      }

      .cls-2, .cls-5 {
        fill: #c3d88f;
        stroke: #c8ea86;
        stroke-linejoin: round;
      }

      .cls-3 {
        stroke: #89a36a;
      }

      .cls-3, .cls-4 {
        fill: none;
        stroke-miterlimit: 10;
      }

      .cls-3, .cls-4, .cls-5 {
        stroke-width: 12px;
      }

      .cls-4 {
        stroke: #bfea86;
      }

      .cls-6 {
        fill: #89a36a;
      }
    </style>
  </defs>
  <path class="cls-2" d="m279.34,716.29l-94.52,108.49s-34.36,17.68,9.99,41.71c44.35,24.03,39.98-4.06,39.98-4.06l73.77-132.66s235.28,160.25,356.37-172.77c0,0,9-64.38,83.83-116.95,0,0,49.33-47.26,40.14-75.77,0,0-131.22,24.34-220.64-7.02,0,0-180.81-51.21-271.9,84.81-91.08,136.02-17.03,274.23-17.03,274.23Z"/>
  <path class="cls-6" d="m230.18,868.58c-4.42,8.98-21.86,2.08-35.51-4.64-13.64-6.71-23.98-19.22-18.79-27.79,5.99-9.89,19.66-6.67,33.3.04,13.64,6.71,25.41,23.39,20.99,32.38Z"/>
  <path class="cls-3" d="m309.35,687.05c33.29-84.63,65.06-245.91,311.15-257.59,0,0,94.04,2.55,134.47-34.72"/>
  <path class="cls-4" d="m313.27,541.19c-8.94-37.33,76.74-144.4,174.97-133.27"/>
  <path class="cls-5" d="m588.39,511.92c17.69,34.07-39.59,158.66-137.6,171.58"/>
  <path class="cls-1" d="m182.71,830.62s11.43-1.42,14,.63l85.66-113.24-99.66,112.61Z"/>
</svg>