<?xml version="1.0" encoding="UTF-8"?>
<svg id="Capa_11" data-name="Capa 11" xmlns="http://www.w3.org/2000/svg" viewBox="0 0 1080 1527.68">
  <defs>
    <style>
      .cls-1 {
        stroke-width: 3.07px;
      }

      .cls-1, .cls-2, .cls-3, .cls-4, .cls-5, .cls-6, .cls-7 {
        fill: none;
        stroke-linecap: round;
        stroke-linejoin: round;
      }

      .cls-1, .cls-2, .cls-4, .cls-5 {
        stroke: #b2daa9;
      }

      .cls-2 {
        stroke-width: 2.48px;
      }

      .cls-3 {
        stroke: #a9cea2;
        stroke-width: 8px;
      }

      .cls-4 {
        stroke-width: 4.22px;
      }

      .cls-5 {
        stroke-width: 2.9px;
      }

      .cls-6 {
        stroke-width: 4px;
      }

      .cls-6, .cls-7 {
        stroke: #96b991;
      }

      .cls-8 {
        fill: #96b991;
      }

      .cls-7 {
        stroke-width: 22px;
      }
    </style>
  </defs>
  <path class="cls-8" d="m544.56,316.65s28.01,1.23,31.18,33.62c.41,4.16,2.41,7.94,5.4,10.85.92.9,1.47,1.85,1.07,2.68-.78,1.61-.67,3.44-5.17,1.69-2.74-1.06-5.58-1.84-8.47-2.37-7.47-1.36-21.31-5.42-23.14-17.01-2.52-15.98-.86-29.46-.86-29.46Z"/>
  <path class="cls-4" d="m546.59,323.07s19.68,14.43,22.83,29.4"/>
  <path class="cls-8" d="m544.23,412.36s-20.15,3.37-19.57,27.07c.07,3.04-1.04,5.95-2.95,8.33-.58.73-.9,1.47-.53,2.03.71,1.1.79,2.43,3.89.76,1.88-1.01,3.87-1.82,5.91-2.46,5.28-1.64,14.93-5.81,15.23-14.35.41-11.78-1.98-21.38-1.98-21.38Z"/>
  <path class="cls-1" d="m543.33,417.18s-12.95,12.18-13.91,23.28"/>
  <path class="cls-8" d="m520.87,630.28s-20.15,3.37-19.57,27.07c.07,3.04-1.04,5.95-2.95,8.33-.58.73-.9,1.47-.53,2.03.71,1.1.79,2.43,3.89.76,1.88-1.01,3.87-1.82,5.91-2.46,5.28-1.64,14.93-5.81,15.23-14.35.41-11.78-1.98-21.38-1.98-21.38Z"/>
  <path class="cls-1" d="m519.97,635.11s-12.95,12.18-13.91,23.28"/>
  <path class="cls-8" d="m536.34,565.81s20.37-6.12,27.91,25.25c0,0,7,8.94,2.65,9.16-3.18.16-5.12.9-5.12.9,0,0-31.51,1.87-38.89-14.32l13.45-20.98Z"/>
  <path class="cls-5" d="m554.28,592.1s-9.04-14.18-19.08-16.89"/>
  <path class="cls-8" d="m545.1,696.28s17.44-5.24,23.89,21.61c0,0,5.99,7.65,2.27,7.84-2.72.14-4.38.77-4.38.77,0,0-26.98,1.6-33.29-12.26l11.51-17.96Z"/>
  <path class="cls-2" d="m560.45,718.78s-7.74-12.14-16.33-14.46"/>
  <path class="cls-7" d="m554.47,810.59c-3.83-2.98-6.89-8.42-9.23-14.18-4.11-10.08-5.91-20.94-5.7-31.83.36-18.71-.8-62.93-14.93-127.95-12.9-59.34,3.4-95.79,15.41-113.25,9.16-13.31,14.36-28.93,14.75-45.09.47-19.33-1.57-46.99-11.01-82.28-19.91-74.4,14.55-130.11,14.55-130.11"/>
  <path class="cls-3" d="m556.3,269.5s-41.93,65.76-6.18,154.79c0,0,20.33,42.41-21.26,127.92-4.56,9.37-7.14,19.59-7.61,30-.87,19.53.25,53.87,11.92,100.7,14.65,58.8,9.98,82.91,7.07,90.88-1.9,5.19-2.77,10.73-2.16,16.23.82,7.4,3.88,16.66,12.82,24.08"/>
  <path class="cls-6" d="m562.64,273.32s-18.38,81.19-4.34,116.43c0,0,22.72,54.4-29.87,124.99-52.6,70.59,10.66,120.12,10.66,120.12,0,0,8.24,11.23,9.77,24.51s2.55,23.49,9.45,31.15-4.34,43.91-4.34,43.91c0,0,.51,27.05,4.34,29.1,3.83,2.05-2,24.59-2,24.59"/>
  <path class="cls-6" d="m541.7,286.6s-13.79,21.45-14.3,41.87-9.7,31.15,0,48.51,56.23,96,35.78,130.21c0,0-6.58,18.2-6.88,31.06s-40.55,29.84-40.55,29.84"/>
  <path class="cls-6" d="m523.83,777.09s-8.68-26.83-2.81-42.66c5.87-15.83,3.07-41.87.38-47.49s13.95-57.19,13.95-57.19c0,0,13.5-7.66-3.35-35.23s-15.25-76.51,8.46-97.75"/>
</svg>