<?xml version="1.0" encoding="UTF-8"?>
<svg id="Capa_11" data-name="Capa 11" xmlns="http://www.w3.org/2000/svg" viewBox="0 0 1080 1527.68">
  <defs>
    <style>
      .cls-1 {
        stroke-width: 3.41px;
      }

      .cls-1, .cls-2, .cls-3, .cls-4, .cls-5 {
        fill: none;
        stroke-linecap: round;
        stroke-linejoin: round;
      }

      .cls-1, .cls-2, .cls-3, .cls-5 {
        stroke: #b2daa9;
      }

      .cls-2 {
        stroke-width: 5px;
      }

      .cls-3 {
        stroke-width: 6px;
      }

      .cls-4 {
        stroke: #96b991;
        stroke-width: 23px;
      }

      .cls-6 {
        fill: #96b991;
      }

      .cls-5 {
        stroke-width: 2.88px;
      }
    </style>
  </defs>
  <path class="cls-4" d="m504.04,293.68l5.45,143.83c2.4,63.39-13.5,126.31-46.79,180.3-.76,1.23-1.53,2.47-2.31,3.7-30.16,47.39-41.03,124.46,17.07,154.9,30.84,16.16,68.27,12.14,95.97-8.96,25.82-19.67,48.56-52.92,13.65-100.84-16.15-22.17-46.27-29.6-70.46-16.67-17.64,9.42-30.15,28.76-15.63,68.08"/>
  <path class="cls-2" d="m499.55,298.34l6.13,161.62s-2.27,70.28-20.17,107.49c-17.28,35.91-77.87,133.79-40.34,164.43"/>
  <path class="cls-2" d="m498.02,705.06s-27.99-48.19,39.91-63.06"/>
  <path class="cls-6" d="m515.12,384.13s39.55,5.33,39.89,51.64c.04,5.94,2.41,11.56,6.27,16.08,1.19,1.39,1.85,2.81,1.17,3.94-1.31,2.18-1.39,4.79-7.55,1.73-3.74-1.86-7.67-3.32-11.7-4.44-10.42-2.88-29.51-10.42-30.62-27.08-1.53-22.98,2.55-41.87,2.55-41.87Z"/>
  <path class="cls-3" d="m517.17,393.49s26.04,22.98,28.6,44.6"/>
  <path class="cls-6" d="m494.84,309s-18.49.52-21.31,23.41c-.36,2.94-1.77,5.59-3.81,7.62-.62.62-1.01,1.29-.76,1.89.48,1.15.36,2.44,3.37,1.26,1.83-.72,3.72-1.23,5.63-1.57,4.95-.87,14.17-3.57,15.63-11.76,2.03-11.28,1.24-20.85,1.24-20.85Z"/>
  <path class="cls-5" d="m493.36,313.52s-13.29,9.97-15.71,20.53"/>
  <path class="cls-6" d="m496.31,487.36s-18.32,2.64-21.75,22.47c0,0-3.44,8.85-7.61,12-3.01,2.27,3.07,5.39,6.69,6.95,2.62,1.13,5.47,1.68,8.31,1.47,3.3-.24,7.3-1.48,10.11-5.44,5.62-7.91,4.26-37.45,4.26-37.45Z"/>
  <path class="cls-1" d="m493.79,498.03s-16.37,11.07-19.23,22.95"/>
  <path class="cls-6" d="m476.31,613.4s24,6.98,11.4,42.72c0,0,1.19,13.29-3.23,10.72-3.23-1.87-5.62-2.38-5.62-2.38,0,0-21.45-4.09-18.38-24.77l15.83-26.29Z"/>
  <path class="cls-6" d="m588.39,673.61s-18.82-16.45-42.13,13.44c0,0-11.83,6.16-7.29,8.51,3.32,1.71,5.04,3.44,5.04,3.44,0,0,32.8,17.32,48.56,3.59l-4.18-28.98Z"/>
  <path class="cls-1" d="m483.31,655.06s.14-19.76-8.03-28.84"/>
  <path class="cls-1" d="m550.89,691.66s16.56-10.78,28.62-8.8"/>
  <path class="cls-6" d="m594.2,744.34s6.45-20.24,35.2-12.82c3.86,1,7.94,1.21,11.82.32,1.29-.3,2.81-.28,4.44.48,1.81.84,1.24,2.85.62,4.15-.48,1.01-.94,2.04-1.33,3.09-3.13,8.49-18.19,42.08-56.98,30.45l6.22-25.66Z"/>
  <path class="cls-1" d="m635.62,740.37s-19.75-.65-29.04,7.29"/>
</svg>