<?xml version="1.0" encoding="UTF-8"?>
<svg id="Capa_12" data-name="Capa 12" xmlns="http://www.w3.org/2000/svg" viewBox="0 0 1080 1527.68">
  <defs>
    <style>
      .cls-1 {
        stroke-width: 3.69px;
      }

      .cls-1, .cls-2, .cls-3, .cls-4, .cls-5, .cls-6, .cls-7, .cls-8, .cls-9, .cls-10, .cls-11, .cls-12 {
        fill: none;
      }

      .cls-1, .cls-3, .cls-4, .cls-5, .cls-6, .cls-7, .cls-8, .cls-9, .cls-10, .cls-11, .cls-12 {
        stroke-linecap: round;
        stroke-linejoin: round;
      }

      .cls-1, .cls-4, .cls-5, .cls-6, .cls-7, .cls-8, .cls-9, .cls-11, .cls-12 {
        stroke: #b2daa9;
      }

      .cls-2 {
        stroke: #a9cea2;
        stroke-miterlimit: 10;
        stroke-width: 8px;
      }

      .cls-3 {
        stroke-width: 25px;
      }

      .cls-3, .cls-10 {
        stroke: #96b991;
      }

      .cls-4 {
        stroke-width: 3.68px;
      }

      .cls-5 {
        stroke-width: 1.49px;
      }

      .cls-6 {
        stroke-width: 4.64px;
      }

      .cls-7 {
        stroke-width: 4.22px;
      }

      .cls-8 {
        stroke-width: 2.83px;
      }

      .cls-9 {
        stroke-width: 6px;
      }

      .cls-10 {
        stroke-width: 4px;
      }

      .cls-13 {
        fill: #96b991;
      }

      .cls-11 {
        stroke-width: 3.21px;
      }

      .cls-12 {
        stroke-width: 2.68px;
      }
    </style>
  </defs>
  <path class="cls-13" d="m351.75,426.55s39.55,5.33,39.89,51.64c.04,5.94,2.41,11.56,6.27,16.08,1.19,1.39,1.85,2.81,1.17,3.94-1.31,2.18-1.39,4.79-7.55,1.73-3.74-1.86-7.67-3.32-11.7-4.44-10.42-2.88-29.51-10.42-30.62-27.08-1.53-22.98,2.55-41.87,2.55-41.87Z"/>
  <path class="cls-9" d="m353.8,435.92s26.04,22.98,28.6,44.6"/>
  <path class="cls-13" d="m750.79,540.04s21.55,11.61,11.73,38.27c-1.26,3.42-1.12,7.15.12,10.58.38,1.05.45,2.01-.18,2.51-1.22.97-1.83,2.45-4.71-.64-1.75-1.88-3.69-3.57-5.76-5.08-5.36-3.91-14.68-12.36-11.72-22.16,4.09-13.52,10.52-23.48,10.52-23.48Z"/>
  <path class="cls-4" d="m749.95,551.74s9.98,18.82,6.77,31.78"/>
  <path class="cls-13" d="m736.04,479.71s-24.45,1.07-27.22,29.34c-.35,3.63-2.11,6.93-4.72,9.47-.8.78-1.28,1.61-.93,2.34.68,1.41.58,3,4.52,1.47,2.39-.93,4.87-1.61,7.39-2.06,6.52-1.19,18.6-4.74,20.2-14.85,2.2-13.95.75-25.72.75-25.72Z"/>
  <path class="cls-4" d="m734.27,485.32s-17.17,12.6-19.93,25.66"/>
  <path class="cls-13" d="m750.25,361s28.01,1.23,31.18,33.62c.41,4.16,2.41,7.94,5.4,10.85.92.9,1.47,1.85,1.07,2.68-.78,1.61-.67,3.44-5.17,1.69-2.74-1.06-5.58-1.84-8.47-2.37-7.47-1.36-21.31-5.42-23.14-17.01-2.52-15.98-.86-29.46-.86-29.46Z"/>
  <path class="cls-7" d="m752.27,367.43s19.68,14.43,22.83,29.4"/>
  <path class="cls-13" d="m352.35,620.66s-27.81,13.44-16.92,47.58c1.4,4.38,1.01,9.08-.74,13.33-.54,1.31-.68,2.51.09,3.18,1.49,1.29,2.17,3.19,5.97-.55,2.31-2.27,4.84-4.29,7.54-6.08,6.97-4.63,19.2-14.76,16.01-27.28-4.4-17.27-11.95-30.19-11.95-30.19Z"/>
  <path class="cls-6" d="m353.1,628.04s-13.63,23.17-10.3,39.68"/>
  <path class="cls-13" d="m507.08,783.15s-3.69-8.38-18.08,11.76c-1.85,2.58-4.61,4.31-7.68,5.1-.94.24-1.67.66-1.72,1.36-.1,1.36-.87,2.52,2.77,3.08,2.21.34,4.38.91,6.48,1.66,5.44,1.94,16.59,9.97,38.41-18.88,7.42-9.82-20.17-4.09-20.17-4.09Z"/>
  <path class="cls-11" d="m518.54,788.07s-18.45,2.04-26.21,10.7"/>
  <path class="cls-13" d="m688.54,704.24s18.8-5.65,25.76,23.3c0,0,6.46,8.25,2.45,8.45-2.93.15-4.72.83-4.72.83,0,0-29.09,1.73-35.89-13.21l12.41-19.36Z"/>
  <path class="cls-13" d="m582.93,753.09s-4.65-17.36,28.9-32.43c0,0,9.99-8.8,9.84-4.82-.11,2.91.5,4.52.5,4.52,0,0,5.85,14.19-11.77,25.21l-27.46,7.51Z"/>
  <path class="cls-8" d="m612.86,723.72s-15.66,12.05-19.37,22.07"/>
  <path class="cls-12" d="m705.09,728.5s-8.34-13.09-17.61-15.59"/>
  <path class="cls-13" d="m653.93,768.64s13.43,7.14,6.89,22.41c0,0,.14,5.85-1.72,4.6-1.36-.91-2.39-1.2-2.39-1.2,0,0-13.59-8.93-11.65-17.88l8.88-7.92Z"/>
  <path class="cls-5" d="m656.38,788.41s.63-8.64-2.68-12.85"/>
  <path class="cls-13" d="m774.86,475.9s15.21-.29,16.92,16.23c0,0,2.96,5.04.73,4.86-1.63-.14-2.67.11-2.67.11,0,0-16.22-1.19-18.88-9.96l3.91-11.24Z"/>
  <path class="cls-5" d="m786.62,491.98s-3.65-7.86-8.59-9.92"/>
  <path class="cls-13" d="m490.76,719.2s12.73-8.32,4.84-22.94c0,0-.39-5.84-2.13-4.42-1.27,1.03-2.27,1.41-2.27,1.41,0,0-12.73,10.12-9.99,18.86l9.55,7.09Z"/>
  <path class="cls-5" d="m491.41,699.29s1.41,8.55-1.51,13.04"/>
  <path class="cls-13" d="m415.63,706.29s4.11-14.64,20.42-11.51c0,0,5.68-1.38,4.86.7-.6,1.52-.67,2.59-.67,2.59,0,0-5.82,15.18-14.99,15.2l-9.63-6.98Z"/>
  <path class="cls-5" d="m434.42,699.68s-8.57,1.22-11.98,5.36"/>
  <path class="cls-13" d="m341.3,366.47s-15.57-17-39.18,4.7c-3.17,2.91-6.91,5.15-10.99,6.2-1.36.35-2.78,1.12-3.96,2.68-1.31,1.74.16,3.46,1.36,4.45.93.77,1.84,1.57,2.7,2.42,6.93,6.91,36.89,32.97,67.97,2.07l-17.9-22.52Z"/>
  <path class="cls-1" d="m300.41,383.11s18.3-10.46,30.78-7.16"/>
  <path class="cls-3" d="m743.57,271.38c7.86,157.15-.44,262.11-13.76,331.85-20.03,104.9-115.23,179.2-221.7,170.82-63.64-5.01-90.83-37.08-90.83-37.08-134.04-146.41-45.19-465.59-45.19-465.59"/>
  <path class="cls-10" d="m369.2,312.26s14,103.17-25.17,144.57-17.48,161.9,13.8,173.65,179.74,115.91,187.09,138.13,7.86,34.47,22.84,13.36-10.21-31.66-16-25.53c-5.79,6.13,10.55,34.72,23.49,32.34s17.36-29.96,12.94-35.06-22.47-9.87-21.45,9.19,49.7,75.23,86.81-22.47c37.11-97.7,86.47-150.13,86.47-150.13,0,0,65.02-134.13,17.36-194.04"/>
  <path class="cls-10" d="m737.63,324.43s-25.53,76.6-1.02,125.62,28.94,213.45,3.06,237.96-88.85,19.06-102.13,33.7,14.3,69.45-36.43,76.94c-50.72,7.49-72.51-37.45-72.51-37.45,0,0-120.96-24.08-158.35-124.72,0,0,5.84-111.53-21.39-173.15"/>
  <path class="cls-10" d="m587.47,774.7s3.07,24.92,27.77,19.84,37.68-52.47,37.68-52.47"/>
  <path class="cls-10" d="m587.47,764.83s18.76,40.96,54.84,12.7c36.09-28.26,36.43-56.51,36.43-56.51,0,0,33.02-159.66,52.09-163.4,19.06-3.74,50.38-136.17,27.23-162.72"/>
  <path class="cls-2" d="m367.93,271.38s-84.11,341.79,49.35,465.59c0,0,116.4,88.08,235.47-3.89,2.88-2.22,5.83-4.35,8.85-6.38,20.5-13.8,122.6-101.26,76.55-452.15"/>
</svg>