<?xml version="1.0" encoding="UTF-8"?>
<svg id="Capa_13" data-name="Capa 13" xmlns="http://www.w3.org/2000/svg" viewBox="0 0 1080 1527.68">
  <defs>
    <style>
      .cls-1 {
        stroke-width: 2.11px;
      }

      .cls-1, .cls-2, .cls-3, .cls-4, .cls-5, .cls-6, .cls-7, .cls-8 {
        fill: none;
        stroke-linecap: round;
        stroke-linejoin: round;
      }

      .cls-1, .cls-7 {
        stroke: #97b992;
      }

      .cls-2 {
        stroke: #bc862b;
      }

      .cls-2, .cls-6 {
        stroke-width: 6px;
      }

      .cls-3 {
        stroke-width: 1.99px;
      }

      .cls-3, .cls-4 {
        stroke: #b2daa9;
      }

      .cls-4 {
        stroke-width: 2.6px;
      }

      .cls-9 {
        fill: #b1daaa;
      }

      .cls-5 {
        stroke: #8e6828;
        stroke-width: 13px;
      }

      .cls-6 {
        stroke: #9cbc95;
      }

      .cls-7 {
        stroke-width: 1.73px;
      }

      .cls-10 {
        fill: #96b991;
      }

      .cls-8 {
        stroke: #b78940;
        stroke-width: 3px;
      }
    </style>
  </defs>
  <g>
    <path class="cls-10" d="m349.19,990.56c.4-1.84,2.21-8.57,7.56-12.06.57-.37,1.34-.04,1.36.6.12,3.27-.08,11.63-5.13,14.32-.32.17-.72.14-1-.08l-2.52-2.02c-.23-.19-.34-.48-.28-.77Z"/>
    <line class="cls-3" x1="352.42" y1="989.74" x2="354.79" y2="984.89"/>
  </g>
  <g>
    <path class="cls-10" d="m416.4,1018.48c.54,2.37,2.14,11.25-2.25,18.43-.47.77-1.56.83-1.94.1-1.96-3.73-6.35-13.55-1.87-19.64.29-.39.77-.59,1.22-.49l4.09.87c.38.08.67.36.75.73Z"/>
    <line class="cls-4" x1="413.03" y1="1021.32" x2="412.92" y2="1028.33"/>
  </g>
  <g>
    <path class="cls-10" d="m441.28,991.43c2.06-1.3,9.9-5.74,18.14-3.97.88.19,1.3,1.2.74,1.8-2.87,3.08-10.69,10.48-17.91,8.26-.46-.14-.81-.54-.87-.99l-.53-4.15c-.05-.39.12-.75.44-.95Z"/>
    <line class="cls-4" x1="445.08" y1="993.67" x2="451.73" y2="991.45"/>
  </g>
  <g>
    <path class="cls-10" d="m549.9,1032.17c-.66-2.34-2.7-11.13,1.34-18.52.43-.79,1.52-.91,1.94-.19,2.14,3.63,7.02,13.22,2.84,19.52-.27.4-.74.63-1.2.55l-4.13-.67c-.38-.06-.68-.33-.79-.7Z"/>
    <line class="cls-4" x1="553.13" y1="1029.17" x2="552.89" y2="1022.16"/>
  </g>
  <g>
    <path class="cls-10" d="m570.09,1038.28c.66,2.34,2.7,11.13-1.34,18.52-.43.79-1.52.91-1.94.19-2.14-3.63-7.02-13.22-2.84-19.52.27-.4.74-.63,1.2-.55l4.13.67c.38.06.68.33.79.7Z"/>
    <line class="cls-4" x1="566.86" y1="1041.29" x2="567.1" y2="1048.3"/>
  </g>
  <g>
    <path class="cls-9" d="m468.66,951.6c-2.07-1.7-9.27-8.17-7.62-14.93.18-.72,1.57-1.06,2.5-.6,4.72,2.37,16.42,10.19,14.02,16.12-.15.38-.68.67-1.32.71l-6.17-.93c-.55.04-1.08-.1-1.41-.37Z"/>
    <path class="cls-1" d="m472.94,949.21s-3.38-5.79-6.34-7.96"/>
  </g>
  <g>
    <path class="cls-9" d="m482.16,950.4c2.07-1.7,9.27-8.17,7.62-14.93-.18-.72-1.57-1.06-2.5-.6-4.72,2.37-16.42,10.19-14.02,16.12.15.38.68.67,1.32.71l6.17-.93c.55.04,1.08-.1,1.41-.37Z"/>
    <path class="cls-1" d="m477.87,948.02s3.38-5.79,6.34-7.96"/>
  </g>
  <g>
    <path class="cls-9" d="m481.72,950.4c2.07-1.7,9.27-8.17,7.62-14.93-.18-.72-1.57-1.06-2.5-.6-4.72,2.37-16.42,10.19-14.02,16.12.15.38.68.67,1.32.71l6.17-.93c.55.04,1.08-.1,1.41-.37Z"/>
    <path class="cls-1" d="m477.43,948.02s3.38-5.79,6.34-7.96"/>
  </g>
  <g>
    <path class="cls-9" d="m505.04,951.78c2.07-1.7,9.27-8.17,7.62-14.93-.18-.72-1.57-1.06-2.5-.6-4.72,2.37-16.42,10.19-14.02,16.12.15.38.68.67,1.32.71l6.17-.93c.55.04,1.08-.1,1.41-.37Z"/>
    <path class="cls-1" d="m500.75,949.39s3.38-5.79,6.34-7.96"/>
  </g>
  <g>
    <path class="cls-9" d="m750.82,933.96c2.07-1.7,9.27-8.17,7.62-14.93-.18-.72-1.57-1.06-2.5-.6-4.72,2.37-16.42,10.19-14.02,16.12.15.38.68.67,1.32.71l6.17-.93c.55.04,1.08-.1,1.41-.37Z"/>
    <path class="cls-1" d="m746.54,931.57s3.38-5.79,6.34-7.96"/>
  </g>
  <g>
    <path class="cls-9" d="m729.94,936.49c-2.07-1.7-9.27-8.17-7.62-14.93.18-.72,1.57-1.06,2.5-.6,4.72,2.37,16.42,10.19,14.02,16.12-.15.38-.68.67-1.32.71l-6.17-.93c-.55.04-1.08-.1-1.41-.37Z"/>
    <path class="cls-1" d="m734.23,934.1s-3.38-5.79-6.34-7.96"/>
  </g>
  <g>
    <path class="cls-9" d="m735.84,934.35c-.48-2.64-1.78-12.23,3.85-16.32.6-.44,1.89.2,2.29,1.16,2.06,4.86,5.93,18.39.27,21.36-.36.19-.95.07-1.47-.31l-4.1-4.7c-.44-.32-.76-.78-.84-1.19Z"/>
    <path class="cls-1" d="m740.65,935.3s1.17-6.6.31-10.17"/>
  </g>
  <g>
    <path class="cls-9" d="m489.35,953.26c-2.07-1.7-9.27-8.17-7.62-14.93.18-.72,1.57-1.06,2.5-.6,4.72,2.37,16.42,10.19,14.02,16.12-.15.38-.68.67-1.32.71l-6.17-.93c-.55.04-1.08-.1-1.41-.37Z"/>
    <path class="cls-1" d="m493.63,950.87s-3.38-5.79-6.34-7.96"/>
  </g>
  <g>
    <path class="cls-9" d="m471.77,949.22c-.63-2.13-2.55-9.91,1.62-13.8.45-.42,1.54,0,1.95.74,2.1,3.81,6.45,14.6,2.16,17.58-.28.19-.76.15-1.21-.12l-3.73-3.49c-.39-.23-.68-.57-.78-.91Z"/>
    <path class="cls-7" d="m475.73,949.56s.34-5.55-.67-8.41"/>
  </g>
  <g>
    <path class="cls-9" d="m494.07,949.9c-.63-2.13-2.55-9.91,1.62-13.8.45-.42,1.54,0,1.95.74,2.1,3.81,6.45,14.6,2.16,17.58-.28.19-.76.15-1.21-.12l-3.73-3.49c-.39-.23-.68-.57-.78-.91Z"/>
    <path class="cls-7" d="m498.03,950.24s.34-5.55-.67-8.41"/>
  </g>
  <path class="cls-5" d="m320.17,963.35s50.04-28.95,90.89-19.76,104.17,20.43,148.09,4.09c43.91-16.34,79.66-33.7,115.4-16.34s86.81,5.11,86.81,5.11"/>
  <path class="cls-2" d="m320.17,959.35s50.04-28.95,90.89-19.76,104.17,20.43,148.09,4.09c43.91-16.34,79.66-33.7,115.4-16.34s86.81,5.11,86.81,5.11"/>
  <path class="cls-8" d="m338.17,947.55s5.23,8.54,4.34,11.8,4.09-13.84,2.17-14.61c0,0,5.87,9.45,4.21,12.38,0,0,3.96-12.64,1.4-15.45l4.85,13.02s7.91-12.06,6.13-14.96l6.26,11.77s4.98,21.57,43.4,30.51c0,0,17.11,3.83,29.49,14.43s27.45,9.06,27.45,9.06c0,0,26.55-8.81,39.06-6.89s31.79,8.43,31.79,8.43c0,0,26.68,2.94,40.21-2.3s30.38-21.96,30.38-21.96c0,0,17.62-16.85,25.79-22.6,8.17-5.74,18.89-21.96,18.89-21.96l12.38-17.49s-3.83,11.62-1.28,13.02,12.26-9.64,12.26-9.64c0,0-7.79,15.97,0,15.61s8.81-13.89,8.81-13.89v16.09l9.7-13.02s-6,14.2-3.57,14.82,11.23-13.16,11.23-13.16c0,0-6.51,13.15-6.26,21.45.26,8.3,3.45,16.72-.13,21.57-3.57,4.85-3.7,10.47-1.4,12.89s3.32,4.47,2.55,6.51"/>
  <path class="cls-6" d="m318.64,956.7s6.81,5.62,6.47,11.06c0,0,1.9-9.53.01-14.47l5.6,11.01s1.36-11.01,0-14.07,8.17,10.72,8.17,10.72c0,0,.68,9.02,3.06,11.57s5.62,13.28,5.62,14.47,5.45,9.19,10.21,12.26,7.49,12.26,7.49,12.26c0,0,10.21,17.53,40.85,8,0,0,6.3-3.06,19.23-.51s17.53-13.28,17.53-13.28c0,0-2.21-14.81,1.87-21.28s19.74-36.94,26.04-37.45c0,0-2.55,10.92.85,12.35s10.21-11.16,10.21-11.16l-3.57,13.28s13.11-8.85,14.3-12.77l-1.36,12.94,10.38-12.77,2.55,13.11,5.28-13.62s2.21,18.72,1.7,28.94,3.4,23.49,8.17,28.43,9.7,27.4,9.7,27.4c0,0,7.15,7.83,15.32,4.09,8.17-3.74,8.68-7.15,14.13-2.89s7.15,6.81,11.57,1.02,11.4-19.23,8.51-24.85-13.96-12.77-9.87-22.47,11.57-24.51,18.89-26.72,8.68-35.06,8.68-35.06l5.62,11.74v-13.11l10.55,9.36,1.02-12.6s2.38-.51,3.74,12.43c.47,4.45,1.08,7.16,1.67,8.81.98,2.7,1.25,5.6.91,8.45-.44,3.69-.22,8.1,2.69,10.31,5.54,4.19,6.98,13.45,6.47,14.98"/>
</svg>