<?xml version="1.0" encoding="UTF-8"?>
<svg id="Capa_13" data-name="Capa 13" xmlns="http://www.w3.org/2000/svg" viewBox="0 0 1080 1527.68">
  <defs>
    <style>
      .cls-1 {
        stroke-width: 4px;
      }

      .cls-1, .cls-2, .cls-3, .cls-4, .cls-5, .cls-6, .cls-7, .cls-8, .cls-9, .cls-10, .cls-11, .cls-12 {
        fill: none;
        stroke-linecap: round;
        stroke-linejoin: round;
      }

      .cls-1, .cls-2, .cls-5, .cls-7 {
        stroke: #b2daa9;
      }

      .cls-2 {
        stroke-width: 2.77px;
      }

      .cls-13 {
        fill: #b1daaa;
      }

      .cls-3, .cls-6, .cls-9, .cls-10 {
        stroke: #97b992;
      }

      .cls-3, .cls-12 {
        stroke-width: 3px;
      }

      .cls-4 {
        stroke: #8e6828;
        stroke-width: 15px;
      }

      .cls-5 {
        stroke-width: 2.91px;
      }

      .cls-14 {
        fill: #96b991;
      }

      .cls-6 {
        stroke-width: 1.92px;
      }

      .cls-7 {
        stroke-width: 3.8px;
      }

      .cls-8 {
        stroke: #b1daaa;
        stroke-width: 8px;
      }

      .cls-9 {
        stroke-width: 1.87px;
      }

      .cls-10 {
        stroke-width: 2.43px;
      }

      .cls-11 {
        stroke: #bc862a;
        stroke-width: 7px;
      }

      .cls-12 {
        stroke: #b78940;
      }
    </style>
  </defs>
  <g>
    <path class="cls-13" d="m428.56,1119.98c1.31,2.02,6.49,9.26,14.11,10.87.81.17,1.52-.6,1.24-1.38-1.4-4-6.17-14.26-13.08-15.06-.44-.05-.88.18-1.08.57l-1.24,3.93c-.17.34-.15.74.05,1.06Z"/>
    <path class="cls-9" d="m432.14,1118.15s5.37,4.49,6.97,7.27"/>
  </g>
  <g>
    <path class="cls-13" d="m435.79,1161.72c-1.18,2.89-6.02,13.35-15.33,17.25-.99.42-2.07-.39-1.91-1.46.81-5.43,3.68-19.11,12.28-21.8.55-.17,1.16.01,1.51.47l3.26,4.18c.3.39.38.91.19,1.36Z"/>
    <path class="cls-10" d="m430.78,1160.26s-5.75,7.01-7.11,10.93"/>
  </g>
  <g>
    <path class="cls-13" d="m524.71,1196.18c2.45-1.93,11.18-9.46,12.37-19.48.13-1.07-.95-1.89-1.93-1.44-5,2.27-19.37,12.36-19.6,21.38-.01.58.6.43,1.14.65l6.66-.91c.46.18.97.11,1.36-.19Z"/>
    <path class="cls-10" d="m521.93,1191.77s5.16-7.46,8.56-9.84"/>
  </g>
  <g>
    <path class="cls-13" d="m474.05,1202.07c2.44-.5,11.4-2.74,16.39-9.49.53-.72.16-1.69-.68-1.73-4.28-.18-15.24.04-19.16,6.41-.25.41-.25.91.02,1.26l2.44,3.19c.23.3.6.43.99.35Z"/>
    <path class="cls-6" d="m474.04,1197.91s6.56-3.48,9.82-3.96"/>
  </g>
  <g>
    <g>
      <path class="cls-14" d="m338,816.57s7.72-26.61,15.19-31c4.86-2.86,6.56-5.09,7.15-6.31.43-.89,1.34-1.48,2.31-1.35,1.3.17,2.65,1.32,2.11,5.71-.96,7.81-13.74,33.2-26.76,32.96Z"/>
      <path class="cls-7" d="m345.12,809.25s1.74-8.3,6.9-10.38"/>
      <path class="cls-14" d="m337.82,816.69s-8.32-26.42-4.56-34.3c2.45-5.12,2.62-7.94,2.44-9.28-.13-.98.29-1.98,1.16-2.43,1.17-.6,2.93-.41,4.91,3.53,3.52,7.02,6.98,35.3-3.95,42.48Z"/>
      <path class="cls-7" d="m339.68,806.59s-3.15-7.87-.03-12.51"/>
      <path class="cls-14" d="m338.27,816.52s23.52-14.2,31.96-12.28c5.48,1.25,8.23.78,9.48.3.91-.35,1.97-.16,2.6.6.84,1.02,1.06,2.8-2.28,5.64-5.95,5.06-32.37,14.89-41.75,5.75Z"/>
      <path class="cls-7" d="m348.4,816.05s6.85-4.89,12.03-2.86"/>
      <path class="cls-14" d="m337.5,816.05s27.3,2.28,33.06,8.8c3.74,4.24,6.25,5.48,7.55,5.82.95.25,1.7,1.03,1.77,2.01.1,1.32-.74,2.9-5.1,3.25-7.75.62-34.89-6.93-37.28-19.89Z"/>
      <path class="cls-7" d="m346.02,821.64s8.38.05,11.43,4.74"/>
    </g>
    <path class="cls-14" d="m327.17,819.12s8.17-27.83,16.09-32.43c5.14-2.99,6.95-5.33,7.58-6.6.46-.93,1.41-1.55,2.44-1.41,1.37.18,2.81,1.38,2.24,5.97-1.02,8.17-14.55,34.72-28.34,34.47Z"/>
    <path class="cls-1" d="m334.72,811.47s1.84-8.68,7.3-10.86"/>
    <path class="cls-14" d="m326.99,819.25s-8.82-27.63-4.83-35.87c2.59-5.36,2.77-8.3,2.58-9.71-.14-1.03.31-2.07,1.23-2.54,1.24-.62,3.1-.43,5.2,3.69,3.73,7.34,7.39,36.92-4.18,44.43Z"/>
    <path class="cls-1" d="m328.95,808.68s-3.34-8.23-.03-13.08"/>
    <path class="cls-14" d="m327.46,819.07s24.91-14.85,33.84-12.84c5.8,1.31,8.72.82,10.04.31.97-.37,2.09-.17,2.75.62.89,1.06,1.12,2.93-2.42,5.9-6.3,5.3-34.28,15.57-44.22,6.01Z"/>
    <path class="cls-1" d="m338.19,818.59s7.25-5.12,12.74-3"/>
    <path class="cls-14" d="m326.64,818.59s28.91,2.38,35.01,9.21c3.96,4.44,6.62,5.73,7.99,6.09,1,.26,1.8,1.07,1.88,2.11.1,1.38-.79,3.03-5.4,3.4-8.21.65-36.95-7.24-39.48-20.8Z"/>
    <path class="cls-1" d="m335.66,824.43s8.88.05,12.11,4.96"/>
  </g>
  <g>
    <g>
      <path class="cls-14" d="m438.3,1042.75s-2.55-20.01,1.17-25.11c2.42-3.32,2.91-5.3,2.95-6.29.03-.72.46-1.37,1.15-1.57.91-.26,2.16.11,3.07,3.2,1.62,5.5.43,26.16-8.33,29.77Z"/>
      <path class="cls-2" d="m440.94,1035.8s-1.24-6.05,1.6-8.93"/>
      <path class="cls-14" d="m438.22,1042.88s-13.21-15.24-12.98-21.59c.15-4.13-.55-6.06-1.06-6.91-.37-.62-.38-1.41.07-1.96.61-.74,1.84-1.12,4.3.94,4.39,3.67,14.88,21.56,9.67,29.52Z"/>
      <path class="cls-2" d="m436.53,1035.6s-4.38-4.34-3.64-8.35"/>
      <path class="cls-14" d="m438.47,1042.64s11.6-16.3,17.79-17.46c4.02-.75,5.72-1.86,6.42-2.55.51-.5,1.27-.68,1.91-.35.85.44,1.52,1.56.11,4.43-2.51,5.11-17.31,19.32-26.23,15.93Z"/>
      <path class="cls-2" d="m445.11,1039.39s3.16-5.25,7.21-5.4"/>
      <path class="cls-14" d="m437.82,1042.55s18.89-6.38,24.63-3.69c3.73,1.75,5.76,1.85,6.73,1.7.7-.11,1.43.19,1.77.83.45.85.34,2.15-2.46,3.65-5,2.66-25.31,5.48-30.66-2.49Z"/>
      <path class="cls-2" d="m445.13,1043.82s5.61-2.4,9.01-.14"/>
    </g>
    <path class="cls-14" d="m431.81,1047.59s-2.6-20.96,1.35-26.32c2.57-3.49,3.1-5.57,3.15-6.6.04-.75.5-1.44,1.22-1.65.97-.28,2.28.11,3.22,3.34,1.68,5.75.33,27.41-8.95,31.23Z"/>
    <path class="cls-5" d="m434.63,1040.3s-1.28-6.33,1.74-9.37"/>
    <path class="cls-14" d="m431.72,1047.73s-13.89-15.91-13.62-22.56c.18-4.33-.55-6.35-1.09-7.23-.39-.65-.4-1.47.09-2.05.65-.77,1.95-1.19,4.54.96,4.62,3.82,15.63,22.52,10.07,30.89Z"/>
    <path class="cls-5" d="m429.98,1040.11s-4.61-4.53-3.81-8.73"/>
    <path class="cls-14" d="m431.99,1047.48s12.34-17.14,18.89-18.38c4.26-.81,6.06-1.98,6.8-2.7.54-.53,1.35-.72,2.02-.38.9.45,1.6,1.63.09,4.64-2.68,5.36-18.39,20.33-27.8,16.82Z"/>
    <path class="cls-5" d="m439.02,1044.04s3.36-5.52,7.64-5.69"/>
    <path class="cls-14" d="m431.3,1047.39s20-6.78,26.05-3.99c3.93,1.81,6.08,1.91,7.1,1.75.75-.11,1.51.2,1.86.86.47.89.35,2.25-2.62,3.83-5.3,2.81-26.78,5.86-32.4-2.46Z"/>
    <path class="cls-5" d="m439.02,1048.68s5.94-2.54,9.52-.19"/>
  </g>
  <g>
    <path class="cls-14" d="m321.06,890.52c2.43-3,11.87-13.67,24.28-14.97,1.33-.14,2.32,1.2,1.75,2.41-2.89,6.14-11.15,21.32-22.29,21.45-.72,0-1.37-.42-1.62-1.09l-2.37-6.11c-.22-.57-.12-1.21.26-1.68Z"/>
    <line class="cls-1" x1="327.34" y1="892.1" x2="335.95" y2="885.44"/>
  </g>
  <g>
    <path class="cls-14" d="m337.33,974.82c3.84.32,17.98,2.14,26.03,11.67.86,1.02.31,2.59-1.01,2.8-6.7,1.06-23.9,2.76-30.27-6.39-.41-.59-.42-1.37-.01-1.96l3.72-5.39c.35-.5.93-.78,1.54-.73Z"/>
    <line class="cls-1" x1="339.55" y1="980.9" x2="349.9" y2="984.28"/>
  </g>
  <path class="cls-4" d="m330.22,819.76s-4.7,33.11-13.02,53.78c-3.47,8.62-2.87,18.25,1.68,26.39,10.24,18.29,24.29,51.61,11.34,80.17-.26.58-.52,1.16-.76,1.72-9.15,21.24,8.23,44.25,31.97,42.87,22.54-1.31,59.42,2.09,74.33,35.07,22.16,49.02,123.48,75.57,185.74,26.55s100.26-78.64,143.53-62.3"/>
  <path class="cls-11" d="m330.22,815.76s-4.7,33.11-13.02,53.78c-3.47,8.62-2.87,18.25,1.68,26.39,10.24,18.29,24.29,51.61,11.34,80.17-.26.58-.52,1.16-.76,1.72-9.15,21.24,8.23,44.25,31.97,42.87,22.54-1.31,59.42,2.09,74.33,35.07,22.16,49.02,123.48,75.57,185.74,26.55s100.26-78.64,143.53-62.3"/>
  <path class="cls-12" d="m333.03,846.05l-14.3-5.23,15.98-4.85-12.54-11.55s9.41,3.5,13.77,3.37l-15.26,6,13.28,8.43"/>
  <path class="cls-12" d="m498.65,1113.71l-1.7-15.32-14.68,11.91c-98.55,77.62-181.4-144.38-152.81-180.89s-1.25-95.87-1.25-95.87"/>
  <path class="cls-12" d="m498.42,1111.71s1.67,33.12,19.93,46.9c5.01,3.78,12.02,3.38,16.55-.95,9.11-8.69,24.31-27.01,25.99-53.73l8.94,13.15,6.09-16.64s25.7,112.85,65.19,104,98.38-178.2,98.38-178.2l4.09-14.48,4.34,15.32,8.04-13.79-1.66,15.32,4.72-14.43"/>
  <path class="cls-8" d="m397.88,1077.63s6.47-1.7,5.96-13.62,1.53-22.81,1.53-22.81l5.82-16"/>
  <path class="cls-8" d="m415.58,1044.04s4.97-7,3.93-13.77"/>
  <path class="cls-8" d="m438.47,1049.37s-35.65,120,28.01,147.91c44.65,19.58,97.77-23.06,125.5-50.27,11.54-11.33,21.15-24.46,28.54-38.85,7.92-15.41,18.58-36.27,22.91-45.36,1.16-2.43,3.46-4.09,6.12-4.43,17.09-2.2,78.7-11.49,79.73-31.13l12.6-15.49,2.21,15.49,7.83-14.3s-2.21,24.17-6.81,29.96-7.66,14.81-10.55,24.68c-2.89,9.87-12.26,20.43-12.26,20.43"/>
  <g>
    <path class="cls-13" d="m430.73,1098.3c-2.1,3.23-10.39,14.82-22.6,17.41-1.3.28-2.43-.95-1.99-2.21,2.24-6.41,11.08-23.52,22.15-24.81.71-.08,1.4.28,1.73.92l.79,7c.28.54.25,1.19-.09,1.7Z"/>
    <path class="cls-3" d="m424.99,1095.37s-8.6,7.19-11.16,11.64"/>
  </g>
</svg>