<?xml version="1.0" encoding="UTF-8"?>
<svg id="Capa_21" data-name="Capa 21" xmlns="http://www.w3.org/2000/svg" xmlns:xlink="http://www.w3.org/1999/xlink" viewBox="0 0 1052.32 1053.55">
  <defs>
    <style>
      .cls-1 {
        fill: #8aa6cb;
      }

      .cls-2 {
        fill: #040602;
      }

      .cls-3 {
        fill: #4a6492;
      }

      .cls-4 {
        fill: #4c6991;
      }

      .cls-5 {
        stroke-width: 1.43px;
      }

      .cls-5, .cls-6, .cls-7, .cls-8, .cls-9, .cls-10, .cls-11, .cls-12, .cls-13, .cls-14, .cls-15, .cls-16, .cls-17 {
        stroke-miterlimit: 10;
      }

      .cls-5, .cls-11, .cls-14 {
        fill: #f8f2d5;
        stroke: #aaa687;
      }

      .cls-18 {
        fill: #c3d5ed;
      }

      .cls-19 {
        fill: #fbfefd;
      }

      .cls-20 {
        fill: #749abc;
      }

      .cls-6 {
        stroke: #bbdaf9;
      }

      .cls-6, .cls-10 {
        stroke-width: 3.95px;
      }

      .cls-6, .cls-10, .cls-21, .cls-22, .cls-23, .cls-15, .cls-17 {
        fill: none;
      }

      .cls-6, .cls-10, .cls-23, .cls-15, .cls-17 {
        stroke-linecap: round;
      }

      .cls-7 {
        fill: #fff;
        stroke-width: 7.9px;
      }

      .cls-7, .cls-16 {
        stroke: #6d6a2b;
      }

      .cls-24 {
        fill: #c5d7f0;
      }

      .cls-25 {
        fill: #bfd6e9;
      }

      .cls-26 {
        fill: #9cb9df;
      }

      .cls-27 {
        fill: #88a0bc;
      }

      .cls-28, .cls-9, .cls-16 {
        fill: #ece9da;
      }

      .cls-8, .cls-9 {
        stroke-width: 10.32px;
      }

      .cls-8, .cls-9, .cls-23, .cls-13 {
        stroke: #d6d1bc;
      }

      .cls-8, .cls-13 {
        fill: #dbd7c6;
      }

      .cls-29 {
        fill: #fdfefb;
      }

      .cls-30, .cls-12 {
        fill: #cfe9be;
      }

      .cls-31 {
        fill: #dad0b3;
      }

      .cls-32 {
        opacity: .55;
      }

      .cls-32, .cls-33 {
        fill: #838483;
      }

      .cls-34 {
        fill: #272727;
      }

      .cls-35 {
        fill: #82a0c3;
      }

      .cls-10 {
        stroke: #d8d2b8;
      }

      .cls-36 {
        fill: #8ca7c7;
      }

      .cls-11 {
        stroke-width: 1.85px;
      }

      .cls-37 {
        fill: #fbf9dc;
      }

      .cls-38 {
        fill: #9fbade;
      }

      .cls-39 {
        fill: #decea9;
        opacity: .57;
      }

      .cls-40 {
        fill: #435673;
      }

      .cls-41 {
        fill: #fcf2cf;
      }

      .cls-12 {
        stroke: #edf4e9;
        stroke-width: 8.87px;
      }

      .cls-42 {
        fill: #96bcd5;
      }

      .cls-22 {
        clip-path: url(#clippath);
      }

      .cls-43 {
        fill: #cddbe6;
      }

      .cls-44 {
        fill: #c7e5b3;
      }

      .cls-45 {
        fill: #fcf0ce;
      }

      .cls-46 {
        fill: #d6d1bc;
      }

      .cls-47 {
        fill: #85a6c9;
      }

      .cls-23 {
        stroke-linejoin: round;
        stroke-width: 18.21px;
      }

      .cls-13 {
        stroke-width: 13.76px;
      }

      .cls-48 {
        fill: #fcfefb;
      }

      .cls-14 {
        stroke-width: 1.98px;
      }

      .cls-33 {
        opacity: .37;
      }

      .cls-15 {
        stroke: #4a6492;
      }

      .cls-15, .cls-17 {
        stroke-width: 2.96px;
      }

      .cls-17 {
        stroke: #435c7f;
      }
    </style>
    <clipPath id="clippath">
      <path class="cls-21" d="m846.83,555.87c126.43,541.41-775.74,563.01-649.99,0,119.96-557.61,527.35-559.3,649.99,0Z"/>
    </clipPath>
  </defs>
  <g id="huevo4_copia" data-name="huevo4 copia">
    <path class="cls-13" d="m859.44,607.34l-84.26-120.21c-3.09-4.41-10.38-4.71-13.94-.57l-94.72,110.23c-3.71,4.32-11.38,3.78-14.23-1l-44.1-73.96c-2.79-4.69-10.26-5.32-14.06-1.19l-76.69,83.44c-3.78,4.11-11.21,3.51-14.03-1.14l-56.19-92.57c-2.34-3.85-8.05-5.08-12.21-2.61l-143.69,85.19c-3.51,2.08-8.26,1.57-11.07-1.19l-70.94-69.56c-4.88-4.78-14.02-2.21-14.68,4.14l-6.08,58s0,.09.02.13l54.16,112.68c.04.08.12.14.22.16l273.21,53.37s.06,0,.1,0l201.62-15.66c.07,0,.14-.03.19-.08l141.32-127.28c.1-.09.11-.22.04-.32Z"/>
  </g>
  <g id="COLA">
    <g>
      <path class="cls-14" d="m850.42,454.25l-27.23-29.65c-2.32-2.52-6.55-1.82-7.86,1.32-4.07,9.72-11.43,28.01-15.27,41.83-1.94,6.98,4.95,13.21,11.94,10.79l31.22-10.78c1.18-.41,2.4-.71,3.6-1.06,5.37-1.53,7.53-8.17,3.6-12.45Z"/>
      <path class="cls-31" d="m817.63,424.29s-1.26,34.53,9.42,47.96c-.6.33-19.65,10.47-26.93,4.33-3.97-3.34,14.44-52.9,17.51-52.29Z"/>
    </g>
    <g>
      <path class="cls-11" d="m839.58,503.02l-29.15-23.93c-2.48-2.04-6.29-.81-7.08,2.28-2.45,9.58-6.78,27.58-8.46,40.95-.85,6.75,6.35,11.62,12.48,8.44l27.38-14.21c1.04-.54,2.12-.98,3.18-1.47,4.75-2.15,5.85-8.61,1.65-12.06Z"/>
      <path class="cls-31" d="m805.26,479.55s3.49,32.29,15.17,43.36c-.51.39-16.73,12.37-24.29,7.63-4.12-2.58,6.2-51.14,9.12-50.99Z"/>
    </g>
    <g>
      <path class="cls-11" d="m832.29,560.95l-25.41-27.87c-2.16-2.37-6.11-1.71-7.33,1.24-3.8,9.13-10.67,26.32-14.25,39.31-1.81,6.56,4.62,12.41,11.14,10.14l29.13-10.13c1.1-.38,2.24-.67,3.36-.99,5.01-1.44,7.02-7.68,3.36-11.7Z"/>
      <path class="cls-31" d="m801.68,532.79s-1.18,32.46,8.79,45.08c-.56.31-18.33,9.84-25.13,4.07-3.7-3.14,13.47-49.72,16.34-49.15Z"/>
    </g>
    <g>
      <path class="cls-11" d="m817.62,616.71l-25.41-27.87c-2.16-2.37-6.11-1.71-7.33,1.24-3.8,9.13-10.67,26.32-14.25,39.31-1.81,6.56,4.62,12.41,11.14,10.14l29.13-10.13c1.1-.38,2.24-.67,3.36-.99,5.01-1.44,7.02-7.68,3.36-11.7Z"/>
      <path class="cls-31" d="m787.01,588.55s-1.18,32.46,8.79,45.08c-.56.31-18.33,9.84-25.13,4.07-3.7-3.14,13.47-49.72,16.34-49.15Z"/>
    </g>
    <g>
      <path class="cls-5" d="m856.39,403.56l-19.33-21.75c-1.65-1.85-4.65-1.33-5.58.97-2.89,7.13-8.11,20.54-10.84,30.68-1.38,5.12,3.51,9.69,8.48,7.92l22.16-7.91c.84-.3,1.7-.52,2.56-.78,3.81-1.12,5.34-5.99,2.55-9.13Z"/>
      <path class="cls-31" d="m833.11,381.59s-.9,25.33,6.68,35.18c-.43.24-13.95,7.68-19.11,3.18-2.82-2.45,10.25-38.81,12.43-38.36Z"/>
    </g>
    <path class="cls-36" d="m831.81,372.33c4.38,5.56,5.07,22.76-22.32,75,0,0-12.74,196.57-47.2,216.24l-36.04-38.11,36.04-205.04,60.86-48.9c2.63-2.11,6.57-1.84,8.65.81Z"/>
    <path class="cls-38" d="m734.15,578.82s28.16-4.04,52.04-99.88c0,0,28.67-73.65,39.05-86.76l-15.74-3.72-75.35,190.36Z"/>
    <path class="cls-45" d="m653.33,606.56s87.59-212.18,152.26-230.92c3.73-1.08,7.41-2.3,10.99-3.78,7.08-2.92,17.66-5.26,10.63,10.89-10.09,23.2-35.31,48.26-46.41,79.53-11.87,33.44-36.57,107.45-43.26,156.38l-84.22-12.11Z"/>
    <path class="cls-10" d="m800.48,380.32s4.25,11.73,18.03,16.27"/>
    <path class="cls-10" d="m770.72,406.3s14.12,13.67,26.23,18.77"/>
    <path class="cls-10" d="m746.82,434.21s27.93,22.87,30.96,23.54"/>
    <path class="cls-10" d="m727,467.17s14.8,15.81,40.69,27.58"/>
    <path class="cls-10" d="m710.18,498.86s24.89,22.45,46.75,33.55"/>
    <path class="cls-10" d="m746,568.06s-43.13-20.68-55.57-37.83"/>
    <path class="cls-10" d="m673.95,565.03s44.1,34.54,64.61,37.75"/>
    <path class="cls-40" d="m653.55,606.04c19.63-58.67,94.9-225.28,161.19-232.7-.9.27-2.44.6-3.29.85,0,0-1.07.37-1.07.37,0,0-2.12.73-2.12.73-.76.31-2.37,1.04-3.09,1.33,0,0-1,.5-1,.5,0,0-1.99,1.01-1.99,1.01-52.7,29.08-118.86,170.36-148.64,227.91h0Z"/>
    <path class="cls-40" d="m737.55,618.67c4.48-47.02,14.19-93.67,29.82-138.31,5.46-14.9,11.64-29.65,19.83-43.29,4.12-6.87,8.8-13.53,14.49-19.25,5.55-5.47,10.07-11.67,14.78-17.93,2.99-4.24,6.56-8.22,8.78-12.93-.54,2.58-1.98,4.88-3.11,7.24-2.48,4.64-5.11,9.19-7.84,13.67-1.36,2.25-2.79,4.5-4.32,6.69-2.97,4.29-6.63,8.03-9.51,12.4-2.88,4.19-5.5,8.6-7.88,13.14-9.5,18.31-16.45,37.98-22.75,57.63-12.62,39.75-22.26,80.37-32.28,120.93h0Z"/>
    <path class="cls-40" d="m829.52,397.28c-4.25,15.26-9.45,32.15-14.08,47.39-1.82,6.46-4.13,12.8-5.38,19.3-5.16,53.23-10.46,107.07-25.25,158.65-1.66,5.28-3.39,10.55-5.55,15.66-2.22,5.03-4.54,10.3-8.55,14.17,3.29-4.41,4.89-9.72,6.48-14.91,4.45-15.76,6.97-32.01,9.58-48.17,6.37-41.13,11.09-85.11,16.99-126.38,3.26-12.21,8.37-23.71,12.83-35.36,4.16-10.18,8.36-20.34,12.93-30.37h0Z"/>
  </g>
  <g id="CUERPO">
    <path class="cls-26" d="m420.97,517.78s18.83,47.42-39.94,105.93l-6.61,58.52,280.77-5.3-33.57-53.22s-44.91-16.94-53.09-101.79l-147.57-4.14Z"/>
    <path class="cls-40" d="m381.03,623.71c18.85-28.11,45.63-66.66,41.14-101.79,13.24,34.27-16,79.64-41.14,101.79h0Z"/>
    <path class="cls-40" d="m573.06,523.67c-3.29,28.67,12.41,54.84,27.09,78.21,5.16,7.95,10.59,15.76,16.21,23.58-7.45-6.15-13.98-13.32-19.99-20.87-16.72-21.49-33.73-53.38-23.31-80.93h0Z"/>
    <path class="cls-41" d="m454.6,530.39s3.03,65.91-36.32,139.23h163.1s-39.68-39.68-40.02-141.24l-86.76,2.02Z"/>
    <path class="cls-10" d="m455.82,551.59c9.11,4.03,55.06,7.44,84.36-.75"/>
    <path class="cls-10" d="m451.8,592.93c9.11,4.03,64.25,9.34,93.55,1.15"/>
    <path class="cls-10" d="m438,634.03c9.11,4.03,92.05,9.21,121.35,1.02"/>
    <path class="cls-40" d="m420.19,666.71c15.92-36.17,26.3-74.44,32.84-113.32,1.06-5.59,1.68-11.21,2.8-16.8.18,5.69.35,11.41.1,17.1-1.53,37.7-13.67,82.1-35.73,113.02h0Z"/>
    <path class="cls-40" d="m576.8,669.79c-13.35-20.91-22.57-44.3-29.08-68.19-2.22-8.12-4.06-17.45-5.44-25.73-.93-6.79-1.87-14.89-2.14-21.8-.36-5.73-.15-11.76.03-17.48.89,5.66,1.36,11.6,2.38,17.24,6.06,40,18.54,78.71,34.24,115.96h0Z"/>
    <path class="cls-18" d="m433.02,554.37c-5.26,17.47-22.32,67.96-49.31,88.88-2.22,1.72-1.05,5.33,1.76,5.37,8.08.09,23.11-6.14,43.24-42.3,18.29-32.86,17.12-47.14,13.08-53.32-2.26-3.45-7.57-2.57-8.76,1.38Z"/>
    <path class="cls-32" d="m425.17,533.78s50.95,40.44,85.92,39.04c34.21-1.37,59.28-36.06,67.68-58.95.19-.51,1.43-.47,1.6-.97,7.77-22.86-157.98,5.89-157.98,5.89l2.77,14.99Z"/>
    <path class="cls-33" d="m427.49,622.98l-14.51-27.49c-1.47-2.78-5.32-3.14-7.27-.68l-22.23,28c-.47.59-.78,1.3-.89,2.05l-7.26,47.05c-.41,2.64,1.64,5.03,4.31,5.03h246.72c3.09,0,5.2-3.13,4.04-6l-12.16-42.56c-.7-1.74-9.72-12.14-11.6-12.02l-9.95.62c-1.69.11-3.17,1.18-3.79,2.76-3.54,9.04-17.29,39.04-45.49,44.17-30.54,5.55-74.95-29.08-82.08-34.84-.66-.53-1.45-.86-2.3-.95-3.81-.39-15.05-1.3-22.79.46-5.02,1.14-10.18-1.15-12.76-5.6Z"/>
  </g>
  <g id="huevo1">
    <path class="cls-46" d="m403.53,208.59c.13.02.26.05.39.07.52.08,1.05.15,1.58.23.07,0,.13.01.2.02.16.02.31.03.47.04-3.4-.56-3.49-.52-2.62-.36Z"/>
    <path class="cls-46" d="m868.81,613.01c-.33-2.58-1.89-4.87-4.16-6.35-10.1-6.56-20.94-18.4-29.76-25.06-7.6-5.74-16.56-14.28-18.8-23.84-2.45-1.58-4.88-3.19-7.27-4.86-10.98-7.7-20.44-16.62-31.72-23.44-1.2-.73-2.39-1.41-3.57-2.07-9.14,8.54-17.98,17.36-26.62,26.36-10.19,10.62-20.1,21.47-29.9,32.4-9.36,10.45-19.46,20.6-27.94,31.69-6.23,8.14-12.77,16.1-18.57,24.52-1.75,2.54-3.42,5.13-4.96,7.79-.64,1.1-1.24,2.22-1.83,3.35-.27.52-.53,1.04-.79,1.57-.38.92-.71,1.85-1.02,2.78.35,4.72-.36,9.38-2.67,13.83-2.46,4.76-9.32,6.89-14.5,5.55-5.92-1.53-8.73-6.28-9.43-11.65-.38-2.93-.24-5.88.27-8.81v-.05c-.32-1.01-.68-2.02-1.06-3.01-.06-.16-.55-1.32-.77-1.86-.26-.53-.81-1.71-.89-1.86-.45-.9-.91-1.79-1.38-2.68-3.56-6.77-7.35-13.54-11.68-19.9-9.29-13.68-20.32-26.34-27.88-40.84-4.68,3.87-9.43,7.68-14.24,11.45-10.45,8.19-18.97,17.78-27.65,27.44-8.48,16.26-19.6,31.58-33.03,44.4-.24.23-.5.45-.76.66-.67,2.42-1.19,4.89-1.54,7.41-.84,6.15-4.3,10.9-11.14,11.87-5.77.82-12.99-2.81-14.09-8.65-2.35-12.51-10.93-23.03-16.02-34.64-5.14-11.73-8.54-23.93-14.84-35.2-11.62-20.8-20.08-42.96-30.53-64.26-4.09,2.41-8.32,4.59-12.36,6.76-4.43,2.39-8.64,5.09-13.04,7.51-12.87,12.79-28.68,22.36-44.75,31.71-10.03,5.84-19.91,11.82-30.27,17.12-7.06,6.59-13.77,13.51-20.03,20.81-1.1,1.28-2.51,2.19-4.08,2.76.58,3.53-.43,7.17-3.49,10.06-4.62,4.35-13.67,4.98-18.16,0-8.3-9.2-15.2-19.28-22.06-29.44-5.93-8.78-11.66-17.12-20.02-24.03-8.48-7.01-17.83-12.99-25.94-20.42-8.74-8-16.78-16.62-25.81-24.35-.07-.06-.12-.12-.19-.18-.78,3.48-1.56,6.98-2.32,10.5-126.16,564.83,749.32,568.55,683.23,57.15Z"/>
    <g class="cls-22">
      <path class="cls-28" d="m403.53,208.59c.13.02.26.05.39.07.52.08,1.05.15,1.58.23.07,0,.13.01.2.02.16.02.31.03.47.04-3.4-.56-3.49-.52-2.62-.36Z"/>
      <path class="cls-28" d="m854.23,594.38c-6.69-3.91-13.18-8.12-19.35-12.78-7.6-5.74-16.56-14.28-18.8-23.84-2.45-1.58-4.88-3.19-7.27-4.86-10.98-7.7-20.44-16.62-31.72-23.44-1.2-.73-2.39-1.41-3.57-2.07-9.14,8.54-17.98,17.36-26.62,26.36-10.19,10.62-20.1,21.47-29.9,32.4-9.36,10.45-19.46,20.6-27.94,31.69-6.23,8.14-12.77,16.1-18.57,24.52-1.75,2.54-3.42,5.13-4.96,7.79-.64,1.1-1.24,2.22-1.83,3.35-.27.52-.53,1.04-.79,1.57-.38.92-.71,1.85-1.02,2.78.35,4.72-.36,9.38-2.67,13.83-2.46,4.76-9.32,6.89-14.5,5.55-5.92-1.53-8.73-6.28-9.43-11.65-.38-2.93-.24-5.88.27-8.81-.03-.11-.06-.22-.09-.34-.29-.92-.62-1.82-.97-2.72-.06-.16-.55-1.32-.77-1.86-.26-.53-.81-1.71-.89-1.86-.45-.9-.91-1.79-1.38-2.68-3.56-6.77-7.35-13.54-11.68-19.9-9.29-13.68-20.32-26.34-27.88-40.84-4.68,3.87-9.43,7.68-14.24,11.45-10.45,8.19-18.97,17.78-27.65,27.44-8.48,16.26-19.6,31.58-33.03,44.4-.24.23-.5.45-.76.66-.67,2.42-1.19,4.89-1.54,7.41-.84,6.15-4.3,10.9-11.14,11.87-5.77.82-12.99-2.81-14.09-8.65-2.35-12.51-10.93-23.03-16.02-34.64-5.14-11.73-8.54-23.93-14.84-35.2-11.62-20.8-20.08-42.96-30.53-64.26-4.09,2.41-8.32,4.59-12.36,6.76-4.43,2.39-8.64,5.09-13.04,7.51-12.87,12.79-28.68,22.36-44.75,31.71-10.03,5.84-19.91,11.82-30.27,17.12-7.06,6.59-13.77,13.51-20.03,20.81-1.1,1.28-2.51,2.19-4.08,2.76.58,3.53-.43,7.17-3.49,10.06-4.62,4.35-13.67,4.98-18.16,0-8.3-9.2-15.2-19.28-22.06-29.44-5.93-8.78-11.66-17.12-20.02-24.03-8.48-7.01-17.83-12.99-25.94-20.42-5.68-5.2-11.07-10.66-16.62-15.97-.14.65-.29,1.29-.43,1.95-122.7,549.35,733.18,542.11,657.39,38.52Z"/>
      <path class="cls-44" d="m458.62,611.3c-11.62-20.8-20.08-42.96-30.53-64.26-4.09,2.41-8.32,4.59-12.36,6.76-4.43,2.39-8.64,5.09-13.04,7.51-11.99,11.92-26.54,21.04-41.46,29.79,26.68,22.11,62.79,30.91,98.91,23.05-.49-.96-.99-1.91-1.52-2.85Z"/>
      <path class="cls-44" d="m239.84,590.3c-8.16-6.74-17.1-12.54-24.98-19.58-.12,1.19-.21,2.4-.23,3.65.46,25.77,22.26,37.88,42.79,36.35-5.11-7.45-10.37-14.47-17.57-20.43Z"/>
      <path class="cls-44" d="m629.27,780.1c-1.04,57.08-91.29,57.07-92.31,0,1.04-57.08,91.29-57.07,92.31,0Z"/>
      <path class="cls-44" d="m942.53,723.86c-2.45,134.74-215.49,134.72-217.92,0,2.45-134.74,215.49-134.72,217.92,0Z"/>
      <path class="cls-44" d="m386.99,860.71c-2.38,131.23-209.88,131.21-212.24,0,2.38-131.23,209.88-131.21,212.24,0Z"/>
    </g>
    <path class="cls-23" d="m196.84,555.87l85.73,94.22c2.11,2.31,5.78,2.64,8.32.74l131.61-98.78c3.09-2.32,7.66-1.25,9.25,2.15l62.31,133.45c2.55,5.45,10.38,6.32,14.21,1.58l78.59-97.35c2.81-3.48,8.58-2.77,10.35,1.27l38.34,87.83c1.78,4.09,7.63,4.76,10.41,1.19l116.78-149.97c2.13-2.73,6.32-3.1,8.95-.79l84.34,76.07"/>
  </g>
  <g id="PATITA">
    <path class="cls-42" d="m700.72,632.68s-19.05-43.21-57.19-35.27c-38.14,7.94-43.01,46.52-34.72,63.31,8.29,16.79,79.73,19.79,93.11-28.93"/>
    <path class="cls-40" d="m606.96,656.19c-.08-.02-.12-.08-.16-.15-.24-.56-.38-1.13-.53-1.71-1.09-4.63-1.32-9.4-1.14-14.15.49-10.98,4.21-22.19,12.06-30.22,10.58-10.85,31.77-17.21,46.41-12.87,10.76,2.92,19.23,10.58,26.29,18.77-7.99-6.8-16.66-13.58-27.03-15.79-10.19-2.26-20.79.11-30.19,4.26-4.84,1.95-9.17,4.68-12.82,8.27-7.49,7.24-11.37,17.5-12.78,27.76-.64,4.59-.86,9.29-.5,13.93.1.61.05,1.45.39,1.91h0Z"/>
    <path class="cls-24" d="m652.23,608.46c1.91-1.64,1.32-4.81-1.08-5.55-3.99-1.23-11.03-.72-21.86,8.83-9.94,8.78-14.88,16.17-17.32,21.14-1.4,2.86,2.14,5.58,4.56,3.52,2.23-1.89,5.13-4.77,8.9-9.14,3.51-4.06,7.8-7.4,12.62-9.76,4.22-2.06,9.61-5.12,14.18-9.05Z"/>
    <path class="cls-1" d="m608.56,660.21s13.34-18.84,32.15-9.04c0,0,14.23-13.61,24.74-8.18,0,0,12.39-16.71,25.85-14.7l8.3,2.19,1.5,2.92-.76,4.67c-5.53,12.05-15.31,21.54-29.08,28.63-16.35,5.95-32.16,8.65-47.13,6.33-6.5-2.34-10.67-6.28-14-10.17l-1.58-2.66Z"/>
    <path class="cls-37" d="m633.55,678.2c-6.4,3.18-14.2,2.31-19.42-2.56-3.2-2.99-5.32-7.31-3.21-13.35,2.54-7.25,7.31-9.71,11.45-10.36s8.1.61,11.31,3.11c4.19,3.26,10.32,9.07,9.01,14.37-.95,3.85-5.11,6.78-9.14,8.78Z"/>
    <path class="cls-39" d="m642.69,669.41c-.95,3.85-5.11,6.78-9.14,8.78-6.4,3.18-14.2,2.31-19.42-2.56-3.2-2.99-5.32-7.31-3.21-13.35l.88.86c6.98,6.79,16.94,9.55,26.42,7.32l4.47-1.05Z"/>
    <path class="cls-37" d="m671.5,668.67c-4.19,5.79-11.5,8.65-18.38,6.76-4.22-1.16-8.11-4-9.04-10.33-2.25-15.19,12.32-17.59,12.32-17.59,0,0,17.17,1.22,19.12,9.13.95,3.85-1.37,8.38-4.01,12.03Z"/>
    <path class="cls-39" d="m675.51,656.65c.95,3.85-1.37,8.38-4.01,12.03-4.19,5.79-11.5,8.65-18.38,6.76-4.22-1.16-8.11-4-9.04-10.33l1.18.35c9.34,2.77,19.44.58,26.79-5.8l3.47-3.01Z"/>
    <path class="cls-37" d="m705.25,646.34c-1.41,7-6.87,12.64-13.92,13.77-4.32.7-9.04-.27-12.51-5.65-3.71-5.73-3.35-10.54-1.8-14.11,1.81-4.19,5.61-7.19,10.04-8.32,5.15-1.31,13.48-2.58,16.86,1.69,2.46,3.11,2.23,8.2,1.34,12.61Z"/>
    <path class="cls-39" d="m703.91,633.74c2.46,3.11,2.23,8.2,1.34,12.61-1.41,7-6.87,12.64-13.92,13.77-4.32.7-9.04-.27-12.51-5.65l1.22-.17c9.64-1.36,17.93-7.53,21.97-16.39l1.91-4.17Z"/>
    <path class="cls-40" d="m610.74,661.69c6.84-12.84,17.55-16.26,27.12-3.77,2.3,2.98,4.18,6.24,5.54,9.7-2.05-3.09-4.25-6.05-6.69-8.73-10.01-11.23-17.31-7.42-25.97,2.8h0Z"/>
    <path class="cls-40" d="m643.92,660.37c.31-10.75,14.96-17.03,23.85-12.04,3.07,1.62,5.61,4.06,7.33,6.93-2.36-2.35-5.06-4.29-7.99-5.53-8.43-3.71-20.9,1.42-23.19,10.64h0Z"/>
    <path class="cls-40" d="m677.7,652.53c-6.04-9.31,2.9-22.73,13.41-23.08,3.5-.22,6.98.57,9.96,2.17-3.27-.81-6.62-1.08-9.8-.62-9.56,1.39-17.03,12.15-13.57,21.52h0Z"/>
  </g>
  <g id="PATITA-2" data-name="PATITA">
    <path class="cls-42" d="m380.53,649.95s10.59-46.02-24.72-62.48c-35.31-16.46-62.3,11.53-65.7,29.94s52.04,63.56,91.91,32.54"/>
    <path class="cls-40" d="m291.34,612.68c-.05-.06-.05-.14-.03-.22.14-.6.37-1.13.6-1.69,1.9-4.36,4.57-8.33,7.55-12.03,6.96-8.5,16.65-15.26,27.74-17,14.97-2.36,35.75,5.22,44.88,17.46,6.87,8.78,9.07,19.98,9.83,30.77-2.34-10.23-5.22-20.85-12.21-28.83-5.08-5.88-11.93-9.92-19.23-12.47-7.25-2.49-15.1-4.36-22.73-3.22-10.33,1.32-19.58,7.21-26.85,14.59-2.8,2.82-5.38,5.9-7.63,9.18-.66.96-1.32,1.94-1.82,2.99-.05.14-.18.32-.1.45h0Z"/>
    <path class="cls-24" d="m356.17,601.52c2.51-.17,3.93-3.06,2.45-5.09-2.46-3.37-8.41-7.18-22.8-6-13.22,1.08-21.6,4.05-26.53,6.57-2.83,1.45-1.63,5.75,1.55,5.55,2.92-.18,6.97-.75,12.6-1.99,5.24-1.16,10.68-1.26,15.95-.27,4.61.87,10.77,1.65,16.78,1.24Z"/>
    <path class="cls-1" d="m290.21,616.86s21.96-7.11,31.17,12c0,0,19.55-2.39,24.72,8.25,0,0,19.93-5.97,29.51,3.69l5.33,6.72-.54,3.24-3.41,3.28c-11.64,6.34-25.15,8.09-40.43,5.54-16.66-5.01-30.94-12.31-41.55-23.13-3.81-5.77-4.79-11.42-5.14-16.53l.33-3.07Z"/>
    <path class="cls-37" d="m299.47,646.22c-7.03-1.28-12.76-6.64-14.02-13.67-.77-4.31.11-9.04,5.42-12.61,6.37-4.29,11.67-3.41,15.37-1.45s6.12,5.34,7.2,9.26c1.41,5.12,2.84,13.44-1.38,16.91-3.07,2.51-8.16,2.37-12.58,1.57Z"/>
    <path class="cls-39" d="m312.05,644.65c-3.07,2.51-8.16,2.37-12.58,1.57-7.03-1.28-12.76-6.64-14.02-13.67-.77-4.31.11-9.04,5.42-12.61l.19,1.21c1.53,9.62,7.86,17.79,16.79,21.67l4.21,1.83Z"/>
    <path class="cls-37" d="m335.58,661.3c-6.82,2.13-14.39.05-18.77-5.59-2.69-3.45-4.11-8.06-1.07-13.69,7.29-13.51,20.4-6.72,20.4-6.72,0,0,13.03,11.25,9.85,18.76-1.55,3.65-6.12,5.89-10.41,7.24Z"/>
    <path class="cls-39" d="m345.99,654.06c-1.55,3.65-6.12,5.89-10.41,7.24-6.82,2.13-14.39.05-18.77-5.59-2.69-3.45-4.11-8.06-1.07-13.69l.73.98c5.82,7.8,15.23,12.09,24.94,11.38l4.58-.33Z"/>
    <path class="cls-37" d="m375.98,663.6c-5.32,4.77-13.07,6.01-19.4,2.7-3.88-2.03-7.08-5.63-6.65-12.01.46-6.81,3.62-10.45,7-12.38,3.96-2.28,8.8-2.4,13.02-.66,4.91,2.03,12.35,6,12.5,11.45.11,3.96-3.12,7.9-6.47,10.9Z"/>
    <path class="cls-39" d="m382.45,652.7c.11,3.96-3.12,7.9-6.47,10.9-5.32,4.77-13.07,6.01-19.4,2.7-3.88-2.03-7.08-5.63-6.65-12.01l1.08.59c8.54,4.68,18.87,4.69,27.41.02l4.03-2.2Z"/>
    <path class="cls-40" d="m291.07,619.34c13.15-6.2,23.81-2.51,23.99,13.21.06,3.76-.38,7.5-1.37,11.09.23-7.03.56-14.96-3.09-21.09-4.12-6.25-13.1-4.63-19.52-3.21h0Z"/>
    <path class="cls-40" d="m318.44,638.14c6.69-8.43,22.17-4.7,26.32,4.62,1.49,3.13,2.07,6.61,1.72,9.94-.49-3.3-1.49-6.46-3.09-9.21-4.53-8.01-17.6-11.37-24.95-5.35h0Z"/>
    <path class="cls-40" d="m350.2,652.07c.73-11.08,15.92-16.48,24.55-10.47,2.93,1.92,5.25,4.63,6.69,7.7-2.14-2.6-4.65-4.83-7.48-6.36-8.49-4.61-20.92-.45-23.75,9.12h0Z"/>
  </g>
  <g id="cartel">
    <rect class="cls-30" x="201.95" y="660.84" width="599.28" height="392.71" rx="37.25" ry="37.25"/>
    <rect class="cls-12" x="222.38" y="676.93" width="558.42" height="362.44" rx="37.25" ry="37.25"/>
    <circle class="cls-16" cx="278.82" cy="705.88" r="11.29"/>
    <circle class="cls-16" cx="726.26" cy="705.88" r="11.29"/>
  </g>
  <path class="cls-8" d="m254.08,325.73c-2.46.38-5.01-.36-6.05-1.76l-54.3-72.88c-.15-.16.02-.35.31-.37l567.93-34.66c2.67-.16,5.11.92,5.64,2.5l30.95,92.63c.88,2.64-3.82,4.68-7.7,3.34l-74.45-25.7c-1.91-.66-4.31-.52-5.99.34l-121.86,62.94c-2.34,1.21-5.91.94-7.67-.59l-36.96-31.99c-1.73-1.5-5.22-1.79-7.57-.64l-79.51,38.97c-2.11,1.03-5.19.92-7.06-.27l-76.74-48.5c-1.3-.82-3.24-1.16-5.06-.88l-113.91,17.53Z"/>
  <g id="CARA">
    <path class="cls-26" d="m300.57,153.07s-35.31,69.61-28.25,100.89c0,0-46.91,107.45-13.62,162.94,33.29,55.49,43.89,70.62,125.06,85.25,0,0,45.06,37.71,113.16,39.22s116.91-40.73,116.91-40.73c0,0,84.24-4.54,119.05-78.19,34.81-73.65-6.56-162.43-6.56-162.43,0,0-21.53-118.29-52.3-149.06-30.77-30.77-264.49-145.03-373.45,42.12Z"/>
    <path class="cls-47" d="m254.93,401.45s25.47,63.37,116.77,76.99c0,0,64.06,42.88,132.16,34.81,68.1-8.07,108.46-36.32,108.46-36.32,0,0,56.5-14.12,73.65-30.77s45.63-43.47,53.33-138.51l6.7,33.08s-4.54,59.23-8.58,70.22-39.03,57.1-47.31,62.39-57.37,28.81-76.28,27.29c0,0-17.35,17.85-67.82,35.47-50.47,17.62-127.86-3.57-162.25-33.96,0,0-69.19-5.93-108.42-53.35l-20.42-47.35Z"/>
    <path class="cls-40" d="m269.3,259.51c-1.28.93-1.7,2.7-2.38,4.07-1.79,4.45-3.2,9.04-4.49,13.65-5.09,18.42-8.25,37.42-9.66,56.43-5.1,66.87,15.69,128.43,82.23,154.42,11.78,4.8,24.16,8.16,36.71,10.79-19.16-2.02-38.31-6.87-55.69-15.5-57.61-28.22-74.56-90.31-67.84-150.12,2.08-19.27,6.22-38.28,12.7-56.52,1.66-4.53,3.41-9.05,5.65-13.34.81-1.34,1.41-3.05,2.78-3.88h0Z"/>
    <path class="cls-40" d="m724.03,259.51c1.37.82,1.97,2.56,2.78,3.88,2.24,4.29,3.99,8.8,5.65,13.34,6.48,18.24,10.62,37.25,12.7,56.52,6.72,59.8-10.25,121.93-67.84,150.12-17.37,8.63-36.52,13.48-55.68,15.5,12.55-2.64,24.93-5.99,36.71-10.79,66.57-26.03,87.31-87.54,82.23-154.42-1.42-19.02-4.57-38.01-9.66-56.43-1.3-4.61-2.7-9.2-4.49-13.65-.68-1.39-1.11-3.12-2.38-4.07h0Z"/>
    <path class="cls-40" d="m275.35,224.19c12.68-68.83,57.42-134.41,123.88-160.63,35.81-14.69,75.37-17.69,113.64-14.47,49.31,4.15,105.89,10.65,145.75,42.45,25.47,20.28,39.5,50.94,48.47,81.47,3.7,12.22,6.78,24.61,9.64,37.04-1.64-6.16-3.33-12.31-5.1-18.44-10.33-36.08-24.2-74.1-54.8-97.84-41.38-32.08-102.95-37.78-153.77-41.41-83.8-5.84-157.76,26.49-200.18,100.92-12.68,22.01-22.32,45.99-27.54,70.9h0Z"/>
    <path class="cls-47" d="m433.07,458.09s30.6,43.89,71.29,40.78c40.69-3.11,62.55-30.69,66.92-51.54,0,0-53.13,65.58-138.22,10.76Z"/>
    <line class="cls-7" x1="480.03" y1="477.43" x2="286.37" y2="697.5"/>
    <line class="cls-7" x1="522.66" y1="477.3" x2="718.71" y2="697.5"/>
    <path class="cls-3" d="m420.97,442.62c4.9,5.25,11.09,8.7,17.37,11.86,31.61,14.38,68.92,20.44,102.31,9.34,5.43-1.79,11.4-4.59,16.34-7.46,6.02-3.48,11.7-7.71,17.33-12.4-26.81,48.96-99.38,47.26-139.35,15.81-5.66-4.67-11.33-10.22-14-17.16h0Z"/>
    <path class="cls-15" d="m423.55,439.78c0,3.16-3.01,5.72-6.73,5.72"/>
    <path class="cls-15" d="m571.29,440.75c0,3.16,3.01,5.72,6.73,5.72"/>
    <ellipse class="cls-35" cx="463" cy="407.37" rx="16.06" ry="10.09"/>
    <ellipse class="cls-35" cx="531.71" cy="407.05" rx="16.06" ry="10.09"/>
    <path class="cls-6" d="m518.18,403.45c2.4-8.32,18.12-16.87,29.59-.34"/>
    <path class="cls-6" d="m448.21,403.45c2.4-8.32,18.12-16.87,29.59-.34"/>
    <path class="cls-17" d="m448.21,406.3c2.4-8.32,18.12-16.87,29.59-.34"/>
    <path class="cls-17" d="m518.18,407.05c2.4-8.32,18.12-16.87,29.59-.34"/>
    <path class="cls-25" d="m290.15,269.76c-1.12-3.35-5.39-4.34-7.86-1.81-7,7.19-17.71,25.89-17.03,72.77.8,54.77,13.57,78.35,22.22,83.7,2.2,1.36,4.8-1.03,3.69-3.36-5.26-10.98-18.81-42.77-15.81-73.28,3.7-37.67,14.8-78.02,14.8-78.02h0Z"/>
    <path class="cls-4" d="m333.8,209.61c-10.31,4.15-23.49,11.12-30.68,21.54-3.72,5.39,1.71,12.35,7.79,9.93,9.86-3.93,23.04-10.72,30.96-21.04,4.21-5.48-1.66-13.01-8.07-10.43Z"/>
    <path class="cls-4" d="m662.82,211.29c10.31,4.15,23.49,11.12,30.68,21.54,3.72,5.39-1.71,12.35-7.79,9.93-9.86-3.93-23.04-10.72-30.96-21.04-4.21-5.48,1.66-13.01,8.07-10.43Z"/>
    <path class="cls-20" d="m510.09,235.12c-7.47,5.08-20.34,1.4-25.42-6.06s-4.75-20.3,2.72-25.38c7.47-5.08,19.25-.48,24.33,6.99s5.84,19.38-1.63,24.46Z"/>
    <path class="cls-20" d="m560.83,222.15c-3.33,2.27-8.47,1.53-10.2-1.01s-.96-7.36,2.38-9.62,7.97-1.13,9.7,1.41c1.73,2.54,1.46,6.96-1.88,9.22Z"/>
    <path class="cls-20" d="m490.08,180.64c-3.77,2.56-9.48.68-11.43-2.19s-2.59-6.67,1.18-9.23,9.01-1.28,10.96,1.58,3.06,7.27-.71,9.83Z"/>
    <path class="cls-20" d="m465.22,233.06c-2.8,1.9-6.79.88-8.05-.98s-1.55-4.4,1.25-6.31,6.48-1.27,7.74.59,1.86,4.79-.94,6.69Z"/>
    <path class="cls-20" d="m436.98,210.4c-5.81,3.95-13.71,2.36-16.07-1.11-2.36-3.46-2.69-8.35,3.12-12.3,5.81-3.95,13.12-3.07,15.48.39s3.28,9.07-2.53,13.02Z"/>
    <path class="cls-20" d="m412.04,179.64c-2.58,1.76-6.64.25-8.09-1.87s-1.99-4.88.59-6.64,6.3-.7,7.74,1.43,2.34,5.33-.24,7.09Z"/>
    <path class="cls-20" d="m447.03,155.9c-4.35,2.96-10.16,1.94-11.83-.52s-1.84-6,2.51-8.96c4.35-2.96,9.73-2.45,11.41.02s2.26,6.51-2.09,9.47Z"/>
    <path class="cls-20" d="m547.26,189.46c-4.78,3.25-12.18,2.13-14.7-1.56s-1.45-10.66,3.33-13.92,11.47-1.56,13.99,2.14c2.51,3.7,2.16,10.09-2.62,13.34Z"/>
    <path class="cls-20" d="m572.72,163.49c-2.66,1.81-6.69,1.34-8-.59s-.62-5.66,2.05-7.47,6.29-1.02,7.6.91,1.02,5.34-1.65,7.15Z"/>
    <path class="cls-20" d="m533.77,152.35c.11,4.99-5.2,8.86-9.74,8.96s-9.63-2.93-9.74-7.92,5.2-11.31,9.74-11.42c4.54-.1,9.63,5.38,9.74,10.38Z"/>
    <path class="cls-27" d="m390.87,259.51s-85.88-29.51-99.44,68.6c0,0-6.24,63.56,70.68,78.19,0,0-59.52-30.77-56.5-80.96,0,0,6.31-65.83,85.25-65.83Z"/>
    <path class="cls-27" d="m603.55,259.51s85.88-29.51,99.44,68.6c0,0,6.24,63.56-70.68,78.19,0,0,59.52-30.77,56.5-80.96,0,0-6.31-65.83-85.25-65.83Z"/>
    <g id="OJO">
      <g>
        <ellipse class="cls-19" cx="374.42" cy="330.71" rx="72.52" ry="70.7"/>
        <path class="cls-43" d="m407.43,393.69s-9.12,7.06-33,7.73c-40.04,1.11-87.13-38.67-68.62-93.65,0,0,9.31,48.22,40.92,72.81,24.97,19.42,60.7,13.11,60.7,13.11Z"/>
      </g>
      <circle class="cls-34" cx="393.94" cy="333.2" r="50.65"/>
      <path class="cls-2" d="m444.59,333.2c0,27.97-24.49-18.21-52.46-18.21s-41.87,78.69-48.84,18.21c-3.2-27.79,22.68-50.65,50.65-50.65s50.65,22.68,50.65,50.65Z"/>
      <circle class="cls-29" cx="381.03" cy="296.33" r="19.42"/>
      <ellipse class="cls-48" cx="408.41" cy="366.17" rx="12.56" ry="11.32"/>
      <path d="m301.99,325.02c-.48,29.24,12.85,59.18,42.08,69.07,19.64,6.6,44.03,6.71,63-2.03,20.91-9.6,33.77-31.51,36.64-53.89.36-5.79,0-11.65-.81-17.4-4.21-30.99-23.09-53.25-54.29-59.19-7.15-1.4-14.46-2-21.78-2.06,14.68-.7,29.71,1.07,43.11,7.49,26.3,12.22,38.24,42.3,37.47,70-2.01,24.19-16.13,48.32-38.69,58.57-19.81,9.12-45.42,8.83-65.73,1.48-29.95-10.85-43.16-41.83-40.99-72.03h0Z"/>
    </g>
    <g id="OJO-2" data-name="OJO">
      <g>
        <ellipse class="cls-19" cx="618.66" cy="332.73" rx="72.52" ry="70.7"/>
        <path class="cls-43" d="m585.66,395.7s9.12,7.06,33,7.73c40.04,1.11,87.13-38.67,68.62-93.65,0,0-9.31,48.22-40.92,72.81-24.97,19.42-60.7,13.11-60.7,13.11Z"/>
      </g>
      <circle class="cls-34" cx="599.52" cy="330.04" r="50.65"/>
      <path class="cls-2" d="m549.33,336.82c3.74,27.72,21.83-21.32,49.56-25.06,27.72-3.74,52.02,72.38,50.83,11.51-.54-27.97-29.25-47.16-56.97-43.42s-47.16,29.25-43.42,56.97Z"/>
      <circle class="cls-29" cx="587.96" cy="296.33" r="19.42"/>
      <ellipse class="cls-48" cx="614.27" cy="363.47" rx="12.56" ry="11.32" transform="translate(-43.09 85.42) rotate(-7.69)"/>
      <path d="m691.1,327.04c2.18,30.16-11.06,61.21-40.99,72.03-20.31,7.34-45.93,7.63-65.73-1.48-22.56-10.24-36.67-34.38-38.69-58.57-.76-27.69,11.17-57.79,37.47-70,13.4-6.43,28.43-8.19,43.11-7.49-7.32.07-14.63.67-21.78,2.06-31.21,5.95-50.07,28.19-54.29,59.19-.81,5.75-1.17,11.61-.81,17.4,2.87,22.38,15.73,44.29,36.64,53.89,18.97,8.75,43.34,8.63,63,2.04,29.22-9.88,42.57-39.83,42.08-69.07h0Z"/>
    </g>
    <path class="cls-40" d="m385.57,503.4c40.89,27.45,91.79,41.96,140.9,34.68,29.49-4.34,57.19-16.65,81.81-33.41,0,0-6.03,4.41-6.03,4.41-1.8,1.27-4.28,3.16-6.14,4.27-3.74,2.36-8.93,5.77-12.79,7.76,0,0-6.59,3.57-6.59,3.57l-6.8,3.17c-3.73,1.86-9.99,4.1-13.91,5.65-2.58.8-8.25,2.68-10.76,3.37-1.83.45-5.48,1.36-7.3,1.81-2.43.69-8.51,1.69-11.07,2.19-49.56,7.78-101.63-7.3-141.33-37.45h0Z"/>
  </g>
  <g id="huevo_3_copia" data-name="huevo 3 copia">
    <path class="cls-9" d="m485.59,5.26S265.22-7.14,193.41,250.76l73.78,51.76c1.79,1.26,4.91,1.47,7.12.48l116.64-52.17c2.62-1.17,6.38-.63,7.83,1.13l58.25,70.45c1.58,1.91,5.81,2.35,8.36.86l81.91-47.9c2.66-1.55,7.08-1.01,8.51,1.05l30.99,44.77c1.56,2.25,6.61,2.63,9.04.68l102.08-81.83c1.88-1.51,5.53-1.69,7.81-.4l82.65,47.06S738.16,6.89,485.59,5.26Z"/>
    <path class="cls-44" d="m331.05,150.44c-30.54,50.73-4.66,88.54,39.48,104.55,0,0,18.18-8.92,26.45-7.5,7.1,1.23,18.56,15.82,18.56,15.82,47.76,1.54,101.54-17.47,131.81-63.49,68.07-113.07-142.75-161.2-216.31-49.39Z"/>
    <path class="cls-44" d="m647.3,61.57c-.88,31.18-78.53,31.78-79.41.61.47-16.56,22.43-24.32,43.04-23.29,0,0,3.79-.05,18.99,10.47,16.33,11.31,17.38,12.21,17.38,12.21Z"/>
    <path class="cls-44" d="m391.32,69.53c-.61,21.5-53.73,21.5-54.33,0,.61-21.5,53.73-21.5,54.33,0Z"/>
    <path class="cls-44" d="m294.88,238.83c-.79,27.95-69.84,27.95-70.63,0,.79-27.95,69.84-27.95,70.63,0Z"/>
  </g>
  <path class="cls-44" d="m733.67,698.05s-6.59,5.53-4.51,18.13c2.47.6,14-8.68,4.51-18.13Z"/>
</svg>